<svg id="Layer_1" data-name="Layer 1" xmlns="http://www.w3.org/2000/svg" viewBox="0 0 175.49 170.99"><defs><style>.cls-1{fill:none;stroke:#00aeef;stroke-width:8px;}.cls-1,.cls-2{stroke-miterlimit:10;}.cls-2{fill:#00aeef;stroke:#fff;stroke-width:2px;}</style></defs><title>MMCidBOX</title><rect class="cls-1" x="24.4" y="54.38" width="95.71" height="95.71" rx="12" ry="12"/><path class="cls-2" d="M41.49,82.4a0.55,0.55,0,0,0,.1-0.16c0.72-3.66,3.8-5.44,7.75-5.23a33.59,33.59,0,0,1,11.85,3.11c5.77,2.55,11.44,5.36,17.14,8.07,0.32,0.15.62,0.32,1,.51C80.91,86.87,82.47,85,84,83.23c11-12.6,22.35-24.84,34.43-36.4a164.1,164.1,0,0,1,20.31-17.13,33.14,33.14,0,0,1,9.46-4.87c0.67-.19,1.34-0.36,2-0.54h2.51c0.6,0.21,1.21.39,1.79,0.65a4.21,4.21,0,0,1,2.1,6.3,18.14,18.14,0,0,1-2.82,3.52c-3.9,3.88-7.9,7.65-11.8,11.52a237.59,237.59,0,0,0-40.24,53.87,307.12,307.12,0,0,0-16.35,34.52c-0.55,1.38-1.38,2.42-2.94,2.56s-2.49-.78-3.22-2c-3.12-5.32-6.17-10.68-9.39-15.93A146.54,146.54,0,0,0,44.19,87.44a8.76,8.76,0,0,1-2.71-3.3V82.4Z"/></svg>