<?xml version="1.0"?>
<svg width="550" height="190" xmlns="http://www.w3.org/2000/svg" xmlns:svg="http://www.w3.org/2000/svg">
 <defs>
  <style>.cls-1{fill:#00aeef;}.cls-2,.cls-3{fill:#274fa2;}.cls-2{opacity:0.1;}.cls-4{fill:#ed1c24;}</style>
 </defs>
 <title>MMCidBOX</title>
 <g>
  <title>Layer 1</title>
  <path id="svg_1" d="m339.1,42.66l42.13,0a2.47,2.47 0 0 1 2.55,2.34a2.62,2.62 0 0 1 -2.65,2.42c-2.31,0 -4.63,0 -6.94,0l-74.47,-0.05c-0.95,0 -1.9,0.06 -2.85,0a2.6,2.6 0 0 1 -2.52,-2.4a2.57,2.57 0 0 1 2.65,-2.27l42.1,0s0,-0.02 0,-0.04z" class="cls-1"/>
  <path id="svg_2" d="m343.49,82.77q19.7,0 39.4,0a3.37,3.37 0 0 1 2.07,0.56a2.84,2.84 0 0 1 1,2a2.54,2.54 0 0 1 -2.29,2.13a15,15 0 0 1 -2.22,0q-38.66,0 -77.31,0a4.76,4.76 0 0 1 -1.8,-0.31a2.22,2.22 0 0 1 -1.54,-2.42a2.93,2.93 0 0 1 2.54,-2c1.86,0 3.72,0 5.57,0l34.57,0l0,-0.06l0.01,0.1z" class="cls-1"/>
  <path id="svg_3" d="m398.21,101.22l39.63,0c1.81,0 3.08,0.88 3.13,2.15s-1.25,2.31 -3.1,2.32q-20,0.07 -40,0.12q-19.51,0 -39,0a6,6 0 0 1 -1.7,-0.22a2.11,2.11 0 0 1 -1.71,-2.27a2.32,2.32 0 0 1 1.91,-2.16a4.89,4.89 0 0 1 1.23,-0.12l39.63,0l0,0.13l-0.02,0.05z" class="cls-1"/>
  <path id="svg_4" d="m335.13,126.16q-18.65,0 -37.29,0a3.07,3.07 0 0 1 -2,-0.63a2.91,2.91 0 0 1 -0.82,-2.12a2.45,2.45 0 0 1 2.34,-1.89a14.32,14.32 0 0 1 2.1,0q36.18,0 72.35,-0.07a6.67,6.67 0 0 1 2.4,0.42a2,2 0 0 1 1.43,2.34a2.32,2.32 0 0 1 -2.22,2c-1.24,0.05 -2.48,0 -3.72,0l-34.57,0l0,-0.05z" class="cls-1"/>
  <path id="svg_5" d="m375.33,52.74c1.44,0 2.48,1.13 2.55,3.21a7.14,7.14 0 0 0 2.66,5.24a7.93,7.93 0 0 0 5,2.12a4.13,4.13 0 0 1 2.24,1a1.73,1.73 0 0 1 -0.15,2.86a4.48,4.48 0 0 1 -2.11,0.88a8.36,8.36 0 0 0 -7.18,5.13a9.22,9.22 0 0 0 -0.44,2a11.12,11.12 0 0 1 -0.52,2a2.06,2.06 0 0 1 -2.31,1.48a2.72,2.72 0 0 1 -2.12,-2.17a6.48,6.48 0 0 1 -0.14,-1.23a8.07,8.07 0 0 0 -7.35,-7.16c-0.25,0 -0.5,0 -0.74,0a3,3 0 0 1 -2.49,-2.56a2.67,2.67 0 0 1 2.65,-2.33c2.86,0 4.82,-1.45 6.49,-3.52a8.2,8.2 0 0 0 1.6,-4.48c0.18,-1.67 1.03,-2.44 2.36,-2.47zm-3.18,13c1.26,1 2.27,1.91 3.32,2.72a1.32,1.32 0 0 0 0.7,-0.4c2.31,-2.2 2.31,-2.21 0.08,-4.49a2.3,2.3 0 0 0 -0.44,-0.42a0.77,0.77 0 0 0 -0.56,-0.14c-0.96,0.76 -1.87,1.59 -3.1,2.69l0,0.04z" class="cls-1"/>
  <path id="svg_6" d="m437.15,85.39a2.78,2.78 0 0 1 2.35,-2.64a17.66,17.66 0 0 0 4.43,-1.41a8,8 0 0 0 3.9,-6a15.82,15.82 0 0 1 0.29,-1.58a2.05,2.05 0 0 1 2.17,-1.67a2.34,2.34 0 0 1 2,2.19a7.9,7.9 0 0 0 3.85,6.95a16.79,16.79 0 0 0 4.83,1.65c1.18,0.31 1.94,0.93 1.94,2a2,2 0 0 1 -1.7,2.11c-0.4,0.08 -0.81,0.18 -1.22,0.22a8.35,8.35 0 0 0 -5.53,3a7.71,7.71 0 0 0 -2.15,5.13a2.79,2.79 0 0 1 -2,2.63c-1,0.11 -1.94,-0.82 -2.31,-2.19a19.82,19.82 0 0 0 -1.27,-4.23a8.14,8.14 0 0 0 -6.59,-4.26a3.61,3.61 0 0 1 -1.65,-0.43a8.25,8.25 0 0 1 -1.34,-1.47zm9.9,-0.45a5.59,5.59 0 0 0 0.54,0.83c0.53,0.57 1.12,1.08 1.64,1.65a1.09,1.09 0 0 0 1.87,0c0.5,-0.54 1,-1.09 1.52,-1.6a1,1 0 0 0 0,-1.7l-1.62,-1.69a1,1 0 0 0 -1.68,0c-0.53,0.57 -1.13,1.07 -1.67,1.63a6.56,6.56 0 0 0 -0.6,0.88z" class="cls-1"/>
  <path id="svg_7" d="m405.78,126.2c-7.18,0 -14.36,0 -21.54,0a2.83,2.83 0 0 1 -2.39,-1a1.87,1.87 0 0 1 0.31,-3a5,5 0 0 1 2.52,-0.8q20.93,0 41.85,0.08a6.78,6.78 0 0 1 1.94,0.24a2.28,2.28 0 0 1 1.73,2.4a2.42,2.42 0 0 1 -2.37,2c-1.73,0 -3.47,0 -5.2,0l-16.85,0l0,0.08z" class="cls-1"/>
  <path id="svg_8" d="m423.34,63.45l21.81,0a2.62,2.62 0 0 1 2.72,2.17a2.51,2.51 0 0 1 -2.73,2.28l-41.63,0.07c-0.78,0 -1.57,0.06 -2.35,0a2.42,2.42 0 0 1 -2.45,-2.42a2.51,2.51 0 0 1 2.59,-2.3l22.05,0l0,0.14l-0.01,0.06z" class="cls-1"/>
  <path id="svg_9" d="m332.52,63.32l0,0l17.2,0a2.4,2.4 0 1 1 0,4.74l-34.4,0a2.62,2.62 0 0 1 -2.85,-2.35a2.69,2.69 0 0 1 2.7,-2.37" class="cls-1"/>
  <path id="svg_10" d="m412,42.75c4.95,0 9.9,0 14.85,0c1.66,0 2.81,0.87 2.84,2.25a2.54,2.54 0 0 1 -2.79,2.34l-20.41,0c-3.13,0 -6.27,0 -9.4,0.06a2.65,2.65 0 0 1 -2.92,-2.51c0.07,-1.38 1.33,-2.23 3,-2.22c4.95,0 9.9,0 14.84,0l0,0l-0.01,0.08z" class="cls-1"/>
  <path id="svg_11" d="m414.32,82.88l15.11,0a2.29,2.29 0 0 1 2.29,1.74a2,2 0 0 1 -1.3,2.49a4.85,4.85 0 0 1 -1.9,0.39q-14.49,0.07 -29,0.08c-1.88,0 -3.26,-1.08 -3.23,-2.52s1.31,-2.27 3.15,-2.27l14.86,0l0,0.08l0.02,0.01z" class="cls-1"/>
  <path id="svg_12" d="m348.94,103.48c-0.37,4 -3,6.65 -6.81,6.9c-3.67,0.24 -7,-3.24 -7,-6.94a7.05,7.05 0 0 1 6.83,-6.81a7.14,7.14 0 0 1 6.98,6.85zm-4.75,0a2.46,2.46 0 0 0 -2.13,-2.19a2.57,2.57 0 0 0 -2.19,2.16a2.63,2.63 0 0 0 2.1,2.13a2.45,2.45 0 0 0 2.22,-2.07l0,-0.03z" class="cls-1"/>
  <path id="svg_13" d="m317.55,101.09c2.81,0 5.62,0 8.42,0a3.83,3.83 0 0 1 2,0.33a3.37,3.37 0 0 1 1.5,2a3,3 0 0 1 -1.36,2a3.92,3.92 0 0 1 -2.13,0.44q-8.61,0 -17.22,0a2.93,2.93 0 0 1 -1.77,-0.37a3.9,3.9 0 0 1 -1.3,-2a1.86,1.86 0 0 1 1.45,-2a6.46,6.46 0 0 1 1.83,-0.24c2.85,0 5.7,0 8.55,0l0,0l0.03,-0.16z" class="cls-1"/>
  <path id="svg_14" d="m243.06,126.21l-42.13,0a2.47,2.47 0 0 1 -2.55,-2.32a2.62,2.62 0 0 1 2.65,-2.42c2.31,0 4.63,0 6.94,0l74.47,0.05c0.95,0 1.9,-0.06 2.85,0a2.6,2.6 0 0 1 2.52,2.4a2.57,2.57 0 0 1 -2.63,2.26l-42.12,0s0,0.02 0,0.03z" class="cls-1"/>
  <path id="svg_15" d="m238.68,86.1q-19.7,0 -39.4,0a3.37,3.37 0 0 1 -2.07,-0.56a2.84,2.84 0 0 1 -1,-2a2.54,2.54 0 0 1 2.29,-2.13a15,15 0 0 1 2.22,0q38.66,0 77.31,0a4.76,4.76 0 0 1 1.8,0.31a2.22,2.22 0 0 1 1.54,2.42a2.93,2.93 0 0 1 -2.54,2c-1.86,0 -3.72,0 -5.57,0l-34.58,0l0,0.06l0,-0.1z" class="cls-1"/>
  <path id="svg_16" d="m184,67.65l-39.68,0c-1.81,0 -3.08,-0.88 -3.13,-2.15s1.25,-2.31 3.1,-2.32q20,-0.07 40,-0.12q19.51,0 39,0a6,6 0 0 1 1.7,0.22a2.11,2.11 0 0 1 1.71,2.27a2.32,2.32 0 0 1 -1.91,2.16a4.89,4.89 0 0 1 -1.23,0.12l-39.56,0l0,-0.13l0,-0.05z" class="cls-1"/>
  <path id="svg_17" d="m247,42.72q18.65,0 37.29,0a3.07,3.07 0 0 1 2,0.63a2.91,2.91 0 0 1 0.82,2.12a2.45,2.45 0 0 1 -2.34,1.89a14.32,14.32 0 0 1 -2.1,0q-36.18,0 -72.35,0.07a6.67,6.67 0 0 1 -2.4,-0.42a2,2 0 0 1 -1.43,-2.34a2.32,2.32 0 0 1 2.22,-2c1.24,-0.05 2.48,0 3.72,0l34.57,0l0,0.05z" class="cls-1"/>
  <path id="svg_18" d="m206.84,116.13c-1.44,0 -2.48,-1.13 -2.55,-3.21a7.14,7.14 0 0 0 -2.66,-5.24a7.93,7.93 0 0 0 -5,-2.12a4.13,4.13 0 0 1 -2.24,-1a1.73,1.73 0 0 1 0.15,-2.86a4.48,4.48 0 0 1 2.11,-0.88a8.36,8.36 0 0 0 7.18,-5.13a9.22,9.22 0 0 0 0.44,-2a11.12,11.12 0 0 1 0.52,-2a2.06,2.06 0 0 1 2.31,-1.48a2.72,2.72 0 0 1 2.12,2.17a6.48,6.48 0 0 1 0.14,1.23a8.07,8.07 0 0 0 7.35,7.16c0.25,0 0.5,0 0.74,0a3,3 0 0 1 2.49,2.56a2.67,2.67 0 0 1 -2.65,2.33c-2.86,0 -4.82,1.45 -6.49,3.52a8.2,8.2 0 0 0 -1.6,4.48c-0.2,1.67 -0.99,2.45 -2.36,2.47zm3.18,-13c-1.26,-1 -2.27,-1.91 -3.32,-2.72a1.32,1.32 0 0 0 -0.7,0.4c-2.31,2.2 -2.31,2.21 -0.08,4.49a2.3,2.3 0 0 0 0.44,0.42a0.77,0.77 0 0 0 0.56,0.14c0.95,-0.76 1.87,-1.59 3.08,-2.69l0.02,-0.04z" class="cls-1"/>
  <path id="svg_19" d="m145,83.49a2.78,2.78 0 0 1 -2.35,2.64a17.66,17.66 0 0 0 -4.43,1.41a8,8 0 0 0 -3.9,6a15.82,15.82 0 0 1 -0.29,1.58a2.05,2.05 0 0 1 -2.17,1.67a2.34,2.34 0 0 1 -2,-2.19a7.9,7.9 0 0 0 -3.85,-6.95a16.79,16.79 0 0 0 -4.83,-1.65c-1.18,-0.31 -1.94,-0.93 -1.94,-2a2,2 0 0 1 1.7,-2.11c0.4,-0.08 0.81,-0.18 1.22,-0.22a8.35,8.35 0 0 0 5.53,-3a7.71,7.71 0 0 0 2.15,-5.13a2.79,2.79 0 0 1 2,-2.63c1,-0.11 1.94,0.82 2.31,2.19a19.82,19.82 0 0 0 1.27,4.23a8.14,8.14 0 0 0 6.59,4.26a3.61,3.61 0 0 1 1.65,0.43a8.25,8.25 0 0 1 1.34,1.47zm-9.9,0.45a5.59,5.59 0 0 0 -0.54,-0.83c-0.53,-0.57 -1.12,-1.08 -1.64,-1.65a1.09,1.09 0 0 0 -1.87,0c-0.5,0.54 -1,1.09 -1.52,1.6a1,1 0 0 0 0,1.7l1.65,1.64a1,1 0 0 0 1.68,0c0.53,-0.57 1.13,-1.07 1.67,-1.63a6.56,6.56 0 0 0 0.58,-0.84l-0.01,0.01z" class="cls-1"/>
  <path id="svg_20" d="m176.39,42.68c7.18,0 14.36,0 21.54,0a2.83,2.83 0 0 1 2.39,1a1.87,1.87 0 0 1 -0.31,3a5,5 0 0 1 -2.52,0.8q-20.93,0 -41.85,-0.08a6.78,6.78 0 0 1 -1.94,-0.24a2.28,2.28 0 0 1 -1.73,-2.4a2.42,2.42 0 0 1 2.37,-2c1.73,0 3.47,0 5.2,0l16.84,0l0,-0.08l0.01,0z" class="cls-1"/>
  <path id="svg_21" d="m158.82,105.42l-21.82,0a2.62,2.62 0 0 1 -2.72,-2.17a2.51,2.51 0 0 1 2.72,-2.25l41.63,-0.07c0.78,0 1.57,-0.06 2.35,0a2.42,2.42 0 0 1 2.45,2.42a2.51,2.51 0 0 1 -2.59,2.3l-22.02,0l0,-0.14l0,-0.09z" class="cls-1"/>
  <path id="svg_22" d="m249.65,105.58l-17.2,0a2.4,2.4 0 1 1 0,-4.74l34.4,0a2.62,2.62 0 0 1 2.85,2.35a2.69,2.69 0 0 1 -2.7,2.37l-17.35,0l0,0l0,0.02z" class="cls-1"/>
  <path id="svg_23" d="m170.17,126.12c-4.95,0 -9.9,0 -14.85,0c-1.66,0 -2.81,-0.87 -2.84,-2.25a2.54,2.54 0 0 1 2.79,-2.34l20.41,0c3.13,0 6.27,0 9.4,-0.06a2.65,2.65 0 0 1 2.92,2.53c-0.07,1.38 -1.33,2.23 -3,2.22c-4.95,0 -9.9,0 -14.84,0l0,0l0.01,-0.1z" class="cls-1"/>
  <path id="svg_24" d="m167.85,86l-15.11,0a2.29,2.29 0 0 1 -2.29,-1.74a2,2 0 0 1 1.3,-2.49a4.85,4.85 0 0 1 1.9,-0.39q14.49,-0.07 29,-0.08c1.88,0 3.26,1.08 3.23,2.52s-1.31,2.27 -3.15,2.27l-14.88,0l0,-0.09z" class="cls-1"/>
  <path id="svg_25" d="m233.22,65.39c0.37,-4 3,-6.65 6.81,-6.9c3.67,-0.24 7,3.24 7,6.94a7.05,7.05 0 0 1 -6.83,6.81a7.14,7.14 0 0 1 -6.98,-6.85zm4.75,0a2.46,2.46 0 0 0 2.13,2.19a2.57,2.57 0 0 0 2.19,-2.16a2.63,2.63 0 0 0 -2.1,-2.13a2.45,2.45 0 0 0 -2.19,2.08l-0.03,0.02z" class="cls-1"/>
  <path id="svg_26" d="m264.61,67.78c-2.81,0 -5.62,0 -8.42,0a3.83,3.83 0 0 1 -2,-0.33a3.37,3.37 0 0 1 -1.5,-2a3,3 0 0 1 1.36,-2a3.92,3.92 0 0 1 2.13,-0.44q8.61,0 17.22,0a2.93,2.93 0 0 1 1.77,0.37a3.9,3.9 0 0 1 1.3,2a1.86,1.86 0 0 1 -1.45,2a6.46,6.46 0 0 1 -1.83,0.24c-2.85,0 -5.7,0 -8.55,0l0,0l-0.03,0.16z" class="cls-1"/>
  <path id="svg_27" d="m52.51,77.74a0.28,0.28 0 0 1 0.3,-0.3l13.38,0a0.28,0.28 0 0 1 0.3,0.3l0,3.88a0.28,0.28 0 0 1 -0.3,0.3l-8.19,0a0.16,0.16 0 0 0 -0.18,0.18l0,3.37a0.16,0.16 0 0 0 0.18,0.18l6.73,0a0.28,0.28 0 0 1 0.3,0.3l0,3.79a0.28,0.28 0 0 1 -0.3,0.3l-6.73,0a0.16,0.16 0 0 0 -0.18,0.18l0,7.36a0.28,0.28 0 0 1 -0.3,0.3l-4.71,0a0.28,0.28 0 0 1 -0.3,-0.3l0,-19.84z" class="cls-1"/>
  <path id="svg_28" d="m67.61,77.74a0.28,0.28 0 0 1 0.3,-0.3l4.69,0a0.28,0.28 0 0 1 0.3,0.3l0,15.26a0.16,0.16 0 0 0 0.18,0.18l8.66,0a0.28,0.28 0 0 1 0.3,0.3l0,4.09a0.28,0.28 0 0 1 -0.3,0.3l-13.83,0a0.28,0.28 0 0 1 -0.3,-0.3l0,-19.83z" class="cls-1"/>
  <path id="svg_29" d="m511.06,77.74a0.28,0.28 0 0 1 0.3,-0.3l4.69,0a0.28,0.28 0 0 1 0.3,0.3l0,19.84a0.28,0.28 0 0 1 -0.3,0.3l-4.69,0a0.28,0.28 0 0 1 -0.3,-0.3l0,-19.84z" class="cls-1"/>
  <path id="svg_30" d="m518.16,77.74a0.28,0.28 0 0 1 0.3,-0.3l4.69,0a0.28,0.28 0 0 1 0.3,0.3l0,15.26a0.16,0.16 0 0 0 0.18,0.18l8.66,0a0.28,0.28 0 0 1 0.3,0.3l0,4.09a0.28,0.28 0 0 1 -0.3,0.3l-13.83,0a0.28,0.28 0 0 1 -0.3,-0.3l0,-19.83z" class="cls-1"/>
  <path fill="black" id="svg_31" d="m163.35,134c-0.07,-4.69 -0.14,-9.12 -3.55,-12.73a1.85,1.85 0 0 1 -0.53,-1.39c0.32,-2.68 -0.52,-5.13 -1.41,-7.72a37.17,37.17 0 0 1 -1.21,-4a41.25,41.25 0 0 0 -3.42,-10a47.51,47.51 0 0 1 -5.44,-22.79a8.82,8.82 0 0 0 -1.09,-4.39c-5,-9.81 -7.94,-17.71 -9.47,-25.61c-0.32,-1.65 -0.57,-3.33 -0.81,-5a63.33,63.33 0 0 0 -1.7,-8.66a21.21,21.21 0 0 1 -0.95,-7a11.1,11.1 0 0 0 -1.07,-0.45c-0.74,-0.27 -1.52,-0.49 -2.32,-0.71a18.45,18.45 0 0 1 -4.21,-1.54c-0.52,-0.29 -0.9,-0.13 -1.78,0.38l-0.36,0.21c-0.77,0.94 -0.72,2 -0.29,3.54a2.46,2.46 0 0 1 -0.11,3.26a1,1 0 0 0 -0.12,0.49a4.38,4.38 0 0 1 -0.82,3.24a2.73,2.73 0 0 1 -2,0.8l-0.09,0c-2.28,0 -2.58,-2 -2.78,-3.4a2.38,2.38 0 0 0 -2.59,-2.31l-0.49,0a9.71,9.71 0 0 1 -3.24,-0.38a5.31,5.31 0 0 0 -1.69,0a4.79,4.79 0 0 1 -3.58,-0.66l-0.16,-0.1a4.48,4.48 0 0 0 -2.93,-0.38c-0.38,0 -0.76,0.06 -1.13,0.07l-0.3,0l-0.16,0a8.29,8.29 0 0 1 -5.3,-0.36l-0.13,-0.08l-0.12,0.03a4.55,4.55 0 0 0 -3,-0.36c-0.37,0 -0.75,0.06 -1.11,0.07l-0.47,0.07l-0.22,0a7.67,7.67 0 0 1 -5.08,-0.4l-0.12,-0.05l-0.16,-0.1a4.43,4.43 0 0 0 -2.84,-0.4c-0.41,0 -0.83,0 -1.21,0.05l-0.75,0.07a54.1,54.1 0 0 1 -11.23,-0.45c-2.15,-0.24 -4.38,-0.49 -6.56,-0.56l-0.18,0a4.17,4.17 0 0 1 -1.92,-0.85a0.86,0.86 0 0 1 -0.15,-0.2l-0.09,-0.14a6.71,6.71 0 0 1 -0.37,-4.67l0.05,-0.27a1.11,1.11 0 0 0 -0.32,-0.45a3.72,3.72 0 0 0 -0.68,-0.46a0.88,0.88 0 0 1 -0.35,-0.37a2.2,2.2 0 0 0 -0.62,-0.74l0,0c-14.54,0.15 -29.94,0.14 -49.86,0c-3,0 -3.71,0.57 -3.73,2.86a0.81,0.81 0 0 1 0,0.14c-0.07,0.39 0.08,0.56 0.7,1l0.4,0.33a2.57,2.57 0 0 1 0.87,1.52c0,0.13 0.07,0.26 0.12,0.36l0.51,0.3c1.94,1.4 1.77,3.26 1.63,4.75a3.9,3.9 0 0 0 0.29,2.59a0.88,0.88 0 0 1 0.13,0.7l-0.41,1.68a5.47,5.47 0 0 1 0.3,0.73l0,0.06c0.31,-0.24 0.61,-0.44 0.9,-0.64c1.59,-1.04 2.53,-1.78 2.21,-3.53a1.8,1.8 0 0 1 0.6,-1.92a1.5,1.5 0 0 1 1.75,0.15c0.31,0.21 0.31,0.21 0.87,-0.12l0.18,-0.1a1.65,1.65 0 0 1 2.08,0.11a1.77,1.77 0 0 1 0.15,2.14a2,2 0 0 0 -0.31,0.74c0.07,0.06 0.66,0.37 0.88,0.48a6.87,6.87 0 0 0 7.12,-0.42a7.36,7.36 0 0 1 5.17,-1.23a10.38,10.38 0 0 0 2,0c2,-0.3 3.45,0.92 4,3.28a0.88,0.88 0 0 1 -0.27,0.84a2.32,2.32 0 0 1 -0.91,0.5l0.19,0.09l0.51,0.25c1.21,0.6 2.46,1.22 3.66,1.93c0.29,0.17 0.34,0.21 1,-0.47a2.29,2.29 0 0 1 2.93,-0.87a0.89,0.89 0 0 1 0.34,0.32l0.2,0.05a1.62,1.62 0 0 1 1.37,1a1.7,1.7 0 0 1 -0.59,1.57a2.16,2.16 0 0 0 0.16,1.54a1.66,1.66 0 0 0 1.2,0.48a4.08,4.08 0 0 1 2.93,1.28a2.5,2.5 0 0 1 0.5,1.93c-0.15,1.12 0.28,1.5 1.34,2.33a5.2,5.2 0 0 1 2.22,4.37a1.82,1.82 0 0 0 0.4,1.4a1.79,1.79 0 0 0 1.49,0.07c0.71,-0.18 1.42,-0.34 2.14,-0.51c3.1,-0.71 6,-1.37 8.35,-3.45a6.52,6.52 0 0 1 4.65,-1.9a2.09,2.09 0 0 1 -0.48,-1a0.87,0.87 0 0 1 0.39,-0.9a5,5 0 0 0 1,-1a4.14,4.14 0 0 1 3.68,-2a11.44,11.44 0 0 0 2,-0.06c2.06,-0.18 4.62,-0.4 6.16,2.63a4.71,4.71 0 0 0 0.9,0.24l0.31,0.07a8.23,8.23 0 0 1 6,5.58c0.1,0.25 0.17,0.52 0.24,0.79c0.21,0.79 0.33,1.11 0.73,1.25c1.8,0.67 2.28,2.12 2.7,3.41l0.15,0.44a20.29,20.29 0 0 0 4,6.23a31.79,31.79 0 0 1 3.23,4.4a0.74,0.74 0 0 0 0.28,0.14c4.45,0.28 6.75,2.72 6.67,7.06c3.2,6.8 1.44,13.53 -0.63,19.84a7.59,7.59 0 0 1 -0.36,0.86c-0.35,0.73 -0.42,1 -0.23,1.26a3.79,3.79 0 0 1 0,3.72l-0.13,0.34c-1.14,3.12 -1.33,5.14 1,6.9l0.19,0.15a4,4 0 0 0 0.83,-1.23a4.27,4.27 0 0 0 -1,-1.32a3.81,3.81 0 0 1 -0.72,-4.56a0.88,0.88 0 0 1 0.8,-0.51l0,0a4.46,4.46 0 0 1 3.31,1.71c0.16,0.17 0.32,0.33 0.48,0.48a0.93,0.93 0 0 1 0.73,-0.14l0.27,0a1.73,1.73 0 0 1 1.27,0.59c1.79,2.46 1.71,3.55 -0.48,6.47c-3.42,4.56 -3.86,8 -1.52,11.74a21.75,21.75 0 0 1 1.75,3.87c0.24,0.64 0.48,1.28 0.75,1.9l0.35,0.79c0.64,1.49 1.3,3 2,4.48a2.11,2.11 0 0 0 0.58,0.75a0.29,0.29 0 0 0 0.37,0a0.68,0.68 0 0 0 0.26,-0.19a2.94,2.94 0 0 0 -0.43,-0.88l-0.18,-0.3a0.88,0.88 0 0 1 -0.1,-0.28a2.21,2.21 0 0 0 -0.07,-0.24a1.61,1.61 0 0 1 0.1,-1.57a1.51,1.51 0 0 1 1.4,-0.46a1.8,1.8 0 0 0 0.41,0a2.12,2.12 0 0 1 1.9,0.37a2,2 0 0 1 0.47,1.64a30.8,30.8 0 0 1 0.65,7c0,1.1 0,2.24 0.11,3.35a0.72,0.72 0 0 0 0.93,-0.2a2.06,2.06 0 0 0 0.36,-0.83a4,4 0 0 1 0.61,-1.36a0.88,0.88 0 0 1 1.54,0.76a7.36,7.36 0 0 1 -0.36,1a1.88,1.88 0 0 0 -0.26,1.5c1,0.84 2.16,1.9 1.89,3.83a11.45,11.45 0 0 0 0.42,4.08c0.13,0.58 0.26,1.16 0.35,1.75a7.18,7.18 0 0 0 3.68,5.54c2.05,1.15 4,2.47 5.94,3.75l1.25,0.84c0.16,0.11 0.36,0.21 0.56,0.31c0.73,0.38 1.64,0.86 1.68,1.83a2.43,2.43 0 0 1 -1.34,1.94a14.17,14.17 0 0 1 1.74,4.4a14.5,14.5 0 0 0 1.23,3.44a0.86,0.86 0 0 1 0.11,0.35c0.1,1 0.74,1.44 1.85,2.11c0.28,0.17 0.56,0.34 0.82,0.52a0.86,0.86 0 0 1 0.17,0.15a3.07,3.07 0 0 0 1.25,0.72a5.21,5.21 0 0 1 1.64,0.92c0.48,0.49 0.78,0.56 1.14,0.19a5.61,5.61 0 0 1 2.91,-1.42l0.61,-0.16a5.3,5.3 0 0 0 0.52,-0.19a2.51,2.51 0 0 1 2.86,0.18a2.6,2.6 0 0 1 0.28,0.31a4.4,4.4 0 0 1 0.83,-2.48l-0.08,-0.19c-1.12,-3.07 -2.06,-7.54 2.67,-10.81a1.61,1.61 0 0 0 0.13,-0.58l0,-0.21c0.2,-1.5 0.42,-3 0.64,-4.5c0.94,-6.49 1.91,-13.2 1.68,-19.87c0.05,-0.75 0.04,-1.51 0.03,-2.29z" class="cls-2"/>
  <rect id="svg_32" transform="rotate(70.91000366210938 324.2699890136719,-239.57000732421875) " height="70.83" width="27.48" y="-137.290007" x="604.949989" class="cls-3"/>
  <path id="svg_33" d="m339.1,42.66l42.13,0a2.47,2.47 0 0 1 2.55,2.34a2.62,2.62 0 0 1 -2.65,2.42c-2.31,0 -4.63,0 -6.94,0l-74.47,-0.05c-0.95,0 -1.9,0.06 -2.85,0a2.6,2.6 0 0 1 -2.52,-2.4a2.57,2.57 0 0 1 2.65,-2.27l42.1,0s0,-0.02 0,-0.04z" class="cls-1"/>
  <path id="svg_34" d="m304.15,87.54a4.76,4.76 0 0 1 -1.8,-0.31a2.22,2.22 0 0 1 -1.54,-2.42a2.93,2.93 0 0 1 2.54,-2c1.86,0 3.72,0 5.57,0l34.57,0l0,-0.06q19.7,0 39.4,0a3.37,3.37 0 0 1 2.07,0.56a2.84,2.84 0 0 1 1,2a2.54,2.54 0 0 1 -2.29,2.13a15,15 0 0 1 -2.22,0" class="cls-1"/>
  <path id="svg_35" d="m398.21,101.22l39.63,0c1.81,0 3.08,0.88 3.13,2.15s-1.25,2.31 -3.1,2.32q-20,0.07 -40,0.12q-19.51,0 -39,0a6,6 0 0 1 -1.7,-0.22a2.11,2.11 0 0 1 -1.71,-2.27a2.32,2.32 0 0 1 1.91,-2.16a4.89,4.89 0 0 1 1.23,-0.12l39.63,0l0,0.13l-0.02,0.05z" class="cls-1"/>
  <path id="svg_36" d="m335.13,126.16q-18.65,0 -37.29,0a3.07,3.07 0 0 1 -2,-0.63a2.91,2.91 0 0 1 -0.82,-2.12a2.45,2.45 0 0 1 2.34,-1.89a14.32,14.32 0 0 1 2.1,0q36.18,0 72.35,-0.07a6.67,6.67 0 0 1 2.4,0.42a2,2 0 0 1 1.43,2.34a2.32,2.32 0 0 1 -2.22,2c-1.24,0.05 -2.48,0 -3.72,0l-34.57,0l0,-0.05z" class="cls-1"/>
  <path id="svg_37" d="m375.33,52.74c1.44,0 2.48,1.13 2.55,3.21a7.14,7.14 0 0 0 2.66,5.24a7.93,7.93 0 0 0 5,2.12a4.13,4.13 0 0 1 2.24,1a1.73,1.73 0 0 1 -0.15,2.86a4.48,4.48 0 0 1 -2.11,0.88a8.36,8.36 0 0 0 -7.18,5.13a9.22,9.22 0 0 0 -0.44,2a11.12,11.12 0 0 1 -0.52,2a2.06,2.06 0 0 1 -2.31,1.48a2.72,2.72 0 0 1 -2.12,-2.17a6.48,6.48 0 0 1 -0.14,-1.23a8.07,8.07 0 0 0 -7.35,-7.16c-0.25,0 -0.5,0 -0.74,0a3,3 0 0 1 -2.49,-2.56a2.67,2.67 0 0 1 2.65,-2.33c2.86,0 4.82,-1.45 6.49,-3.52a8.2,8.2 0 0 0 1.6,-4.48c0.18,-1.67 1.03,-2.44 2.36,-2.47zm-3.18,13c1.26,1 2.27,1.91 3.32,2.72a1.32,1.32 0 0 0 0.7,-0.4c2.31,-2.2 2.31,-2.21 0.08,-4.49a2.3,2.3 0 0 0 -0.44,-0.42a0.77,0.77 0 0 0 -0.56,-0.14c-0.96,0.76 -1.87,1.59 -3.1,2.69l0,0.04z" class="cls-1"/>
  <path id="svg_38" d="m437.15,85.39a2.78,2.78 0 0 1 2.35,-2.64a17.66,17.66 0 0 0 4.43,-1.41a8,8 0 0 0 3.9,-6a15.82,15.82 0 0 1 0.29,-1.58a2.05,2.05 0 0 1 2.17,-1.67a2.34,2.34 0 0 1 2,2.19a7.9,7.9 0 0 0 3.85,6.95a16.79,16.79 0 0 0 4.83,1.65c1.18,0.31 1.94,0.93 1.94,2a2,2 0 0 1 -1.7,2.11c-0.4,0.08 -0.81,0.18 -1.22,0.22a8.35,8.35 0 0 0 -5.53,3a7.71,7.71 0 0 0 -2.15,5.13a2.79,2.79 0 0 1 -2,2.63c-1,0.11 -1.94,-0.82 -2.31,-2.19a19.82,19.82 0 0 0 -1.27,-4.23a8.14,8.14 0 0 0 -6.59,-4.26a3.61,3.61 0 0 1 -1.65,-0.43a8.25,8.25 0 0 1 -1.34,-1.47zm9.9,-0.45a5.59,5.59 0 0 0 0.54,0.83c0.53,0.57 1.12,1.08 1.64,1.65a1.09,1.09 0 0 0 1.87,0c0.5,-0.54 1,-1.09 1.52,-1.6a1,1 0 0 0 0,-1.7l-1.62,-1.69a1,1 0 0 0 -1.68,0c-0.53,0.57 -1.13,1.07 -1.67,1.63a6.56,6.56 0 0 0 -0.6,0.88z" class="cls-1"/>
  <path id="svg_39" d="m405.78,126.2c-7.18,0 -14.36,0 -21.54,0a2.83,2.83 0 0 1 -2.39,-1a1.87,1.87 0 0 1 0.31,-3a5,5 0 0 1 2.52,-0.8q20.93,0 41.85,0.08a6.78,6.78 0 0 1 1.94,0.24a2.28,2.28 0 0 1 1.73,2.4a2.42,2.42 0 0 1 -2.37,2c-1.73,0 -3.47,0 -5.2,0l-16.85,0l0,0.08z" class="cls-1"/>
  <path id="svg_40" d="m423.34,63.45l21.81,0a2.62,2.62 0 0 1 2.72,2.17a2.51,2.51 0 0 1 -2.73,2.28l-41.63,0.07c-0.78,0 -1.57,0.06 -2.35,0a2.42,2.42 0 0 1 -2.45,-2.42a2.51,2.51 0 0 1 2.59,-2.3l22.05,0l0,0.14l-0.01,0.06z" class="cls-1"/>
  <path id="svg_41" d="m412,42.75c4.95,0 9.9,0 14.85,0c1.66,0 2.81,0.87 2.84,2.25a2.54,2.54 0 0 1 -2.79,2.34l-20.41,0c-3.13,0 -6.27,0 -9.4,0.06a2.65,2.65 0 0 1 -2.92,-2.51c0.07,-1.38 1.33,-2.23 3,-2.22c4.95,0 9.9,0 14.84,0l0,0l-0.01,0.08z" class="cls-1"/>
  <path id="svg_42" d="m414.32,82.88l15.11,0a2.29,2.29 0 0 1 2.29,1.74a2,2 0 0 1 -1.3,2.49a4.85,4.85 0 0 1 -1.9,0.39q-14.49,0.07 -29,0.08c-1.88,0 -3.26,-1.08 -3.23,-2.52s1.31,-2.27 3.15,-2.27l14.86,0l0,0.08l0.02,0.01z" class="cls-1"/>
  <path id="svg_43" d="m348.94,103.48c-0.37,4 -3,6.65 -6.81,6.9c-3.67,0.24 -7,-3.24 -7,-6.94a7.05,7.05 0 0 1 6.83,-6.81a7.14,7.14 0 0 1 6.98,6.85zm-4.75,0a2.46,2.46 0 0 0 -2.13,-2.19a2.57,2.57 0 0 0 -2.19,2.16a2.63,2.63 0 0 0 2.1,2.13a2.45,2.45 0 0 0 2.22,-2.07l0,-0.03z" class="cls-1"/>
  <path id="svg_44" d="m317.55,101.09c2.81,0 5.62,0 8.42,0a3.83,3.83 0 0 1 2,0.33a3.37,3.37 0 0 1 1.5,2a3,3 0 0 1 -1.36,2a3.92,3.92 0 0 1 -2.13,0.44q-8.61,0 -17.22,0a2.93,2.93 0 0 1 -1.77,-0.37a3.9,3.9 0 0 1 -1.3,-2a1.86,1.86 0 0 1 1.45,-2a6.46,6.46 0 0 1 1.83,-0.24c2.85,0 5.7,0 8.55,0l0,0l0.03,-0.16z" class="cls-1"/>
  <path id="svg_45" d="m243.06,126.21l-42.13,0a2.47,2.47 0 0 1 -2.55,-2.32a2.62,2.62 0 0 1 2.65,-2.42c2.31,0 4.63,0 6.94,0l74.47,0.05c0.95,0 1.9,-0.06 2.85,0a2.6,2.6 0 0 1 2.52,2.4a2.57,2.57 0 0 1 -2.63,2.26l-42.12,0s0,0.02 0,0.03z" class="cls-1"/>
  <path id="svg_46" d="m238.68,86.1q-19.7,0 -39.4,0a3.37,3.37 0 0 1 -2.07,-0.56a2.84,2.84 0 0 1 -1,-2a2.54,2.54 0 0 1 2.29,-2.13a15,15 0 0 1 2.22,0q38.66,0 77.31,0a4.76,4.76 0 0 1 1.8,0.31a2.22,2.22 0 0 1 1.54,2.42a2.93,2.93 0 0 1 -2.54,2c-1.86,0 -3.72,0 -5.57,0l-34.58,0l0,0.06l0,-0.1z" class="cls-1"/>
  <path id="svg_47" d="m184,67.65l-39.68,0c-1.81,0 -3.08,-0.88 -3.13,-2.15s1.25,-2.31 3.1,-2.32q20,-0.07 40,-0.12q19.51,0 39,0a6,6 0 0 1 1.7,0.22a2.11,2.11 0 0 1 1.71,2.27a2.32,2.32 0 0 1 -1.91,2.16a4.89,4.89 0 0 1 -1.23,0.12l-39.56,0l0,-0.13l0,-0.05z" class="cls-1"/>
  <path id="svg_48" d="m247,42.72q18.65,0 37.29,0a3.07,3.07 0 0 1 2,0.63a2.91,2.91 0 0 1 0.82,2.12a2.45,2.45 0 0 1 -2.34,1.89a14.32,14.32 0 0 1 -2.1,0q-36.18,0 -72.35,0.07a6.67,6.67 0 0 1 -2.4,-0.42a2,2 0 0 1 -1.43,-2.34a2.32,2.32 0 0 1 2.22,-2c1.24,-0.05 2.48,0 3.72,0l34.57,0l0,0.05z" class="cls-1"/>
  <path id="svg_49" d="m206.84,116.13c-1.44,0 -2.48,-1.13 -2.55,-3.21a7.14,7.14 0 0 0 -2.66,-5.24a7.93,7.93 0 0 0 -5,-2.12a4.13,4.13 0 0 1 -2.24,-1a1.73,1.73 0 0 1 0.15,-2.86a4.48,4.48 0 0 1 2.11,-0.88a8.36,8.36 0 0 0 7.18,-5.13a9.22,9.22 0 0 0 0.44,-2a11.12,11.12 0 0 1 0.52,-2a2.06,2.06 0 0 1 2.31,-1.48a2.72,2.72 0 0 1 2.12,2.17a6.48,6.48 0 0 1 0.14,1.23a8.07,8.07 0 0 0 7.35,7.16c0.25,0 0.5,0 0.74,0a3,3 0 0 1 2.49,2.56a2.67,2.67 0 0 1 -2.65,2.33c-2.86,0 -4.82,1.45 -6.49,3.52a8.2,8.2 0 0 0 -1.6,4.48c-0.2,1.67 -0.99,2.45 -2.36,2.47zm3.18,-13c-1.26,-1 -2.27,-1.91 -3.32,-2.72a1.32,1.32 0 0 0 -0.7,0.4c-2.31,2.2 -2.31,2.21 -0.08,4.49a2.3,2.3 0 0 0 0.44,0.42a0.77,0.77 0 0 0 0.56,0.14c0.95,-0.76 1.87,-1.59 3.08,-2.69l0.02,-0.04z" class="cls-1"/>
  <path id="svg_50" d="m145,83.49a2.78,2.78 0 0 1 -2.35,2.64a17.66,17.66 0 0 0 -4.43,1.41a8,8 0 0 0 -3.9,6a15.82,15.82 0 0 1 -0.29,1.58a2.05,2.05 0 0 1 -2.17,1.67a2.34,2.34 0 0 1 -2,-2.19a7.9,7.9 0 0 0 -3.85,-6.95a16.79,16.79 0 0 0 -4.83,-1.65c-1.18,-0.31 -1.94,-0.93 -1.94,-2a2,2 0 0 1 1.7,-2.11c0.4,-0.08 0.81,-0.18 1.22,-0.22a8.35,8.35 0 0 0 5.53,-3a7.71,7.71 0 0 0 2.15,-5.13a2.79,2.79 0 0 1 2,-2.63c1,-0.11 1.94,0.82 2.31,2.19a19.82,19.82 0 0 0 1.27,4.23a8.14,8.14 0 0 0 6.59,4.26a3.61,3.61 0 0 1 1.65,0.43a8.25,8.25 0 0 1 1.34,1.47zm-9.9,0.45a5.59,5.59 0 0 0 -0.54,-0.83c-0.53,-0.57 -1.12,-1.08 -1.64,-1.65a1.09,1.09 0 0 0 -1.87,0c-0.5,0.54 -1,1.09 -1.52,1.6a1,1 0 0 0 0,1.7l1.65,1.64a1,1 0 0 0 1.68,0c0.53,-0.57 1.13,-1.07 1.67,-1.63a6.56,6.56 0 0 0 0.58,-0.84l-0.01,0.01z" class="cls-1"/>
  <path id="svg_51" d="m176.39,42.68c7.18,0 14.36,0 21.54,0a2.83,2.83 0 0 1 2.39,1a1.87,1.87 0 0 1 -0.31,3a5,5 0 0 1 -2.52,0.8q-20.93,0 -41.85,-0.08a6.78,6.78 0 0 1 -1.94,-0.24a2.28,2.28 0 0 1 -1.73,-2.4a2.42,2.42 0 0 1 2.37,-2c1.73,0 3.47,0 5.2,0l16.84,0l0,-0.08l0.01,0z" class="cls-1"/>
  <path id="svg_52" d="m158.82,105.42l-21.82,0a2.62,2.62 0 0 1 -2.72,-2.17a2.51,2.51 0 0 1 2.72,-2.25l41.63,-0.07c0.78,0 1.57,-0.06 2.35,0a2.42,2.42 0 0 1 2.45,2.42a2.51,2.51 0 0 1 -2.59,2.3l-22.02,0l0,-0.14l0,-0.09z" class="cls-1"/>
  <path id="svg_53" d="m249.65,105.58l-17.2,0a2.4,2.4 0 1 1 0,-4.74l34.4,0a2.62,2.62 0 0 1 2.85,2.35a2.69,2.69 0 0 1 -2.7,2.37l-17.35,0l0,0l0,0.02z" class="cls-1"/>
  <path id="svg_54" d="m170.17,126.12c-4.95,0 -9.9,0 -14.85,0c-1.66,0 -2.81,-0.87 -2.84,-2.25a2.54,2.54 0 0 1 2.79,-2.34l20.41,0c3.13,0 6.27,0 9.4,-0.06a2.65,2.65 0 0 1 2.92,2.53c-0.07,1.38 -1.33,2.23 -3,2.22c-4.95,0 -9.9,0 -14.84,0l0,0l0.01,-0.1z" class="cls-1"/>
  <path id="svg_55" d="m167.85,86l-15.11,0a2.29,2.29 0 0 1 -2.29,-1.74a2,2 0 0 1 1.3,-2.49a4.85,4.85 0 0 1 1.9,-0.39q14.49,-0.07 29,-0.08c1.88,0 3.26,1.08 3.23,2.52s-1.31,2.27 -3.15,2.27l-14.88,0l0,-0.09z" class="cls-1"/>
  <path id="svg_56" d="m233.22,65.39c0.37,-4 3,-6.65 6.81,-6.9c3.67,-0.24 7,3.24 7,6.94a7.05,7.05 0 0 1 -6.83,6.81a7.14,7.14 0 0 1 -6.98,-6.85zm4.75,0a2.46,2.46 0 0 0 2.13,2.19a2.57,2.57 0 0 0 2.19,-2.16a2.63,2.63 0 0 0 -2.1,-2.13a2.45,2.45 0 0 0 -2.19,2.08l-0.03,0.02z" class="cls-1"/>
  <path id="svg_57" d="m264.61,67.78c-2.81,0 -5.62,0 -8.42,0a3.83,3.83 0 0 1 -2,-0.33a3.37,3.37 0 0 1 -1.5,-2a3,3 0 0 1 1.36,-2a3.92,3.92 0 0 1 2.13,-0.44q8.61,0 17.22,0a2.93,2.93 0 0 1 1.77,0.37a3.9,3.9 0 0 1 1.3,2a1.86,1.86 0 0 1 -1.45,2a6.46,6.46 0 0 1 -1.83,0.24c-2.85,0 -5.7,0 -8.55,0l0,0l-0.03,0.16z" class="cls-1"/>
  <path id="svg_58" d="m412.46,71.31a0.87,0.87 0 0 1 -0.21,0.1a2.84,2.84 0 0 1 -0.47,0.11l-0.15,0.15a7.59,7.59 0 0 1 -0.44,2.12l0,0.1l0,0a5.39,5.39 0 0 0 0.09,4.64a3.34,3.34 0 0 1 0.29,1.84a1.65,1.65 0 0 0 0.12,1a0.89,0.89 0 0 1 0.31,0.48a15.59,15.59 0 0 1 0.37,1.84a10.05,10.05 0 0 0 0.52,2.18a0.86,0.86 0 0 1 0.58,0.39l0.52,0.83a0.88,0.88 0 0 1 0,0.89a0.85,0.85 0 0 1 -0.21,0.21c0.34,1.4 0.53,1.84 1.82,1.69a0.88,0.88 0 0 1 0.51,0.1a10.93,10.93 0 0 1 4.34,4.67a7.11,7.11 0 0 0 3.68,3.68l0.1,0.06c1.87,1.22 2.59,3.06 3.29,4.84l0.26,0.65a0.87,0.87 0 0 1 0.06,0.35a14.41,14.41 0 0 0 0.72,5.31a4.15,4.15 0 0 0 0.76,1.63a6.9,6.9 0 0 0 1.4,-1a3.77,3.77 0 0 1 3.65,-0.51a9.46,9.46 0 0 1 0.9,0.31a2.14,2.14 0 0 0 1.78,0.22a0.88,0.88 0 0 1 0.67,0a4.34,4.34 0 0 1 2.87,2.75a0.88,0.88 0 0 1 -0.16,0.83a0.3,0.3 0 0 0 0,0.45a0.88,0.88 0 0 1 0,0.87l-1.25,2.47a0.87,0.87 0 0 1 -0.42,0.4a0.79,0.79 0 0 0 -0.08,0.5a2.16,2.16 0 0 1 -0.51,1.79a3,3 0 0 0 -0.3,1a6.12,6.12 0 0 1 -0.28,1a2.92,2.92 0 0 1 -1.14,2.52a0.86,0.86 0 0 1 -0.28,0.14l0,0.14l-0.08,0.27a2,2 0 0 1 -0.83,1.79a1.12,1.12 0 0 0 -0.1,1.82c0.4,0.5 0.75,1 1.11,1.53a12.27,12.27 0 0 0 2.57,3a0.88,0.88 0 0 1 0.33,0.52a2,2 0 0 1 0.5,0.27a0.88,0.88 0 0 1 0.27,0.35a2.41,2.41 0 0 0 0.3,0.3a0.87,0.87 0 0 1 0.36,0.31a0.92,0.92 0 0 1 0.15,0.4a1.78,1.78 0 0 0 0.78,1.2a0.86,0.86 0 0 1 0.51,-0.27a2.05,2.05 0 0 1 2.37,1.23a0.88,0.88 0 0 1 -0.08,0.83a0.86,0.86 0 0 1 -0.21,0.19l0.06,0.06a7.34,7.34 0 0 0 1.36,0.42a5.64,5.64 0 0 1 2.68,1.19l0.11,0.11l0.08,0.11c0.24,0.37 0.45,0.76 0.66,1.14a4.88,4.88 0 0 0 2,2.35c1.79,0.9 1.75,2.53 1.71,3.73a3.13,3.13 0 0 0 0.24,1.74a2.5,2.5 0 0 1 0.47,1.22a1.83,1.83 0 0 0 0.11,0.44a0.87,0.87 0 0 1 0.27,0.29l0,0.09a4.5,4.5 0 0 1 -0.06,4a0.86,0.86 0 0 1 -0.12,0.17l-0.58,0.66c-0.48,0.62 -0.4,0.74 0.41,1.46a3.58,3.58 0 0 1 1.18,1.55a0.82,0.82 0 0 1 0,0.19a3.77,3.77 0 0 0 1.62,2.46a4.13,4.13 0 0 0 2.22,0.2a0.85,0.85 0 0 1 0.5,-0.33l0,0s0,0 0,-0.12a0.87,0.87 0 0 1 0.7,-0.66a1.61,1.61 0 0 1 0.26,-0.26c1.5,-2.88 4.17,-3 6.32,-2.77a0.87,0.87 0 0 1 0.55,0.28a4.72,4.72 0 0 0 0.68,0.59a40.74,40.74 0 0 1 4.14,2.12c1.13,0.64 1.67,0.68 2.23,0.18s0.7,-1.2 0.4,-2.35a8.23,8.23 0 0 0 -0.3,-0.88a6.13,6.13 0 0 1 -0.49,-2a12.11,12.11 0 0 1 -0.34,-1.58a0.88,0.88 0 0 1 0.78,-1l0.43,0a5.14,5.14 0 0 0 0.59,-0.07a6.41,6.41 0 0 1 0.56,-0.35l0,0a0.88,0.88 0 0 1 0.67,-0.46a0.93,0.93 0 0 1 0.74,-0.72s0,0 0.06,-0.11a0.88,0.88 0 0 1 0.84,-0.69l2.92,0a2.44,2.44 0 0 0 0.68,-0.29c0.43,-0.36 0.59,-0.78 0,-1.9a4.41,4.41 0 0 1 -0.52,-2.38a6.57,6.57 0 0 1 0.79,-2.66a0.88,0.88 0 0 1 0.57,-0.46a0.32,0.32 0 0 0 0.11,0a0.94,0.94 0 0 1 0.47,-0.65a3.24,3.24 0 0 0 0,-0.49a2.27,2.27 0 0 1 -0.37,-3.07a6.67,6.67 0 0 0 0.54,-2.19a7.09,7.09 0 0 1 1,-3.28l0,0l0,0a0.86,0.86 0 0 1 0.14,-0.15c0.41,-0.36 0.39,-0.75 0.24,-1.68a3.54,3.54 0 0 1 0.32,-2.73a0.88,0.88 0 0 1 0.18,-0.22a0.87,0.87 0 0 1 0.18,-0.13a7.14,7.14 0 0 0 2.72,-2.69a0.89,0.89 0 0 1 0.1,-0.16l0.06,-0.07a16.84,16.84 0 0 0 2.39,-3.83a18.29,18.29 0 0 1 2.73,-4.25a15,15 0 0 0 0.54,-1.84a11.54,11.54 0 0 1 -0.3,-3.61a12.45,12.45 0 0 0 -0.1,-2.56q-0.19,-0.21 -0.4,-0.39a0.87,0.87 0 0 1 -0.28,-0.27a0.9,0.9 0 0 1 -0.13,-0.35a5.25,5.25 0 0 0 -0.41,-1a3.69,3.69 0 0 1 -0.33,-3.38l0,0a4.94,4.94 0 0 0 0.25,-2.1c0,-1.36 0,-3 1.51,-4.22c0.19,-11 0.17,-22.23 0.16,-33.08c0,-8.43 0,-17.14 0.06,-25.71a4.42,4.42 0 0 0 -0.13,-0.83a3.38,3.38 0 0 1 0.35,-2.91a17.6,17.6 0 0 0 -0.51,-2a18.25,18.25 0 0 1 -1.25,-3.86a11.2,11.2 0 0 0 -1.69,-4.8c-2.19,-2.7 -3,-5.69 -2.48,-9.69a10.16,10.16 0 0 0 0,-1.95l0,-0.38l0,-0.19a3.36,3.36 0 0 0 -1.81,-0.14c-0.35,0 -0.69,0.06 -1,0.06c-4.43,0 -8.85,0 -13.28,0l-41.97,0l0.3,0.3l0.12,0.1l0,0l0,0a6.57,6.57 0 0 0 0.61,0.62l0.07,0.06a9.71,9.71 0 0 0 1.33,0.91c0.27,0.16 0.54,0.33 0.8,0.51a0.87,0.87 0 0 1 0.27,0.2l0,0a2.85,2.85 0 0 1 0.6,2.16a1.61,1.61 0 0 0 0.1,0.88l0,0a25.3,25.3 0 0 0 4.25,2.85l0.16,0.09a0.88,0.88 0 0 1 0.32,0.22l0,0a3,3 0 0 1 0.58,2.1a4,4 0 0 0 0,0.6a4.29,4.29 0 0 1 0,2.88a4.89,4.89 0 0 0 0,0.84a3.74,3.74 0 0 1 -0.46,2.35l-0.07,0.11l0,0l0,0l-0.12,0.11a6.47,6.47 0 0 0 -0.62,0.61l-0.05,0.06l-0.08,0.08a8.3,8.3 0 0 0 -0.64,0.63l-0.05,0.07l-0.19,0.22a2,2 0 0 0 -0.25,0.31c-0.57,4.06 -3,6.71 -7.74,8.31l-0.1,0c-0.26,0.1 -0.51,0.23 -0.77,0.35a5.12,5.12 0 0 1 -3.07,0.73c-3,-0.51 -4.65,0.56 -5.54,3.56a0.87,0.87 0 0 1 -0.13,0.37l-0.05,0.07c-0.33,0.44 -0.29,0.6 0.31,1.39c0.16,0.21 0.32,0.42 0.46,0.64c3,3 3.2,4.38 0.91,8.64a0.85,0.85 0 0 1 -0.09,0.17a0.92,0.92 0 0 1 -0.17,0.18a7.44,7.44 0 0 0 -0.56,0.55c-0.13,0.37 -0.24,0.74 -0.36,1.11c-0.82,2.61 -1.75,5.57 -5.51,6.29a3,3 0 0 1 -0.85,0.35a2.22,2.22 0 0 0 -0.34,0.12a2.45,2.45 0 0 0 0.19,1.6c0.4,1.31 0.94,2.99 -1.02,4.3z" class="cls-2"/>
  <path id="svg_59" d="m79.87,111.81l-25,0a11.45,11.45 0 0 1 -11.44,-11.44l0,-25a11.45,11.45 0 0 1 11.44,-11.44l25,0a11.45,11.45 0 0 1 11.44,11.44l0,25a11.45,11.45 0 0 1 -11.44,11.44zm-25.82,-43.35a6.09,6.09 0 0 0 -6.05,6.09l0,26.63a6.09,6.09 0 0 0 6.09,6.09l26.59,0a6.09,6.09 0 0 0 6.09,-6.09l0,-26.63a6.09,6.09 0 0 0 -6.09,-6.09l-26.63,0z" class="cls-1"/>
  <path id="svg_60" d="m533.56,111.81l-25,0a11.45,11.45 0 0 1 -11.44,-11.44l0,-25a11.45,11.45 0 0 1 11.44,-11.44l25,0a11.45,11.45 0 0 1 11.44,11.42l0,25a11.45,11.45 0 0 1 -11.44,11.46zm-25.82,-43.35a6.09,6.09 0 0 0 -6.09,6.09l0,26.63a6.09,6.09 0 0 0 6.09,6.09l26.63,0a6.09,6.09 0 0 0 6.09,-6.09l0,-26.63a6.09,6.09 0 0 0 -6.09,-6.09l-26.64,0l0.01,0z" class="cls-1"/>
 </g>
</svg>