<svg id="Layer_1" data-name="Layer 1" xmlns="http://www.w3.org/2000/svg" viewBox="0 0 656.67 522"><defs><style>.cls-1{font-size:31.08px;}.cls-1,.cls-4,.cls-6{fill:#00aeef;}.cls-1,.cls-4{font-family:DIN Next LT Pro;}.cls-1,.cls-5{letter-spacing:-1px;}.cls-2{letter-spacing:-2px;}.cls-3{fill:#274fa2;opacity:0.1;}.cls-4{font-size:19.26px;}.cls-7{fill:#ed1c24;}.cls-8{fill:#fff;}</style></defs><title>MMCidBOX</title><text class="cls-1" transform="translate(153.83 131.63)">CA</text><text class="cls-1" transform="translate(494.68 434.34)">N<tspan class="cls-2" x="18.74" y="0">V</tspan></text><text class="cls-1" transform="translate(323.6 262.86)">T<tspan x="15.66" y="0">O</tspan></text><path class="cls-3" d="M268.73,376.48a6.21,6.21,0,0,0,1.46-.48,3.11,3.11,0,0,0,.11-0.32,2.76,2.76,0,0,1,.51-1.07,6.5,6.5,0,0,0-.08-4.41,0.92,0.92,0,0,1,0-.2,1.9,1.9,0,0,0-.58-0.08,2.94,2.94,0,0,1-1.47-.37l-0.19,0a3.11,3.11,0,0,1-1.48-1l-0.07-.08a2.69,2.69,0,0,1-.09-3.43,3.8,3.8,0,0,0-.06-3.21l0-.13c-0.43-1-1.28-3.25,1-4.86,0.2-.23.41-0.44,0.63-0.65l0.17-.17,0,0a3,3,0,0,0,.1-0.31,2.56,2.56,0,0,1,.58-1.13l0,0a1.72,1.72,0,0,0,.17-1.27,3.11,3.11,0,0,1,.86-2.83l0.5-.59a7.2,7.2,0,0,1,1.09-1.11,0.41,0.41,0,0,0,.1-0.13,2.12,2.12,0,0,0-.23-0.52l-0.18-.35a3.47,3.47,0,0,1-.54-2,1.48,1.48,0,0,0-.29-1.14,0.9,0.9,0,0,1-.24-0.35,2.27,2.27,0,0,1,.42-2.62,6.69,6.69,0,0,1,.87-0.87,0.9,0.9,0,0,1,.29-0.16,1.82,1.82,0,0,0,.68-1.56,0.91,0.91,0,0,1,.16-0.47,6.38,6.38,0,0,1,1.5-1.42c0.18-.14.36-0.27,0.53-0.42l0.08-.06,0.08-.08,0.47-.46,0.09-.1,0.14-.14c0.21-.21.42-0.42,0.65-0.62a8.15,8.15,0,0,1,.85-0.85,7.11,7.11,0,0,1,.82-0.82c0.2-.24.42-0.46,0.65-0.68l0.15-.15a0.93,0.93,0,0,0,0-1.06l-0.12-.13a1.8,1.8,0,0,0-.32-0.12,2.41,2.41,0,0,1-1.08-.58,8.84,8.84,0,0,1-.76-0.71l-0.15-.15-0.09-.1a4.48,4.48,0,0,0-.5-0.4,0.9,0.9,0,0,1-.28,0,3.18,3.18,0,0,1-1.44-1l0,0a2.87,2.87,0,0,1-.7-2.31,1.64,1.64,0,0,0-.11-0.91,2.49,2.49,0,0,1-.68-1.25,2.74,2.74,0,0,0-.11-0.33l0,0a3,3,0,0,1-.71-2,1.77,1.77,0,0,0-.18-0.83l-0.8-1.14a8.67,8.67,0,0,0-.6-0.74l-0.1-.08c-0.3-.3-0.56-0.55-0.79-0.81a7.25,7.25,0,0,1-.92-1,0.91,0.91,0,0,1-.12-0.21,5,5,0,0,1-.47-3.06,6.54,6.54,0,0,0,0-1.31l0-.61a3.13,3.13,0,0,1-.66-0.1,0.91,0.91,0,0,1-.4-0.23l-12.13-11.79L224,269.82q-29.19-28.35-58.41-56.67-5-4.88-10.12-9.69l-4.58-4.36a2.81,2.81,0,0,1-1.06-3,5.15,5.15,0,0,0,.05-0.6q0-40.1,0-80.2c0-.17,0-0.34,0-0.52a5,5,0,0,1,.11-1.65l-0.06-.09a9.59,9.59,0,0,0-2.32-.08c-0.39,0-.78,0-1.17,0h0l-40.49,0-42,0a8.54,8.54,0,0,0-1,0,11.1,11.1,0,0,1-2.32-.06c0,0.15,0,.29,0,0.44a5.36,5.36,0,0,1-.25,2.26c-0.63,1.53-.17,2.58.7,4.3,1.93,3.82,3.79,8.33,1.42,13.4-0.72,1.55-.74,3.34-0.53,5.74l0,0.18c0.29,3.34.66,7.49-2.2,10.49-3.19,3.35-4.54,5.86-2.56,9.51a2.2,2.2,0,0,1,.16,1.31,2.84,2.84,0,0,0,0,.3,0.91,0.91,0,0,0,.55.85c3.64,2.33,6.17,5.7,8.66,9.24,3,4.21,4,8.21,3.09,12.21-0.69,3.15-.84,5.75.68,8.16a10.63,10.63,0,0,1,1.12,2.86c0.07,0.25.14,0.49,0.21,0.73a3.44,3.44,0,0,1-.46,3.54,1.65,1.65,0,0,0-.56,1.12,2.45,2.45,0,0,0,1.33,1.29,16.33,16.33,0,0,1,5.77,6.05,10.38,10.38,0,0,0,2.32,2.84,33.74,33.74,0,0,1,6.3,7.38l0.58,0.82c2.18,3.11,2.3,3.63.48,6.69h0c2.25,0,3.82,1.4,5.23,2.65a9,9,0,0,0,3.15,2.11,19.9,19.9,0,0,0,.63-4.4l0-.62c0.17-2.33,1.88-2.81,3.15-3a4,4,0,0,1,3.72,1.76,15.43,15.43,0,0,1,5.07.31,20.51,20.51,0,0,0,3.13.38,8.84,8.84,0,0,1,6.7.37,0.92,0.92,0,0,1,.8,1.51,1.09,1.09,0,0,1-.89.35H118a4,4,0,0,1-1.68-.46,1.74,1.74,0,0,0-1.27-.27,16.17,16.17,0,0,1-6.21.17c-2.47-.26-4.81-0.5-7,0.72-1.15.93-1.36,1.51-.43,3.18,0.4,0.73.86,1.43,1.34,2.17,1.3,2,2.65,4.07,2.88,6.74a2.08,2.08,0,0,0,1,1l0.35,0.24a2.18,2.18,0,0,1,1.19,1.54,1.88,1.88,0,0,1-.71,1.52,2.14,2.14,0,0,1-1.59.66,2.48,2.48,0,0,1-1.72-1,21.69,21.69,0,0,0-1.7-1.66c-1.94-1.77-4.15-3.78-3.67-7.47a0.72,0.72,0,0,0-.7-0.14,0.81,0.81,0,0,0-.31.09,1.67,1.67,0,0,0,.09.46,5.32,5.32,0,0,1-.4,3.72A2.23,2.23,0,0,0,98,240a5.52,5.52,0,0,1,1.48,6.1c-0.49,1.38-.2,2.37,1.08,3.79,0.68,0.75,1.35,1.52,2,2.29l1.43,1.64c1.38,1.56,2,2,3.26,1.18a2.42,2.42,0,0,1,2.41-.06,6.92,6.92,0,0,1,3.62,5.63,6.59,6.59,0,0,1-2.29,6c-0.76.58-.8,0.66-0.77,1s0.08,0.93.12,1.4c0.27,3.49.5,6.5,4,8.16a4.38,4.38,0,0,1,2.08,2.13,26.61,26.61,0,0,0,2.77,4.36,27.55,27.55,0,0,1,3.09,4.95c0.14,0.32.28,0.67,0.42,1,0.82,2.06,1.45,3.33,3.3,3.6a2.34,2.34,0,0,1,1.46,1.22c1.38,2.1,2.83,4.08,5.25,5.17a2.8,2.8,0,0,1,1.37,4.19,7.07,7.07,0,0,0-.78,1.78,10.59,10.59,0,0,0,2.16.88c1.77,0.62,3.06,1.27,3.57,2.45s0,2.64-.56,4c-0.49,1.1-.64,1.5-0.29,2.16,1.3,2.54,1,5.27.6,7.6,0,0.17-.07.34-0.12,0.52a2.67,2.67,0,0,0-.13.81,17.13,17.13,0,0,1,1.55,1.06c1.63,1.21,3,2.24,4.85,1.7,3-.89,5.45.11,7.45,0.91a10.53,10.53,0,0,0,6.48.63l0.36-.09a2.71,2.71,0,0,1,2.73.34,12.76,12.76,0,0,0,2.44,1.57c2,1.11,4.33,2.36,4.77,5.58,0.06,0.42.66,0.71,1.45,1l1,0.41a14.34,14.34,0,0,1,2.45,1.15c1.57,1,2.61,1.35,4.33.7,3.52-1.33,5.34-.27,6.26.84l0.39,0.47c1.31,1.56,2.94,3.5,2.39,6.3a1.71,1.71,0,0,0,0,1.06,1.73,1.73,0,0,0,.94-0.21,5.87,5.87,0,0,1,2.27-.49,6.55,6.55,0,0,1,4.45,2.12,45.56,45.56,0,0,0,6.08,5c4.76,3.12,7.93,7.67,10,14.35,0.12,0.4.27,0.81,0.41,1.22,0.71,2,1.51,4.23.27,6.72a0.55,0.55,0,0,0-.08.46,1.72,1.72,0,0,0,1,.79,4.57,4.57,0,0,0,.48.18,2.4,2.4,0,0,1,2,2.8,1.55,1.55,0,0,0,.21,1.24,2.15,2.15,0,0,0,1.72.17,42.54,42.54,0,0,1,5.29-.55c0.92-.06,1.85-0.11,2.77-0.21L265,377.26a10.65,10.65,0,0,1,2.25-.3A9.41,9.41,0,0,1,268.73,376.48Z"/><text class="cls-4" transform="translate(149.77 227.01)"><tspan class="cls-5">V</tspan><tspan class="cls-5" x="10.8" y="0">O</tspan><tspan x="21.71" y="0">TE</tspan></text><path class="cls-6" d="M214.4,242.87H128c0-.73-0.11-1.43-0.11-2.13,0-12.64,0-25.29,0-37.93,0-1.89.3-2.63,2.48-2.59,9.1,0.17,18.2.14,27.3,0.12,7.24,0,14.47-.19,21.71-0.2,7.85,0,15.7.09,23.55,0.12,3,0,6.07.09,9.09-.11,1.77-.11,2.42.46,2.41,2.17,0,4.57,0,9.14,0,13.7q0,12.21,0,24.43C214.4,241.22,214.4,242,214.4,242.87Zm-72.95-35.22v24.62h59.3V207.64h-59.3Z"/><path class="cls-6" d="M139.57,186.67h63c-0.1-1.74-1-2.19-2.47-2.16-4,.08-7.93,0-11.84,0a1.55,1.55,0,0,1-.09-0.36c1-5.78,1-5.78,6.75-5.78,4.11,0,8.21,0,12.31,0a3,3,0,0,1,2.12,1,146.56,146.56,0,0,1,8,12.52c0.86,1.61.37,4,.5,6.08H124.57c-0.4-3.13-.35-5.84,1.74-8.48a93.7,93.7,0,0,0,6.07-9.53,2.91,2.91,0,0,1,2.84-1.63c6.95,0.09,13.89,0,21.15,0-0.42,1.9-.71,3.64-1.25,5.3a2.16,2.16,0,0,1-1.69.81c-3.77.07-7.55,0.1-11.32,0C140.58,184.47,139.75,185,139.57,186.67Z"/><path class="cls-7" d="M186.13,184.46H156.89l9.34-39.19,27.37,6.51c0.07,3.28-.26,3.64-3.26,3.64H177.82c-4.31,0-6.93,2.22-7,5.86s2.59,6,7.06,6c3.24,0,6.49,0,9.73,0a18.43,18.43,0,0,1,2.45.39Z"/><path class="cls-6" d="M223.54,165.79l-10.23-22.51L246,128.39a16.56,16.56,0,0,1,.18,1.66c0,7.94,0,15.87,0,23.81,0,1,0,1.86-1.21,2.39-6.94,3.08-13.84,6.25-20.75,9.38A4.19,4.19,0,0,1,223.54,165.79Z"/><path class="cls-6" d="M196.08,150.51l-11.44-2.79c2.44-2.25,4.85-3.29,8-2.5,5.5,1.39,11.05,2.61,16.57,4a2.09,2.09,0,0,1,1.28.93c2.34,5,4.61,10.08,6.94,15.21-5.4,3.65-10.69,7.23-17.61,4.84a8.31,8.31,0,0,1-3.32-1.68c-2.55-2.69-5.89-2.77-9.14-3s-6.75,0-10.13-.06c-2.8,0-4.35-1.46-4.39-4s1.52-4.2,4.38-4.21c5.23,0,10.46,0,15.7,0,1.19,0,1.81-.27,2-1.56C195.15,154,195.64,152.37,196.08,150.51Z"/><path class="cls-6" d="M221.4,164.62l-2.24,1-8.37-18.42,2.17-1.08Z"/><path class="cls-6" d="M508.45,400.47q-23.2,0-46.4,0a2.89,2.89,0,0,1-2.54-1.24q-6-7.95-11.94-15.87c-1.93-2.57-3.9-5.11-5.8-7.7a3.06,3.06,0,0,1-.55-1.68c0-6.35,0-12.71-.07-19.06a2.19,2.19,0,0,1,1.09-2q7-4.45,13.94-8.88c0.74-.47,1.45-1,2.2-1.46,1.41-.86,2.18-0.67,3.2.73,0.65,0.9.47,1.81-.79,2.7-1.81,1.28-3.71,2.44-5.57,3.64-2.44,1.57-4.88,3.15-7.35,4.7a1,1,0,0,0-.28,1.76c4.89,6.66,9.74,13.35,14.67,20a2.89,2.89,0,0,0,2,1.08c11.06,0.05,22.13,0,33.19,0,17.8,0,35.6-.06,53.4.06a5.11,5.11,0,0,0,4.73-2.41c4.5-6.28,9.1-12.49,13.67-18.72a1,1,0,0,0-.39-1.75c-4.39-2.57-8.76-5.18-13.13-7.78-0.26-.16-0.51-0.34-0.76-0.52-1.42-1-1.81-1.9-1.25-2.78,0.94-1.49,2-1.72,3.6-.76s3.07,1.88,4.61,2.8c3.77,2.27,7.5,4.59,11.33,6.76a4.34,4.34,0,0,1,2.54,4.39c-0.16,5.55,0,11.1-.1,16.65a5.1,5.1,0,0,1-.78,2.79c-2.95,4.05-6,8-9.05,12-2.77,3.66-5.57,7.3-8.28,11a3.57,3.57,0,0,1-3.29,1.55C539,400.45,523.72,400.47,508.45,400.47Zm-0.14-3.69h0q22,0,44,0a3.14,3.14,0,0,0,2.81-1.4c1.53-2.1,3.1-4.18,4.66-6.26,3.68-4.89,7.38-9.77,11-14.69a3.88,3.88,0,0,0,.7-2.1c0.06-2.52,0-5.05-.05-7.58,0-.92.05-1.84,0-2.75a1,1,0,0,0-.43-0.71,1,1,0,0,0-.68.26,2.72,2.72,0,0,0-.52.61c-2.42,3.35-4.83,6.7-7.26,10-1.94,2.66-3.91,5.3-5.87,7.94a2.59,2.59,0,0,1-2.23,1.17q-6.32-.07-12.63-0.08-39.57,0-79.14.05a3.5,3.5,0,0,1-3.06-1.63c-4.28-5.88-8.54-11.77-12.84-17.63a4.35,4.35,0,0,0-1.24-.81,5.08,5.08,0,0,0-.37,1.32c0,3.06.13,6.12,0.06,9.18a4.54,4.54,0,0,0,1,3.07c1.45,1.88,2.87,3.78,4.3,5.68q5.7,7.57,11.38,15.14a2.56,2.56,0,0,0,2.21,1.18Q486.2,396.77,508.31,396.78Z"/><path class="cls-6" d="M508.32,371.31c-5.4-.49-10.81-0.82-16.18-1.52a81.23,81.23,0,0,1-11.55-2.3c-4.18-1.17-8.29-2.69-11.73-5.51-2.19-1.79-4-3.88-4.15-6.92a2.64,2.64,0,0,1,2-2.64,2,2,0,0,1,2.3,1.69c0.58,3.34,3.07,4.88,5.69,6.27a51.12,51.12,0,0,0,14.26,4.52,103.28,103.28,0,0,0,23.5,1.61c6.66-.24,13.34-0.65,19.77-2.64,3.11-1,6.25-1.91,9.24-3.17a17,17,0,0,0,4.56-3.15,6.48,6.48,0,0,0,1.58-2.86c0.45-1.44,1.4-2.49,2.47-2.27a2.72,2.72,0,0,1,2,3.26c-0.64,3.74-3.21,6-6.22,7.79a46.38,46.38,0,0,1-14.28,5.21,87.15,87.15,0,0,1-17.73,2.13c-1.82,0-3.63.21-5.45,0.33Z"/><path class="cls-6" d="M465.76,294.94q0-21.14,0-42.27a2.48,2.48,0,0,1,2.33-2.56,2.63,2.63,0,0,1,2.43,2.66c0,2.32,0,4.64,0,7q0,37.36-.05,74.73c0,1,.06,1.91,0,2.86a2.61,2.61,0,0,1-2.41,2.53,2.58,2.58,0,0,1-2.27-2.64q0-21.14,0-42.27h0Z"/><path class="cls-6" d="M506,290.54q0-19.77,0-39.53a3.38,3.38,0,0,1,.57-2.07,2.85,2.85,0,0,1,2.05-1,2.54,2.54,0,0,1,2.14,2.3,15.07,15.07,0,0,1,0,2.23q0,38.79,0,77.58a4.78,4.78,0,0,1-.31,1.81,2.22,2.22,0,0,1-2.43,1.55,2.94,2.94,0,0,1-2-2.55c0-1.86,0-3.73,0-5.59q0-17.34,0-34.68H506Z"/><path class="cls-6" d="M524.52,235.63q0-19.88,0-39.77c0-1.81.88-3.09,2.16-3.14S529,194,529,195.84q0.07,20.07.12,40.14,0,19.57,0,39.15a6.07,6.07,0,0,1-.22,1.71,2.12,2.12,0,0,1-2.28,1.72,2.33,2.33,0,0,1-2.17-1.92,4.91,4.91,0,0,1-.12-1.23q0-19.89,0-39.77h0.14Z"/><path class="cls-6" d="M549.54,298.93q0,18.71,0,37.42a3.08,3.08,0,0,1-.63,2,2.92,2.92,0,0,1-2.13.82,2.46,2.46,0,0,1-1.9-2.35,14.36,14.36,0,0,1,0-2.11q0-36.3-.07-72.6a6.69,6.69,0,0,1,.42-2.41,2.05,2.05,0,0,1,2.35-1.44,2.32,2.32,0,0,1,2,2.23c0.05,1.24,0,2.49,0,3.73q0,17.34,0,34.69h0Z"/><path class="cls-6" d="M475.88,258.59c0-1.44,1.13-2.49,3.22-2.56a7.17,7.17,0,0,0,5.26-2.66,8,8,0,0,0,2.13-5,4.14,4.14,0,0,1,1-2.25,1.73,1.73,0,0,1,2.87.15,4.5,4.5,0,0,1,.89,2.12,8.38,8.38,0,0,0,5.15,7.2,9.25,9.25,0,0,0,2,.44,11.16,11.16,0,0,1,2,.52,2.07,2.07,0,0,1,1.48,2.31,2.73,2.73,0,0,1-2.18,2.13,6.51,6.51,0,0,1-1.23.14,8.1,8.1,0,0,0-7.19,7.38c0,0.25,0,.5,0,0.74a3,3,0,0,1-2.57,2.5,2.68,2.68,0,0,1-2.33-2.65c0-2.87-1.45-4.84-3.53-6.51a8.23,8.23,0,0,0-4.49-1.6C476.68,260.77,475.9,260,475.88,258.59Zm13,3.19c1.05-1.26,1.92-2.28,2.73-3.33a1.32,1.32,0,0,0-.4-0.7c-2.21-2.32-2.21-2.32-4.5-.08a2.31,2.31,0,0,0-.42.44,0.77,0.77,0,0,0-.14.56C486.94,259.63,487.78,260.55,488.88,261.78Z"/><path class="cls-6" d="M508.63,196.56A2.79,2.79,0,0,1,506,194.2a17.72,17.72,0,0,0-1.41-4.45,8,8,0,0,0-6-3.91,15.87,15.87,0,0,1-1.58-.29,2.06,2.06,0,0,1-1.67-2.17,2.35,2.35,0,0,1,2.2-2,7.93,7.93,0,0,0,7-3.87,16.85,16.85,0,0,0,1.66-4.84c0.31-1.18.94-1.94,2.05-1.94a2,2,0,0,1,2.12,1.7c0.08,0.41.18,0.81,0.23,1.22a8.38,8.38,0,0,0,3,5.55,7.73,7.73,0,0,0,5.15,2.16,2.8,2.8,0,0,1,2.64,2c0.11,1-.82,2-2.2,2.32a19.89,19.89,0,0,0-4.25,1.27,8.17,8.17,0,0,0-4.28,6.61,3.62,3.62,0,0,1-.43,1.66A8.28,8.28,0,0,1,508.63,196.56Zm-0.45-9.94a5.61,5.61,0,0,0,.83-0.54c0.57-.53,1.08-1.13,1.66-1.65a1.1,1.1,0,0,0,0-1.88c-0.54-.5-1.09-1-1.61-1.53a1,1,0,0,0-1.71,0l-1.65,1.65a1,1,0,0,0,0,1.69c0.57,0.53,1.08,1.13,1.64,1.68A6.58,6.58,0,0,0,508.18,186.62Z"/><path class="cls-6" d="M549.58,228c0,7.21,0,14.41,0,21.62a2.84,2.84,0,0,1-1,2.4,1.88,1.88,0,0,1-3-.31,5.05,5.05,0,0,1-.8-2.53q0-21,.08-42a6.8,6.8,0,0,1,.24-2,2.29,2.29,0,0,1,2.4-1.74,2.43,2.43,0,0,1,2,2.38c0,1.74,0,3.48,0,5.22q0,8.45,0,16.9h0.08Z"/><path class="cls-6" d="M486.62,210.41q0-10.94,0-21.88a2.63,2.63,0,0,1,2.18-2.73,2.51,2.51,0,0,1,2.29,2.74q0,20.89.07,41.77c0,0.79.06,1.57,0,2.36a2.43,2.43,0,0,1-2.43,2.46,2.52,2.52,0,0,1-2.31-2.6q0-11.06,0-22.13h0.14Z"/><path class="cls-6" d="M486.46,301.55q0-8.63,0-17.26a2.41,2.41,0,1,1,4.75,0q0,17.26,0,34.52a2.63,2.63,0,0,1-2.35,2.86,2.7,2.7,0,0,1-2.37-2.71q0-8.69,0-17.38h0Z"/><path class="cls-6" d="M465.85,221.8c0-5,0-9.93,0-14.9,0-1.66.88-2.82,2.26-2.85a2.55,2.55,0,0,1,2.35,2.8q0,10.24,0,20.48c0,3.14,0,6.29.06,9.43a2.66,2.66,0,0,1-2.51,2.93c-1.38-.07-2.24-1.34-2.22-3,0-5,0-9.93,0-14.9h0Z"/><path class="cls-6" d="M506.11,219.47q0-7.21,0-14.41c0-.25,0-0.5,0-0.75a2.3,2.3,0,0,1,1.74-2.3,2,2,0,0,1,2.5,1.31,4.86,4.86,0,0,1,.39,1.91q0.07,14.54.08,29.08c0,1.88-1.08,3.27-2.53,3.24s-2.28-1.31-2.28-3.16q0-7.46,0-14.91h0.08Z"/><path class="cls-6" d="M526.79,285.07c4.06,0.37,6.67,3,6.92,6.83,0.24,3.68-3.25,7-7,7a7.08,7.08,0,0,1-6.84-6.86A7.17,7.17,0,0,1,526.79,285.07Zm0,4.77a2.47,2.47,0,0,0-2.2,2.14,2.57,2.57,0,0,0,2.17,2.2,2.64,2.64,0,0,0,2.14-2.11A2.46,2.46,0,0,0,526.81,289.84Z"/><path class="cls-6" d="M524.39,316.56c0-2.82,0-5.63,0-8.45a3.85,3.85,0,0,1,.33-2,3.39,3.39,0,0,1,2-1.5,3,3,0,0,1,2,1.37,3.93,3.93,0,0,1,.44,2.14q0,8.64,0,17.28a2.94,2.94,0,0,1-.37,1.78,3.91,3.91,0,0,1-2,1.3,1.86,1.86,0,0,1-2.05-1.45,6.48,6.48,0,0,1-.24-1.83c0-2.86,0-5.72,0-8.58h0Z"/><path class="cls-6" d="M483.24,345.86a2.4,2.4,0,0,1-2.17-1.73,1.75,1.75,0,0,1,1-2.37,43.93,43.93,0,0,1,7.17-1.67c0.62-.08,1.59,1.13,2.08,1.95s-0.7,2.24-1.78,2.52C487.53,345.06,485.45,345.41,483.24,345.86Z"/><path class="cls-6" d="M533.18,345.77c-2.31-.48-4.36-0.82-6.34-1.36a2.38,2.38,0,0,1-1.8-2.63,2.59,2.59,0,0,1,3.11-1.78c1.66,0.34,3.33.66,5,1.07,1.09,0.27,2.16.85,2.17,2.07a4.19,4.19,0,0,1-1.05,2.19A2.08,2.08,0,0,1,533.18,345.77Z"/><path class="cls-6" d="M497.71,343.42a2.33,2.33,0,1,1,.44-4.64c1.78-.09,3.55-0.17,5.33-0.22a2.22,2.22,0,1,1,.25,4.4Z"/><path class="cls-6" d="M513.12,338.75c1.7,0,3.39,0,5.09,0a2.41,2.41,0,0,1,2.59,2.41,2.7,2.7,0,0,1-3.09,2.2c-1.52-.16-3.05-0.27-4.58-0.4h-0.25c-1.4-.09-2.69-1.21-2.66-2.3A2.35,2.35,0,0,1,513.12,338.75Z"/><path class="cls-6" d="M541.24,343.72c2.07,0.88,4,1.39,5.12,3.13a2.9,2.9,0,0,1-.24,2.37,1.87,1.87,0,0,1-2.52.67,25,25,0,0,1-3.61-2.1,1.59,1.59,0,0,1-.6-2.18A11.41,11.41,0,0,1,541.24,343.72Z"/><path class="cls-6" d="M471.78,350.51a8.55,8.55,0,0,1-1.84-1.75,1.81,1.81,0,0,1,.73-2.49,38.24,38.24,0,0,1,3.57-2,1.83,1.83,0,0,1,2.43.92,2.56,2.56,0,0,1,.15,2.25C475.71,349.1,473.79,349.6,471.78,350.51Z"/><path class="cls-6" d="M475.92,390.8h-7.11a7.71,7.71,0,0,1-.92,0,2.09,2.09,0,0,1-1.93-1.93,1.86,1.86,0,0,1,1.8-2,16.15,16.15,0,0,1,2.17,0l13,0c0.38,0,.77,0,1.15,0,1.47,0.12,2.11.72,2.08,1.91a2.08,2.08,0,0,1-2.17,2.05c-0.68,0-1.38,0-2.06,0h-6Z"/><path class="cls-6" d="M541.63,390.79a2,2,0,0,1-1.92-2,1.81,1.81,0,0,1,1.94-1.93,1.9,1.9,0,0,1,2,1.82A2.12,2.12,0,0,1,541.63,390.79Z"/><path class="cls-6" d="M551.16,388.74a2.13,2.13,0,0,1-2.06,2,2,2,0,0,1-1.89-2,2,2,0,0,1,2.07-2A1.87,1.87,0,0,1,551.16,388.74Z"/><path class="cls-6" d="M214.37,274.61q0,21.77,0,43.55a2.55,2.55,0,0,1-2.4,2.63,2.7,2.7,0,0,1-2.5-2.74c0-2.39,0-4.78,0-7.17q0-38.49.05-77c0-1-.06-2,0-2.95a2.69,2.69,0,0,1,2.48-2.61,2.66,2.66,0,0,1,2.34,2.72q0,21.77,0,43.55h0Z"/><path class="cls-6" d="M172.92,279.15q0,20.36,0,40.72a3.49,3.49,0,0,1-.58,2.14,2.94,2.94,0,0,1-2.12,1.06,2.62,2.62,0,0,1-2.2-2.37,15.53,15.53,0,0,1,0-2.3q0-40,0-79.91a4.92,4.92,0,0,1,.32-1.86,2.29,2.29,0,0,1,2.5-1.59,3,3,0,0,1,2.08,2.62c0,1.92,0,3.84,0,5.76q0,17.86,0,35.73h0.07Z"/><path class="cls-6" d="M153.85,335.71q0,20.48,0,41c0,1.87-.91,3.19-2.23,3.24s-2.39-1.29-2.4-3.21q-0.07-20.68-.13-41.35,0-20.16,0-40.33a6.25,6.25,0,0,1,.23-1.76,2.18,2.18,0,0,1,2.35-1.77,2.4,2.4,0,0,1,2.23,2,5.06,5.06,0,0,1,.13,1.27q0,20.48,0,41h-0.14Z"/><path class="cls-6" d="M128.07,270.51q0-19.27,0-38.55a3.17,3.17,0,0,1,.65-2.08,3,3,0,0,1,2.19-.84,2.53,2.53,0,0,1,2,2.42,14.8,14.8,0,0,1,0,2.17q0,37.39.07,74.79a6.89,6.89,0,0,1-.44,2.48,2.11,2.11,0,0,1-2.42,1.48,2.39,2.39,0,0,1-2.07-2.3c-0.06-1.28,0-2.56,0-3.84q0-17.87,0-35.73h0Z"/><path class="cls-6" d="M204,312.06c0,1.49-1.16,2.57-3.32,2.64a7.38,7.38,0,0,0-5.42,2.74,8.2,8.2,0,0,0-2.19,5.19A4.27,4.27,0,0,1,192,325a1.78,1.78,0,0,1-3-.16,4.64,4.64,0,0,1-.91-2.18,8.64,8.64,0,0,0-5.3-7.42,9.53,9.53,0,0,0-2.1-.45,11.49,11.49,0,0,1-2.08-.53,2.13,2.13,0,0,1-1.53-2.38,2.81,2.81,0,0,1,2.25-2.19,6.7,6.7,0,0,1,1.27-.14,8.34,8.34,0,0,0,7.4-7.6c0-.26,0-0.51,0-0.77a3.09,3.09,0,0,1,2.64-2.58,2.76,2.76,0,0,1,2.4,2.73c-0.05,3,1.5,5,3.64,6.7a8.48,8.48,0,0,0,4.63,1.65C203.13,309.81,203.93,310.64,204,312.06Zm-13.4-3.28c-1.08,1.3-2,2.35-2.81,3.43a1.36,1.36,0,0,0,.42.72c2.28,2.39,2.28,2.39,4.64.08a2.38,2.38,0,0,0,.44-0.46,0.79,0.79,0,0,0,.14-0.58C192.56,311,191.69,310,190.56,308.78Z"/><path class="cls-6" d="M170.21,376a2.87,2.87,0,0,1,2.73,2.43,18.26,18.26,0,0,0,1.46,4.58,8.24,8.24,0,0,0,6.23,4,16.35,16.35,0,0,1,1.63.3,2.12,2.12,0,0,1,1.72,2.24,2.42,2.42,0,0,1-2.27,2.06,8.16,8.16,0,0,0-7.18,4,17.36,17.36,0,0,0-1.71,5c-0.32,1.22-1,2-2.12,2a2,2,0,0,1-2.18-1.75c-0.09-.42-0.18-0.84-0.23-1.26a8.63,8.63,0,0,0-3.08-5.71,8,8,0,0,0-5.3-2.22,2.88,2.88,0,0,1-2.72-2.07c-0.11-1,.84-2,2.27-2.39a20.49,20.49,0,0,0,4.38-1.31,8.42,8.42,0,0,0,4.41-6.81,3.73,3.73,0,0,1,.44-1.71A8.52,8.52,0,0,1,170.21,376Zm0.46,10.24a5.78,5.78,0,0,0-.86.55c-0.59.55-1.11,1.16-1.71,1.7a1.13,1.13,0,0,0,0,1.93c0.56,0.51,1.13,1,1.65,1.57a1.08,1.08,0,0,0,1.76,0c0.57-.57,1.13-1.14,1.7-1.7a1,1,0,0,0,0-1.74c-0.59-.55-1.11-1.17-1.69-1.73A6.78,6.78,0,0,0,170.67,386.2Z"/><path class="cls-6" d="M128,343.54c0-7.42,0-14.85,0-22.27a2.93,2.93,0,0,1,1.05-2.48,1.93,1.93,0,0,1,3.08.32,5.2,5.2,0,0,1,.82,2.61q0,21.63-.08,43.26a7,7,0,0,1-.25,2,2.36,2.36,0,0,1-2.48,1.79,2.51,2.51,0,0,1-2-2.45c0-1.79,0-3.58,0-5.38q0-8.7,0-17.41H128Z"/><path class="cls-6" d="M192.89,361.69q0,11.27,0,22.54a2.7,2.7,0,0,1-2.24,2.81,2.59,2.59,0,0,1-2.36-2.82q0-21.52-.08-43c0-.81-0.07-1.62,0-2.43a2.5,2.5,0,0,1,2.5-2.54A2.59,2.59,0,0,1,193,338.9q0,11.4,0,22.79h-0.15Z"/><path class="cls-6" d="M193,267.81q0,8.89,0,17.78a2.48,2.48,0,1,1-4.9,0q0-17.78,0-35.56a2.71,2.71,0,0,1,2.42-2.94,2.78,2.78,0,0,1,2.44,2.79q0,9,0,17.9h0Z"/><path class="cls-6" d="M214.29,350c0,5.12,0,10.23,0,15.35,0,1.71-.9,2.9-2.32,2.93a2.62,2.62,0,0,1-2.42-2.89q0-10.55,0-21.1c0-3.24,0-6.48-.06-9.72a2.74,2.74,0,0,1,2.59-3c1.42,0.08,2.3,1.38,2.29,3.11,0,5.11,0,10.23,0,15.34h0Z"/><path class="cls-6" d="M172.81,352.37q0,7.42,0,14.85c0,0.26,0,.51,0,0.77a2.36,2.36,0,0,1-1.79,2.37,2,2,0,0,1-2.58-1.34,5,5,0,0,1-.4-2q-0.07-15-.08-30c0-1.94,1.12-3.37,2.6-3.33s2.35,1.35,2.35,3.25q0,7.68,0,15.36h-0.09Z"/><path class="cls-6" d="M151.51,284.78c-4.18-.38-6.87-3.07-7.13-7-0.25-3.79,3.35-7.21,7.17-7.22a7.29,7.29,0,0,1,7,7.06A7.38,7.38,0,0,1,151.51,284.78Zm0-4.91a2.55,2.55,0,0,0,2.27-2.21,2.65,2.65,0,0,0-2.23-2.26,2.72,2.72,0,0,0-2.2,2.17A2.53,2.53,0,0,0,151.48,279.87Z"/><path class="cls-6" d="M154,252.34c0,2.9,0,5.8,0,8.71a4,4,0,0,1-.34,2.1,3.49,3.49,0,0,1-2.08,1.55,3.06,3.06,0,0,1-2-1.41,4.05,4.05,0,0,1-.45-2.2q0-8.9,0-17.8a3,3,0,0,1,.38-1.83,4,4,0,0,1,2.11-1.34,1.92,1.92,0,0,1,2.12,1.5,6.67,6.67,0,0,1,.25,1.89c0,2.94,0,5.89,0,8.83h0Z"/><circle class="cls-8" cx="508.29" cy="183.35" r="3.12"/><path class="cls-7" d="M528.15,218.95c-1.17,4.95-5.77,23.82-6.95,28.81H495.36l8.25-34.63,24.19,5.76"/><path class="cls-7" d="M514.57,275.54c1.22-4.93,5.74-23.83,7-28.8l-23-11.8-8.47,34.58,24.15,5.92"/><path class="cls-3" d="M572.43,266.23c0-.1,0-0.19,0-0.29a0.9,0.9,0,0,1-.07-0.34l-0.07-61.75c0-1.1,0-2.21,0-3.31l0-1.49v-9.32q0-30.25.06-60.5c0-1.29,0-2.58.06-3.87V125a3.75,3.75,0,0,0-.43-0.83c-9.85-.25-19.86-0.22-29.54-0.18-7,0-14.33.05-21.5,0-1.22,0-2.46,0-3.67.07a36,36,0,0,1-8.85-.44,4.21,4.21,0,0,1-.46.16,8.63,8.63,0,0,1-3.19.29c-0.33,0-.63,0-1,0H481.55q-17.38,0-34.77,0a11.31,11.31,0,0,1-1.18-.07,3.25,3.25,0,0,0-2.38.32l-0.11.06-0.17.11s0,0.07,0,.1a2.92,2.92,0,0,0-.08,1.13c0,0.21,0,.41,0,0.62q0,40.1,0,80.2c0,0.15,0,.32,0,0.48s0,0.22,0,.34c-0.11.9-.06,1.1,0.3,1.32l0.15,0.12,2.83,2.7,1.81,1.73q3.95,3.75,7.87,7.53l2.27,2.17,5.6,5.43Q490.07,254,516.46,279.6l22.08,21.46q2.92,2.79,5.8,5.63l2.83,2.75L559.1,321h0c0-.11,0-0.26,0-0.38s0-.33.07-0.53a1.69,1.69,0,0,1,1-1.39c0.54-.71.47-1.44,0.14-2.64l-0.08-.3c-1-3.52-2-7.17-1.27-11a8.45,8.45,0,0,1-.85-4.24,10.44,10.44,0,0,0-.22-2.41c-1.51-2.89-1.2-5.34.92-7.3l0.07-.08a2.62,2.62,0,0,1,1.23-.65,2.92,2.92,0,0,0,.34-0.11,0.86,0.86,0,0,1,.4-0.28,5.57,5.57,0,0,1,3.74.28,6.67,6.67,0,0,0,1.71.41,0.9,0.9,0,0,1,.77.51,4.18,4.18,0,0,0,.35.6h0a2.53,2.53,0,0,1,.65,1.21,2.71,2.71,0,0,0,.11.34,1.93,1.93,0,0,0,1.88.08,10.75,10.75,0,0,0,.29-1,5.91,5.91,0,0,1,1.26-2.82,12.48,12.48,0,0,0,.3-4.36,25.17,25.17,0,0,1,0-2.65c0.12-2,.06-4,0-6a47.48,47.48,0,0,1,.4-9.47C572.36,266.62,572.39,266.42,572.43,266.23Z"/><rect class="cls-7" x="494.74" y="208.98" width="28.41" height="73.21" transform="translate(72.08 -112.87) rotate(13.61)"/><path class="cls-6" d="M508.45,400.47q-23.2,0-46.4,0a2.89,2.89,0,0,1-2.54-1.24q-6-7.95-11.94-15.87c-1.93-2.57-3.9-5.11-5.8-7.7a3.06,3.06,0,0,1-.55-1.68c0-6.35,0-12.71-.07-19.06a2.19,2.19,0,0,1,1.09-2q7-4.45,13.94-8.88c0.74-.47,1.45-1,2.2-1.46,1.41-.86,2.18-0.67,3.2.73,0.65,0.9.47,1.81-.79,2.7-1.81,1.28-3.71,2.44-5.57,3.64-2.44,1.57-4.88,3.15-7.35,4.7a1,1,0,0,0-.28,1.76c4.89,6.66,9.74,13.35,14.67,20a2.89,2.89,0,0,0,2,1.08c11.06,0.05,22.13,0,33.19,0,17.8,0,35.6-.06,53.4.06a5.11,5.11,0,0,0,4.73-2.41c4.5-6.28,9.1-12.49,13.67-18.72a1,1,0,0,0-.39-1.75c-4.39-2.57-8.76-5.18-13.13-7.78-0.26-.16-0.51-0.34-0.76-0.52-1.42-1-1.81-1.9-1.25-2.78,0.94-1.49,2-1.72,3.6-.76s3.07,1.88,4.61,2.8c3.77,2.27,7.5,4.59,11.33,6.76a4.34,4.34,0,0,1,2.54,4.39c-0.16,5.55,0,11.1-.1,16.65a5.1,5.1,0,0,1-.78,2.79c-2.95,4.05-6,8-9.05,12-2.77,3.66-5.57,7.3-8.28,11a3.57,3.57,0,0,1-3.29,1.55C539,400.45,523.72,400.47,508.45,400.47Zm-0.14-3.69h0q22,0,44,0a3.14,3.14,0,0,0,2.81-1.4c1.53-2.1,3.1-4.18,4.66-6.26,3.68-4.89,7.38-9.77,11-14.69a3.88,3.88,0,0,0,.7-2.1c0.06-2.52,0-5.05-.05-7.58,0-.92.05-1.84,0-2.75a1,1,0,0,0-.43-0.71,1,1,0,0,0-.68.26,2.72,2.72,0,0,0-.52.61c-2.42,3.35-4.83,6.7-7.26,10-1.94,2.66-3.91,5.3-5.87,7.94a2.59,2.59,0,0,1-2.23,1.17q-6.32-.07-12.63-0.08-39.57,0-79.14.05a3.5,3.5,0,0,1-3.06-1.63c-4.28-5.88-8.54-11.77-12.84-17.63a4.35,4.35,0,0,0-1.24-.81,5.08,5.08,0,0,0-.37,1.32c0,3.06.13,6.12,0.06,9.18a4.54,4.54,0,0,0,1,3.07c1.45,1.88,2.87,3.78,4.3,5.68q5.7,7.57,11.38,15.14a2.56,2.56,0,0,0,2.21,1.18Q486.2,396.77,508.31,396.78Z"/><path class="cls-6" d="M508.32,371.31c-5.4-.49-10.81-0.82-16.18-1.52a81.23,81.23,0,0,1-11.55-2.3c-4.18-1.17-8.29-2.69-11.73-5.51-2.19-1.79-4-3.88-4.15-6.92a2.64,2.64,0,0,1,2-2.64,2,2,0,0,1,2.3,1.69c0.58,3.34,3.07,4.88,5.69,6.27a51.12,51.12,0,0,0,14.26,4.52,103.28,103.28,0,0,0,23.5,1.61c6.66-.24,13.34-0.65,19.77-2.64,3.11-1,6.25-1.91,9.24-3.17a17,17,0,0,0,4.56-3.15,6.48,6.48,0,0,0,1.58-2.86c0.45-1.44,1.4-2.49,2.47-2.27a2.72,2.72,0,0,1,2,3.26c-0.64,3.74-3.21,6-6.22,7.79a46.38,46.38,0,0,1-14.28,5.21,87.15,87.15,0,0,1-17.73,2.13c-1.82,0-3.63.21-5.45,0.33Z"/><path class="cls-6" d="M465.76,294.94q0-21.14,0-42.27a2.48,2.48,0,0,1,2.33-2.56,2.63,2.63,0,0,1,2.43,2.66c0,2.32,0,4.64,0,7q0,37.36-.05,74.73c0,1,.06,1.91,0,2.86a2.61,2.61,0,0,1-2.41,2.53,2.58,2.58,0,0,1-2.27-2.64q0-21.14,0-42.27h0Z"/><path class="cls-6" d="M506,290.54q0-19.77,0-39.53a3.38,3.38,0,0,1,.57-2.07,2.85,2.85,0,0,1,2.05-1,2.54,2.54,0,0,1,2.14,2.3,15.07,15.07,0,0,1,0,2.23q0,38.79,0,77.58a4.78,4.78,0,0,1-.31,1.81,2.22,2.22,0,0,1-2.43,1.55,2.94,2.94,0,0,1-2-2.55c0-1.86,0-3.73,0-5.59q0-17.34,0-34.68H506Z"/><path class="cls-6" d="M524.52,235.63q0-19.88,0-39.77c0-1.81.88-3.09,2.16-3.14S529,194,529,195.84q0.07,20.07.12,40.14,0,19.57,0,39.15a6.07,6.07,0,0,1-.22,1.71,2.12,2.12,0,0,1-2.28,1.72,2.33,2.33,0,0,1-2.17-1.92,4.91,4.91,0,0,1-.12-1.23q0-19.89,0-39.77h0.14Z"/><path class="cls-6" d="M549.54,298.93q0,18.71,0,37.42a3.08,3.08,0,0,1-.63,2,2.92,2.92,0,0,1-2.13.82,2.46,2.46,0,0,1-1.9-2.35,14.36,14.36,0,0,1,0-2.11q0-36.3-.07-72.6a6.69,6.69,0,0,1,.42-2.41,2.05,2.05,0,0,1,2.35-1.44,2.32,2.32,0,0,1,2,2.23c0.05,1.24,0,2.49,0,3.73q0,17.34,0,34.69h0Z"/><path class="cls-6" d="M475.88,258.59c0-1.44,1.13-2.49,3.22-2.56a7.17,7.17,0,0,0,5.26-2.66,8,8,0,0,0,2.13-5,4.14,4.14,0,0,1,1-2.25,1.73,1.73,0,0,1,2.87.15,4.5,4.5,0,0,1,.89,2.12,8.38,8.38,0,0,0,5.15,7.2,9.25,9.25,0,0,0,2,.44,11.16,11.16,0,0,1,2,.52,2.07,2.07,0,0,1,1.48,2.31,2.73,2.73,0,0,1-2.18,2.13,6.51,6.51,0,0,1-1.23.14,8.1,8.1,0,0,0-7.19,7.38c0,0.25,0,.5,0,0.74a3,3,0,0,1-2.57,2.5,2.68,2.68,0,0,1-2.33-2.65c0-2.87-1.45-4.84-3.53-6.51a8.23,8.23,0,0,0-4.49-1.6C476.68,260.77,475.9,260,475.88,258.59Zm13,3.19c1.05-1.26,1.92-2.28,2.73-3.33a1.32,1.32,0,0,0-.4-0.7c-2.21-2.32-2.21-2.32-4.5-.08a2.31,2.31,0,0,0-.42.44,0.77,0.77,0,0,0-.14.56C486.94,259.63,487.78,260.55,488.88,261.78Z"/><path class="cls-6" d="M508.63,196.56A2.79,2.79,0,0,1,506,194.2a17.72,17.72,0,0,0-1.41-4.45,8,8,0,0,0-6-3.91,15.87,15.87,0,0,1-1.58-.29,2.06,2.06,0,0,1-1.67-2.17,2.35,2.35,0,0,1,2.2-2,7.93,7.93,0,0,0,7-3.87,16.85,16.85,0,0,0,1.66-4.84c0.31-1.18.94-1.94,2.05-1.94a2,2,0,0,1,2.12,1.7c0.08,0.41.18,0.81,0.23,1.22a8.38,8.38,0,0,0,3,5.55,7.73,7.73,0,0,0,5.15,2.16,2.8,2.8,0,0,1,2.64,2c0.11,1-.82,2-2.2,2.32a19.89,19.89,0,0,0-4.25,1.27,8.17,8.17,0,0,0-4.28,6.61,3.62,3.62,0,0,1-.43,1.66A8.28,8.28,0,0,1,508.63,196.56Zm-0.45-9.94a5.61,5.61,0,0,0,.83-0.54c0.57-.53,1.08-1.13,1.66-1.65a1.1,1.1,0,0,0,0-1.88c-0.54-.5-1.09-1-1.61-1.53a1,1,0,0,0-1.71,0l-1.65,1.65a1,1,0,0,0,0,1.69c0.57,0.53,1.08,1.13,1.64,1.68A6.58,6.58,0,0,0,508.18,186.62Z"/><path class="cls-6" d="M549.58,228c0,7.21,0,14.41,0,21.62a2.84,2.84,0,0,1-1,2.4,1.88,1.88,0,0,1-3-.31,5.05,5.05,0,0,1-.8-2.53q0-21,.08-42a6.8,6.8,0,0,1,.24-2,2.29,2.29,0,0,1,2.4-1.74,2.43,2.43,0,0,1,2,2.38c0,1.74,0,3.48,0,5.22q0,8.45,0,16.9h0.08Z"/><path class="cls-6" d="M486.62,210.41q0-10.94,0-21.88a2.63,2.63,0,0,1,2.18-2.73,2.51,2.51,0,0,1,2.29,2.74q0,20.89.07,41.77c0,0.79.06,1.57,0,2.36a2.43,2.43,0,0,1-2.43,2.46,2.52,2.52,0,0,1-2.31-2.6q0-11.06,0-22.13h0.14Z"/><path class="cls-6" d="M486.46,301.55q0-8.63,0-17.26a2.41,2.41,0,1,1,4.75,0q0,17.26,0,34.52a2.63,2.63,0,0,1-2.35,2.86,2.7,2.7,0,0,1-2.37-2.71q0-8.69,0-17.38h0Z"/><path class="cls-6" d="M465.85,221.8c0-5,0-9.93,0-14.9,0-1.66.88-2.82,2.26-2.85a2.55,2.55,0,0,1,2.35,2.8q0,10.24,0,20.48c0,3.14,0,6.29.06,9.43a2.66,2.66,0,0,1-2.51,2.93c-1.38-.07-2.24-1.34-2.22-3,0-5,0-9.93,0-14.9h0Z"/><path class="cls-6" d="M526.79,285.07c4.06,0.37,6.67,3,6.92,6.83,0.24,3.68-3.25,7-7,7a7.08,7.08,0,0,1-6.84-6.86A7.17,7.17,0,0,1,526.79,285.07Zm0,4.77a2.47,2.47,0,0,0-2.2,2.14,2.57,2.57,0,0,0,2.17,2.2,2.64,2.64,0,0,0,2.14-2.11A2.46,2.46,0,0,0,526.81,289.84Z"/><path class="cls-6" d="M524.39,316.56c0-2.82,0-5.63,0-8.45a3.85,3.85,0,0,1,.33-2,3.39,3.39,0,0,1,2-1.5,3,3,0,0,1,2,1.37,3.93,3.93,0,0,1,.44,2.14q0,8.64,0,17.28a2.94,2.94,0,0,1-.37,1.78,3.91,3.91,0,0,1-2,1.3,1.86,1.86,0,0,1-2.05-1.45,6.48,6.48,0,0,1-.24-1.83c0-2.86,0-5.72,0-8.58h0Z"/><path class="cls-6" d="M483.24,345.86a2.4,2.4,0,0,1-2.17-1.73,1.75,1.75,0,0,1,1-2.37,43.93,43.93,0,0,1,7.17-1.67c0.62-.08,1.59,1.13,2.08,1.95s-0.7,2.24-1.78,2.52C487.53,345.06,485.45,345.41,483.24,345.86Z"/><path class="cls-6" d="M533.18,345.77c-2.31-.48-4.36-0.82-6.34-1.36a2.38,2.38,0,0,1-1.8-2.63,2.59,2.59,0,0,1,3.11-1.78c1.66,0.34,3.33.66,5,1.07,1.09,0.27,2.16.85,2.17,2.07a4.19,4.19,0,0,1-1.05,2.19A2.08,2.08,0,0,1,533.18,345.77Z"/><path class="cls-6" d="M497.71,343.42a2.33,2.33,0,1,1,.44-4.64c1.78-.09,3.55-0.17,5.33-0.22a2.22,2.22,0,1,1,.25,4.4Z"/><path class="cls-6" d="M513.12,338.75c1.7,0,3.39,0,5.09,0a2.41,2.41,0,0,1,2.59,2.41,2.7,2.7,0,0,1-3.09,2.2c-1.52-.16-3.05-0.27-4.58-0.4h-0.25c-1.4-.09-2.69-1.21-2.66-2.3A2.35,2.35,0,0,1,513.12,338.75Z"/><path class="cls-6" d="M541.24,343.72c2.07,0.88,4,1.39,5.12,3.13a2.9,2.9,0,0,1-.24,2.37,1.87,1.87,0,0,1-2.52.67,25,25,0,0,1-3.61-2.1,1.59,1.59,0,0,1-.6-2.18A11.41,11.41,0,0,1,541.24,343.72Z"/><path class="cls-6" d="M471.78,350.51a8.55,8.55,0,0,1-1.84-1.75,1.81,1.81,0,0,1,.73-2.49,38.24,38.24,0,0,1,3.57-2,1.83,1.83,0,0,1,2.43.92,2.56,2.56,0,0,1,.15,2.25C475.71,349.1,473.79,349.6,471.78,350.51Z"/><path class="cls-6" d="M475.92,390.8h-7.11a7.71,7.71,0,0,1-.92,0,2.09,2.09,0,0,1-1.93-1.93,1.86,1.86,0,0,1,1.8-2,16.15,16.15,0,0,1,2.17,0l13,0c0.38,0,.77,0,1.15,0,1.47,0.12,2.11.72,2.08,1.91a2.08,2.08,0,0,1-2.17,2.05c-0.68,0-1.38,0-2.06,0h-6Z"/><path class="cls-6" d="M541.63,390.79a2,2,0,0,1-1.92-2,1.81,1.81,0,0,1,1.94-1.93,1.9,1.9,0,0,1,2,1.82A2.12,2.12,0,0,1,541.63,390.79Z"/><path class="cls-6" d="M551.16,388.74a2.13,2.13,0,0,1-2.06,2,2,2,0,0,1-1.89-2,2,2,0,0,1,2.07-2A1.87,1.87,0,0,1,551.16,388.74Z"/></svg>