<svg id="Layer_1" data-name="Layer 1" xmlns="http://www.w3.org/2000/svg" viewBox="0 0 568.47 293.99"><defs><style>.cls-1{fill:#00aeef;}.cls-2,.cls-3{fill:#274fa2;}.cls-2{opacity:0.1;}.cls-4{fill:#ed1c24;}</style></defs><title>MMCidBOX</title><path class="cls-1" d="M343.1,96.66h42.13A2.47,2.47,0,0,1,387.78,99a2.62,2.62,0,0,1-2.65,2.42c-2.31,0-4.63,0-6.94,0l-74.47-.05c-0.95,0-1.9.06-2.85,0a2.6,2.6,0,0,1-2.52-2.4A2.57,2.57,0,0,1,301,96.7H343.1S343.1,96.68,343.1,96.66Z"/><path class="cls-1" d="M347.49,136.77q19.7,0,39.4,0a3.37,3.37,0,0,1,2.07.56,2.84,2.84,0,0,1,1,2,2.54,2.54,0,0,1-2.29,2.13,15,15,0,0,1-2.22,0q-38.66,0-77.31,0a4.76,4.76,0,0,1-1.8-.31,2.22,2.22,0,0,1-1.54-2.42,2.93,2.93,0,0,1,2.54-2c1.86,0,3.72,0,5.57,0h34.57v-0.06Z"/><path class="cls-1" d="M402.21,155.22h39.63c1.81,0,3.08.88,3.13,2.15s-1.25,2.31-3.1,2.32q-20,.07-40,0.12-19.51,0-39,0a6,6,0,0,1-1.7-.22,2.11,2.11,0,0,1-1.71-2.27,2.32,2.32,0,0,1,1.91-2.16,4.89,4.89,0,0,1,1.23-.12h39.63v0.13Z"/><path class="cls-1" d="M339.13,180.16q-18.65,0-37.29,0a3.07,3.07,0,0,1-2-.63,2.91,2.91,0,0,1-.82-2.12,2.45,2.45,0,0,1,2.34-1.89,14.32,14.32,0,0,1,2.1,0q36.18,0,72.35-.07a6.67,6.67,0,0,1,2.4.42,2,2,0,0,1,1.43,2.34,2.32,2.32,0,0,1-2.22,2c-1.24.05-2.48,0-3.72,0H339.13Z"/><path class="cls-1" d="M379.33,106.74c1.44,0,2.48,1.13,2.55,3.21a7.14,7.14,0,0,0,2.66,5.24,7.93,7.93,0,0,0,5,2.12,4.13,4.13,0,0,1,2.24,1,1.73,1.73,0,0,1-.15,2.86,4.48,4.48,0,0,1-2.11.88,8.36,8.36,0,0,0-7.18,5.13,9.22,9.22,0,0,0-.44,2,11.12,11.12,0,0,1-.52,2,2.06,2.06,0,0,1-2.31,1.48,2.72,2.72,0,0,1-2.12-2.17,6.48,6.48,0,0,1-.14-1.23,8.07,8.07,0,0,0-7.35-7.16c-0.25,0-.5,0-0.74,0a3,3,0,0,1-2.49-2.56,2.67,2.67,0,0,1,2.65-2.33c2.86,0,4.82-1.45,6.49-3.52a8.2,8.2,0,0,0,1.6-4.48C377.15,107.54,378,106.77,379.33,106.74Zm-3.18,13c1.26,1,2.27,1.91,3.32,2.72a1.32,1.32,0,0,0,.7-0.4c2.31-2.2,2.31-2.21.08-4.49a2.3,2.3,0,0,0-.44-0.42,0.77,0.77,0,0,0-.56-0.14C378.29,117.77,377.38,118.6,376.15,119.7Z"/><path class="cls-1" d="M441.15,139.39a2.78,2.78,0,0,1,2.35-2.64,17.66,17.66,0,0,0,4.43-1.41,8,8,0,0,0,3.9-6,15.82,15.82,0,0,1,.29-1.58,2.05,2.05,0,0,1,2.17-1.67,2.34,2.34,0,0,1,2,2.19,7.9,7.9,0,0,0,3.85,6.95,16.79,16.79,0,0,0,4.83,1.65c1.18,0.31,1.94.93,1.94,2a2,2,0,0,1-1.7,2.11c-0.4.08-.81,0.18-1.22,0.22a8.35,8.35,0,0,0-5.53,3,7.71,7.71,0,0,0-2.15,5.13,2.79,2.79,0,0,1-2,2.63c-1,.11-1.94-0.82-2.31-2.19a19.82,19.82,0,0,0-1.27-4.23,8.14,8.14,0,0,0-6.59-4.26,3.61,3.61,0,0,1-1.65-.43A8.25,8.25,0,0,1,441.15,139.39Zm9.9-.45a5.59,5.59,0,0,0,.54.83c0.53,0.57,1.12,1.08,1.64,1.65a1.09,1.09,0,0,0,1.87,0c0.5-.54,1-1.09,1.52-1.6a1,1,0,0,0,0-1.7L455,136.43a1,1,0,0,0-1.68,0c-0.53.57-1.13,1.07-1.67,1.63A6.56,6.56,0,0,0,451.05,138.94Z"/><path class="cls-1" d="M409.78,180.2c-7.18,0-14.36,0-21.54,0a2.83,2.83,0,0,1-2.39-1,1.87,1.87,0,0,1,.31-3,5,5,0,0,1,2.52-.8q20.93,0,41.85.08a6.78,6.78,0,0,1,1.94.24,2.28,2.28,0,0,1,1.73,2.4,2.42,2.42,0,0,1-2.37,2c-1.73,0-3.47,0-5.2,0H409.78v0.08Z"/><path class="cls-1" d="M427.34,117.45h21.81a2.62,2.62,0,0,1,2.72,2.17,2.51,2.51,0,0,1-2.73,2.28l-41.63.07c-0.78,0-1.57.06-2.35,0a2.42,2.42,0,0,1-2.45-2.42,2.51,2.51,0,0,1,2.59-2.3h22.05v0.14Z"/><path class="cls-1" d="M336.52,117.32v0h17.2a2.4,2.4,0,1,1,0,4.74h-34.4a2.62,2.62,0,0,1-2.85-2.35,2.69,2.69,0,0,1,2.7-2.37"/><path class="cls-1" d="M416,96.75c4.95,0,9.9,0,14.85,0,1.66,0,2.81.87,2.84,2.25a2.54,2.54,0,0,1-2.79,2.34l-20.41,0c-3.13,0-6.27,0-9.4.06a2.65,2.65,0,0,1-2.92-2.51c0.07-1.38,1.33-2.23,3-2.22,4.95,0,9.9,0,14.84,0v0Z"/><path class="cls-1" d="M418.32,136.88h15.11a2.29,2.29,0,0,1,2.29,1.74,2,2,0,0,1-1.3,2.49,4.85,4.85,0,0,1-1.9.39q-14.49.07-29,.08c-1.88,0-3.26-1.08-3.23-2.52s1.31-2.27,3.15-2.27h14.86v0.08Z"/><path class="cls-1" d="M352.94,157.48c-0.37,4-3,6.65-6.81,6.9-3.67.24-7-3.24-7-6.94a7.05,7.05,0,0,1,6.83-6.81A7.14,7.14,0,0,1,352.94,157.48Zm-4.75,0a2.46,2.46,0,0,0-2.13-2.19,2.57,2.57,0,0,0-2.19,2.16,2.63,2.63,0,0,0,2.1,2.13A2.45,2.45,0,0,0,348.19,157.51Z"/><path class="cls-1" d="M321.55,155.09c2.81,0,5.62,0,8.42,0a3.83,3.83,0,0,1,2,.33,3.37,3.37,0,0,1,1.5,2,3,3,0,0,1-1.36,2,3.92,3.92,0,0,1-2.13.44q-8.61,0-17.22,0a2.93,2.93,0,0,1-1.77-.37,3.9,3.9,0,0,1-1.3-2,1.86,1.86,0,0,1,1.45-2,6.46,6.46,0,0,1,1.83-.24c2.85,0,5.7,0,8.55,0v0Z"/><path class="cls-1" d="M247.06,180.21H204.93a2.47,2.47,0,0,1-2.55-2.32,2.62,2.62,0,0,1,2.65-2.42c2.31,0,4.63,0,6.94,0l74.47,0.05c0.95,0,1.9-.06,2.85,0a2.6,2.6,0,0,1,2.52,2.4,2.57,2.57,0,0,1-2.63,2.26H247.06S247.06,180.2,247.06,180.21Z"/><path class="cls-1" d="M242.68,140.1q-19.7,0-39.4,0a3.37,3.37,0,0,1-2.07-.56,2.84,2.84,0,0,1-1-2,2.54,2.54,0,0,1,2.29-2.13,15,15,0,0,1,2.22,0q38.66,0,77.31,0a4.76,4.76,0,0,1,1.8.31,2.22,2.22,0,0,1,1.54,2.42,2.93,2.93,0,0,1-2.54,2c-1.86,0-3.72,0-5.57,0H242.68v0.06Z"/><path class="cls-1" d="M188,121.65H148.32c-1.81,0-3.08-.88-3.13-2.15s1.25-2.31,3.1-2.32q20-.07,40-0.12,19.51,0,39,0a6,6,0,0,1,1.7.22,2.11,2.11,0,0,1,1.71,2.27,2.32,2.32,0,0,1-1.91,2.16,4.89,4.89,0,0,1-1.23.12H188v-0.13Z"/><path class="cls-1" d="M251,96.72q18.65,0,37.29,0a3.07,3.07,0,0,1,2,.63,2.91,2.91,0,0,1,.82,2.12,2.45,2.45,0,0,1-2.34,1.89,14.32,14.32,0,0,1-2.1,0q-36.18,0-72.35.07a6.67,6.67,0,0,1-2.4-.42,2,2,0,0,1-1.43-2.34,2.32,2.32,0,0,1,2.22-2c1.24-.05,2.48,0,3.72,0H251Z"/><path class="cls-1" d="M210.84,170.13c-1.44,0-2.48-1.13-2.55-3.21a7.14,7.14,0,0,0-2.66-5.24,7.93,7.93,0,0,0-5-2.12,4.13,4.13,0,0,1-2.24-1,1.73,1.73,0,0,1,.15-2.86,4.48,4.48,0,0,1,2.11-.88,8.36,8.36,0,0,0,7.18-5.13,9.22,9.22,0,0,0,.44-2,11.12,11.12,0,0,1,.52-2,2.06,2.06,0,0,1,2.31-1.48,2.72,2.72,0,0,1,2.12,2.17,6.48,6.48,0,0,1,.14,1.23,8.07,8.07,0,0,0,7.35,7.16c0.25,0,.5,0,0.74,0a3,3,0,0,1,2.49,2.56,2.67,2.67,0,0,1-2.65,2.33c-2.86,0-4.82,1.45-6.49,3.52a8.2,8.2,0,0,0-1.6,4.48C213,169.33,212.21,170.11,210.84,170.13Zm3.18-13c-1.26-1-2.27-1.91-3.32-2.72a1.32,1.32,0,0,0-.7.4c-2.31,2.2-2.31,2.21-.08,4.49a2.3,2.3,0,0,0,.44.42,0.77,0.77,0,0,0,.56.14C211.87,159.1,212.79,158.27,214,157.17Z"/><path class="cls-1" d="M149,137.49a2.78,2.78,0,0,1-2.35,2.64,17.66,17.66,0,0,0-4.43,1.41,8,8,0,0,0-3.9,6,15.82,15.82,0,0,1-.29,1.58,2.05,2.05,0,0,1-2.17,1.67,2.34,2.34,0,0,1-2-2.19,7.9,7.9,0,0,0-3.85-6.95,16.79,16.79,0,0,0-4.83-1.65c-1.18-.31-1.94-0.93-1.94-2a2,2,0,0,1,1.7-2.11c0.4-.08.81-0.18,1.22-0.22a8.35,8.35,0,0,0,5.53-3,7.71,7.71,0,0,0,2.15-5.13,2.79,2.79,0,0,1,2-2.63c1-.11,1.94.82,2.31,2.19a19.82,19.82,0,0,0,1.27,4.23,8.14,8.14,0,0,0,6.59,4.26,3.61,3.61,0,0,1,1.65.43A8.25,8.25,0,0,1,149,137.49Zm-9.9.45a5.59,5.59,0,0,0-.54-0.83c-0.53-.57-1.12-1.08-1.64-1.65a1.09,1.09,0,0,0-1.87,0c-0.5.54-1,1.09-1.52,1.6a1,1,0,0,0,0,1.7l1.65,1.64a1,1,0,0,0,1.68,0c0.53-.57,1.13-1.07,1.67-1.63A6.56,6.56,0,0,0,139.11,137.93Z"/><path class="cls-1" d="M180.39,96.68c7.18,0,14.36,0,21.54,0a2.83,2.83,0,0,1,2.39,1,1.87,1.87,0,0,1-.31,3,5,5,0,0,1-2.52.8q-20.93,0-41.85-.08a6.78,6.78,0,0,1-1.94-.24,2.28,2.28,0,0,1-1.73-2.4,2.42,2.42,0,0,1,2.37-2c1.73,0,3.47,0,5.2,0h16.84V96.68Z"/><path class="cls-1" d="M162.82,159.42H141a2.62,2.62,0,0,1-2.72-2.17A2.51,2.51,0,0,1,141,155l41.63-.07c0.78,0,1.57-.06,2.35,0a2.42,2.42,0,0,1,2.45,2.42,2.51,2.51,0,0,1-2.59,2.3H162.82v-0.14Z"/><path class="cls-1" d="M253.65,159.58h-17.2a2.4,2.4,0,1,1,0-4.74h34.4a2.62,2.62,0,0,1,2.85,2.35,2.69,2.69,0,0,1-2.7,2.37H253.65v0Z"/><path class="cls-1" d="M174.17,180.12c-4.95,0-9.9,0-14.85,0-1.66,0-2.81-.87-2.84-2.25a2.54,2.54,0,0,1,2.79-2.34l20.41,0c3.13,0,6.27,0,9.4-.06A2.65,2.65,0,0,1,192,178c-0.07,1.38-1.33,2.23-3,2.22-4.95,0-9.9,0-14.84,0v0Z"/><path class="cls-1" d="M171.85,140H156.74a2.29,2.29,0,0,1-2.29-1.74,2,2,0,0,1,1.3-2.49,4.85,4.85,0,0,1,1.9-.39q14.49-.07,29-0.08c1.88,0,3.26,1.08,3.23,2.52s-1.31,2.27-3.15,2.27H171.85V140Z"/><path class="cls-1" d="M237.22,119.39c0.37-4,3-6.65,6.81-6.9,3.67-.24,7,3.24,7,6.94a7.05,7.05,0,0,1-6.83,6.81A7.14,7.14,0,0,1,237.22,119.39Zm4.75,0a2.46,2.46,0,0,0,2.13,2.19,2.57,2.57,0,0,0,2.19-2.16,2.63,2.63,0,0,0-2.1-2.13A2.45,2.45,0,0,0,242,119.37Z"/><path class="cls-1" d="M268.61,121.78c-2.81,0-5.62,0-8.42,0a3.83,3.83,0,0,1-2-.33,3.37,3.37,0,0,1-1.5-2,3,3,0,0,1,1.36-2,3.92,3.92,0,0,1,2.13-.44q8.61,0,17.22,0a2.93,2.93,0,0,1,1.77.37,3.9,3.9,0,0,1,1.3,2,1.86,1.86,0,0,1-1.45,2,6.46,6.46,0,0,1-1.83.24c-2.85,0-5.7,0-8.55,0v0Z"/><path class="cls-1" d="M56.51,131.74a0.28,0.28,0,0,1,.3-0.3H70.19a0.28,0.28,0,0,1,.3.3v3.88a0.28,0.28,0,0,1-.3.3H62a0.16,0.16,0,0,0-.18.18v3.37a0.16,0.16,0,0,0,.18.18h6.73a0.28,0.28,0,0,1,.3.3v3.79a0.28,0.28,0,0,1-.3.3H62a0.16,0.16,0,0,0-.18.18v7.36a0.28,0.28,0,0,1-.3.3H56.81a0.28,0.28,0,0,1-.3-0.3V131.74Z"/><path class="cls-1" d="M71.61,131.74a0.28,0.28,0,0,1,.3-0.3H76.6a0.28,0.28,0,0,1,.3.3V147a0.16,0.16,0,0,0,.18.18h8.66a0.28,0.28,0,0,1,.3.3v4.09a0.28,0.28,0,0,1-.3.3H71.91a0.28,0.28,0,0,1-.3-0.3V131.74Z"/><path class="cls-1" d="M515.06,131.74a0.28,0.28,0,0,1,.3-0.3h4.69a0.28,0.28,0,0,1,.3.3v19.84a0.28,0.28,0,0,1-.3.3h-4.69a0.28,0.28,0,0,1-.3-0.3V131.74Z"/><path class="cls-1" d="M522.16,131.74a0.28,0.28,0,0,1,.3-0.3h4.69a0.28,0.28,0,0,1,.3.3V147a0.16,0.16,0,0,0,.18.18h8.66a0.28,0.28,0,0,1,.3.3v4.09a0.28,0.28,0,0,1-.3.3H522.46a0.28,0.28,0,0,1-.3-0.3V131.74Z"/><path class="cls-2" d="M167.35,188c-0.07-4.69-.14-9.12-3.55-12.73a1.85,1.85,0,0,1-.53-1.39c0.32-2.68-.52-5.13-1.41-7.72a37.17,37.17,0,0,1-1.21-4,41.25,41.25,0,0,0-3.42-10,47.51,47.51,0,0,1-5.44-22.79,8.82,8.82,0,0,0-1.09-4.39c-5-9.81-7.94-17.71-9.47-25.61-0.32-1.65-.57-3.33-0.81-5a63.33,63.33,0,0,0-1.7-8.66,21.21,21.21,0,0,1-.95-7,11.1,11.1,0,0,0-1.07-.45c-0.74-.27-1.52-0.49-2.32-0.71a18.45,18.45,0,0,1-4.21-1.54c-0.52-.29-0.9-0.13-1.78.38l-0.36.21c-0.77.94-.72,2-0.29,3.54a2.46,2.46,0,0,1-.11,3.26,1,1,0,0,0-.12.49,4.38,4.38,0,0,1-.82,3.24,2.73,2.73,0,0,1-2,.8h-0.09c-2.28,0-2.58-2-2.78-3.4a2.38,2.38,0,0,0-2.59-2.31h-0.49a9.71,9.71,0,0,1-3.24-.38,5.31,5.31,0,0,0-1.69,0,4.79,4.79,0,0,1-3.58-.66l-0.16-.1a4.48,4.48,0,0,0-2.93-.38c-0.38,0-.76.06-1.13,0.07l-0.3,0-0.16,0a8.29,8.29,0,0,1-5.3-.36l-0.13-.08L100,80.36A4.55,4.55,0,0,0,97,80c-0.37,0-.75.06-1.11,0.07l-0.47.07-0.22,0a7.67,7.67,0,0,1-5.08-.4L90,79.69l-0.16-.1A4.43,4.43,0,0,0,87,79.19c-0.41,0-.83,0-1.21.05l-0.75.07a54.1,54.1,0,0,1-11.23-.45c-2.15-.24-4.38-0.49-6.56-0.56l-0.18,0a4.17,4.17,0,0,1-1.92-.85A0.86,0.86,0,0,1,65,77.25l-0.09-.14a6.71,6.71,0,0,1-.37-4.67l0.05-.27a1.11,1.11,0,0,0-.32-0.45,3.72,3.72,0,0,0-.68-0.46,0.88,0.88,0,0,1-.35-0.37,2.2,2.2,0,0,0-.62-0.74l0,0c-14.54.15-29.94,0.14-49.86,0-3,0-3.71.57-3.73,2.86a0.81,0.81,0,0,1,0,.14c-0.07.39,0.08,0.56,0.7,1l0.4,0.33A2.57,2.57,0,0,1,11,76c0,0.13.07,0.26,0.12,0.36l0.51,0.3c1.94,1.4,1.77,3.26,1.63,4.75A3.9,3.9,0,0,0,13.55,84a0.88,0.88,0,0,1,.13.7l-0.41,1.68a5.47,5.47,0,0,1,.3.73l0,0.06c0.31-.24.61-0.44,0.9-0.64C16.06,85.49,17,84.75,16.68,83a1.8,1.8,0,0,1,.6-1.92,1.5,1.5,0,0,1,1.75.15c0.31,0.21.31,0.21,0.87-.12l0.18-.1a1.65,1.65,0,0,1,2.08.11,1.77,1.77,0,0,1,.15,2.14A2,2,0,0,0,22,84c0.07,0.06.66,0.37,0.88,0.48A6.87,6.87,0,0,0,30,84.06a7.36,7.36,0,0,1,5.17-1.23,10.38,10.38,0,0,0,2,0c2-.3,3.45.92,4,3.28a0.88,0.88,0,0,1-.27.84,2.32,2.32,0,0,1-.91.5l0.19,0.09,0.51,0.25c1.21,0.6,2.46,1.22,3.66,1.93,0.29,0.17.34,0.21,1-.47a2.29,2.29,0,0,1,2.93-.87,0.89,0.89,0,0,1,.34.32l0.2,0.05a1.62,1.62,0,0,1,1.37,1,1.7,1.7,0,0,1-.59,1.57,2.16,2.16,0,0,0,.16,1.54,1.66,1.66,0,0,0,1.2.48,4.08,4.08,0,0,1,2.93,1.28,2.5,2.5,0,0,1,.5,1.93c-0.15,1.12.28,1.5,1.34,2.33a5.2,5.2,0,0,1,2.22,4.37,1.82,1.82,0,0,0,.4,1.4,1.79,1.79,0,0,0,1.49.07c0.71-.18,1.42-0.34,2.14-0.51,3.1-.71,6-1.37,8.35-3.45a6.52,6.52,0,0,1,4.65-1.9,2.09,2.09,0,0,1-.48-1,0.87,0.87,0,0,1,.39-0.9,5,5,0,0,0,1-1,4.14,4.14,0,0,1,3.68-2,11.44,11.44,0,0,0,2-.06c2.06-.18,4.62-0.4,6.16,2.63a4.71,4.71,0,0,0,.9.24l0.31,0.07a8.23,8.23,0,0,1,6,5.58c0.1,0.25.17,0.52,0.24,0.79,0.21,0.79.33,1.11,0.73,1.25,1.8,0.67,2.28,2.12,2.7,3.41l0.15,0.44a20.29,20.29,0,0,0,4,6.23,31.79,31.79,0,0,1,3.23,4.4,0.74,0.74,0,0,0,.28.14c4.45,0.28,6.75,2.72,6.67,7.06,3.2,6.8,1.44,13.53-.63,19.84a7.59,7.59,0,0,1-.36.86c-0.35.73-.42,1-0.23,1.26a3.79,3.79,0,0,1,0,3.72l-0.13.34c-1.14,3.12-1.33,5.14,1,6.9l0.19,0.15a4,4,0,0,0,.83-1.23,4.27,4.27,0,0,0-1-1.32,3.81,3.81,0,0,1-.72-4.56,0.88,0.88,0,0,1,.8-0.51h0A4.46,4.46,0,0,1,116,153.3c0.16,0.17.32,0.33,0.48,0.48a0.93,0.93,0,0,1,.73-0.14l0.27,0a1.73,1.73,0,0,1,1.27.59c1.79,2.46,1.71,3.55-.48,6.47-3.42,4.56-3.86,8-1.52,11.74a21.75,21.75,0,0,1,1.75,3.87c0.24,0.64.48,1.28,0.75,1.9L119.6,179c0.64,1.49,1.3,3,2,4.48a2.11,2.11,0,0,0,.58.75,0.29,0.29,0,0,0,.37,0,0.68,0.68,0,0,0,.26-0.19,2.94,2.94,0,0,0-.43-0.88l-0.18-.3a0.88,0.88,0,0,1-.1-0.28,2.21,2.21,0,0,0-.07-0.24,1.61,1.61,0,0,1,.1-1.57,1.51,1.51,0,0,1,1.4-.46,1.8,1.8,0,0,0,.41,0,2.12,2.12,0,0,1,1.9.37,2,2,0,0,1,.47,1.64,30.8,30.8,0,0,1,.65,7c0,1.1,0,2.24.11,3.35a0.72,0.72,0,0,0,.93-0.2,2.06,2.06,0,0,0,.36-0.83,4,4,0,0,1,.61-1.36,0.88,0.88,0,0,1,1.54.76,7.36,7.36,0,0,1-.36,1,1.88,1.88,0,0,0-.26,1.5c1,0.84,2.16,1.9,1.89,3.83a11.45,11.45,0,0,0,.42,4.08c0.13,0.58.26,1.16,0.35,1.75a7.18,7.18,0,0,0,3.68,5.54c2.05,1.15,4,2.47,5.94,3.75l1.25,0.84c0.16,0.11.36,0.21,0.56,0.31,0.73,0.38,1.64.86,1.68,1.83a2.43,2.43,0,0,1-1.34,1.94,14.17,14.17,0,0,1,1.74,4.4,14.5,14.5,0,0,0,1.23,3.44,0.86,0.86,0,0,1,.11.35c0.1,1,.74,1.44,1.85,2.11,0.28,0.17.56,0.34,0.82,0.52a0.86,0.86,0,0,1,.17.15,3.07,3.07,0,0,0,1.25.72,5.21,5.21,0,0,1,1.64.92c0.48,0.49.78,0.56,1.14,0.19a5.61,5.61,0,0,1,2.91-1.42l0.61-.16a5.3,5.3,0,0,0,.52-0.19,2.51,2.51,0,0,1,2.86.18,2.6,2.6,0,0,1,.28.31,4.4,4.4,0,0,1,.83-2.48l-0.08-.19c-1.12-3.07-2.06-7.54,2.67-10.81a1.61,1.61,0,0,0,.13-0.58l0-.21c0.2-1.5.42-3,.64-4.5,0.94-6.49,1.91-13.2,1.68-19.87C167.37,189.54,167.36,188.78,167.35,188Z"/><rect class="cls-3" x="280.68" y="102.28" width="27.48" height="70.83" transform="translate(328.27 -185.57) rotate(70.91)"/><path class="cls-1" d="M343.1,96.66h42.13A2.47,2.47,0,0,1,387.78,99a2.62,2.62,0,0,1-2.65,2.42c-2.31,0-4.63,0-6.94,0l-74.47-.05c-0.95,0-1.9.06-2.85,0a2.6,2.6,0,0,1-2.52-2.4A2.57,2.57,0,0,1,301,96.7H343.1S343.1,96.68,343.1,96.66Z"/><path class="cls-1" d="M308.15,141.54a4.76,4.76,0,0,1-1.8-.31,2.22,2.22,0,0,1-1.54-2.42,2.93,2.93,0,0,1,2.54-2c1.86,0,3.72,0,5.57,0h34.57v-0.06q19.7,0,39.4,0a3.37,3.37,0,0,1,2.07.56,2.84,2.84,0,0,1,1,2,2.54,2.54,0,0,1-2.29,2.13,15,15,0,0,1-2.22,0"/><path class="cls-1" d="M402.21,155.22h39.63c1.81,0,3.08.88,3.13,2.15s-1.25,2.31-3.1,2.32q-20,.07-40,0.12-19.51,0-39,0a6,6,0,0,1-1.7-.22,2.11,2.11,0,0,1-1.71-2.27,2.32,2.32,0,0,1,1.91-2.16,4.89,4.89,0,0,1,1.23-.12h39.63v0.13Z"/><path class="cls-1" d="M339.13,180.16q-18.65,0-37.29,0a3.07,3.07,0,0,1-2-.63,2.91,2.91,0,0,1-.82-2.12,2.45,2.45,0,0,1,2.34-1.89,14.32,14.32,0,0,1,2.1,0q36.18,0,72.35-.07a6.67,6.67,0,0,1,2.4.42,2,2,0,0,1,1.43,2.34,2.32,2.32,0,0,1-2.22,2c-1.24.05-2.48,0-3.72,0H339.13Z"/><path class="cls-1" d="M379.33,106.74c1.44,0,2.48,1.13,2.55,3.21a7.14,7.14,0,0,0,2.66,5.24,7.93,7.93,0,0,0,5,2.12,4.13,4.13,0,0,1,2.24,1,1.73,1.73,0,0,1-.15,2.86,4.48,4.48,0,0,1-2.11.88,8.36,8.36,0,0,0-7.18,5.13,9.22,9.22,0,0,0-.44,2,11.12,11.12,0,0,1-.52,2,2.06,2.06,0,0,1-2.31,1.48,2.72,2.72,0,0,1-2.12-2.17,6.48,6.48,0,0,1-.14-1.23,8.07,8.07,0,0,0-7.35-7.16c-0.25,0-.5,0-0.74,0a3,3,0,0,1-2.49-2.56,2.67,2.67,0,0,1,2.65-2.33c2.86,0,4.82-1.45,6.49-3.52a8.2,8.2,0,0,0,1.6-4.48C377.15,107.54,378,106.77,379.33,106.74Zm-3.18,13c1.26,1,2.27,1.91,3.32,2.72a1.32,1.32,0,0,0,.7-0.4c2.31-2.2,2.31-2.21.08-4.49a2.3,2.3,0,0,0-.44-0.42,0.77,0.77,0,0,0-.56-0.14C378.29,117.77,377.38,118.6,376.15,119.7Z"/><path class="cls-1" d="M441.15,139.39a2.78,2.78,0,0,1,2.35-2.64,17.66,17.66,0,0,0,4.43-1.41,8,8,0,0,0,3.9-6,15.82,15.82,0,0,1,.29-1.58,2.05,2.05,0,0,1,2.17-1.67,2.34,2.34,0,0,1,2,2.19,7.9,7.9,0,0,0,3.85,6.95,16.79,16.79,0,0,0,4.83,1.65c1.18,0.31,1.94.93,1.94,2a2,2,0,0,1-1.7,2.11c-0.4.08-.81,0.18-1.22,0.22a8.35,8.35,0,0,0-5.53,3,7.71,7.71,0,0,0-2.15,5.13,2.79,2.79,0,0,1-2,2.63c-1,.11-1.94-0.82-2.31-2.19a19.82,19.82,0,0,0-1.27-4.23,8.14,8.14,0,0,0-6.59-4.26,3.61,3.61,0,0,1-1.65-.43A8.25,8.25,0,0,1,441.15,139.39Zm9.9-.45a5.59,5.59,0,0,0,.54.83c0.53,0.57,1.12,1.08,1.64,1.65a1.09,1.09,0,0,0,1.87,0c0.5-.54,1-1.09,1.52-1.6a1,1,0,0,0,0-1.7L455,136.43a1,1,0,0,0-1.68,0c-0.53.57-1.13,1.07-1.67,1.63A6.56,6.56,0,0,0,451.05,138.94Z"/><path class="cls-1" d="M409.78,180.2c-7.18,0-14.36,0-21.54,0a2.83,2.83,0,0,1-2.39-1,1.87,1.87,0,0,1,.31-3,5,5,0,0,1,2.52-.8q20.93,0,41.85.08a6.78,6.78,0,0,1,1.94.24,2.28,2.28,0,0,1,1.73,2.4,2.42,2.42,0,0,1-2.37,2c-1.73,0-3.47,0-5.2,0H409.78v0.08Z"/><path class="cls-1" d="M427.34,117.45h21.81a2.62,2.62,0,0,1,2.72,2.17,2.51,2.51,0,0,1-2.73,2.28l-41.63.07c-0.78,0-1.57.06-2.35,0a2.42,2.42,0,0,1-2.45-2.42,2.51,2.51,0,0,1,2.59-2.3h22.05v0.14Z"/><path class="cls-1" d="M416,96.75c4.95,0,9.9,0,14.85,0,1.66,0,2.81.87,2.84,2.25a2.54,2.54,0,0,1-2.79,2.34l-20.41,0c-3.13,0-6.27,0-9.4.06a2.65,2.65,0,0,1-2.92-2.51c0.07-1.38,1.33-2.23,3-2.22,4.95,0,9.9,0,14.84,0v0Z"/><path class="cls-1" d="M418.32,136.88h15.11a2.29,2.29,0,0,1,2.29,1.74,2,2,0,0,1-1.3,2.49,4.85,4.85,0,0,1-1.9.39q-14.49.07-29,.08c-1.88,0-3.26-1.08-3.23-2.52s1.31-2.27,3.15-2.27h14.86v0.08Z"/><path class="cls-1" d="M352.94,157.48c-0.37,4-3,6.65-6.81,6.9-3.67.24-7-3.24-7-6.94a7.05,7.05,0,0,1,6.83-6.81A7.14,7.14,0,0,1,352.94,157.48Zm-4.75,0a2.46,2.46,0,0,0-2.13-2.19,2.57,2.57,0,0,0-2.19,2.16,2.63,2.63,0,0,0,2.1,2.13A2.45,2.45,0,0,0,348.19,157.51Z"/><path class="cls-1" d="M321.55,155.09c2.81,0,5.62,0,8.42,0a3.83,3.83,0,0,1,2,.33,3.37,3.37,0,0,1,1.5,2,3,3,0,0,1-1.36,2,3.92,3.92,0,0,1-2.13.44q-8.61,0-17.22,0a2.93,2.93,0,0,1-1.77-.37,3.9,3.9,0,0,1-1.3-2,1.86,1.86,0,0,1,1.45-2,6.46,6.46,0,0,1,1.83-.24c2.85,0,5.7,0,8.55,0v0Z"/><path class="cls-1" d="M247.06,180.21H204.93a2.47,2.47,0,0,1-2.55-2.32,2.62,2.62,0,0,1,2.65-2.42c2.31,0,4.63,0,6.94,0l74.47,0.05c0.95,0,1.9-.06,2.85,0a2.6,2.6,0,0,1,2.52,2.4,2.57,2.57,0,0,1-2.63,2.26H247.06S247.06,180.2,247.06,180.21Z"/><path class="cls-1" d="M242.68,140.1q-19.7,0-39.4,0a3.37,3.37,0,0,1-2.07-.56,2.84,2.84,0,0,1-1-2,2.54,2.54,0,0,1,2.29-2.13,15,15,0,0,1,2.22,0q38.66,0,77.31,0a4.76,4.76,0,0,1,1.8.31,2.22,2.22,0,0,1,1.54,2.42,2.93,2.93,0,0,1-2.54,2c-1.86,0-3.72,0-5.57,0H242.68v0.06Z"/><path class="cls-1" d="M188,121.65H148.32c-1.81,0-3.08-.88-3.13-2.15s1.25-2.31,3.1-2.32q20-.07,40-0.12,19.51,0,39,0a6,6,0,0,1,1.7.22,2.11,2.11,0,0,1,1.71,2.27,2.32,2.32,0,0,1-1.91,2.16,4.89,4.89,0,0,1-1.23.12H188v-0.13Z"/><path class="cls-1" d="M251,96.72q18.65,0,37.29,0a3.07,3.07,0,0,1,2,.63,2.91,2.91,0,0,1,.82,2.12,2.45,2.45,0,0,1-2.34,1.89,14.32,14.32,0,0,1-2.1,0q-36.18,0-72.35.07a6.67,6.67,0,0,1-2.4-.42,2,2,0,0,1-1.43-2.34,2.32,2.32,0,0,1,2.22-2c1.24-.05,2.48,0,3.72,0H251Z"/><path class="cls-1" d="M210.84,170.13c-1.44,0-2.48-1.13-2.55-3.21a7.14,7.14,0,0,0-2.66-5.24,7.93,7.93,0,0,0-5-2.12,4.13,4.13,0,0,1-2.24-1,1.73,1.73,0,0,1,.15-2.86,4.48,4.48,0,0,1,2.11-.88,8.36,8.36,0,0,0,7.18-5.13,9.22,9.22,0,0,0,.44-2,11.12,11.12,0,0,1,.52-2,2.06,2.06,0,0,1,2.31-1.48,2.72,2.72,0,0,1,2.12,2.17,6.48,6.48,0,0,1,.14,1.23,8.07,8.07,0,0,0,7.35,7.16c0.25,0,.5,0,0.74,0a3,3,0,0,1,2.49,2.56,2.67,2.67,0,0,1-2.65,2.33c-2.86,0-4.82,1.45-6.49,3.52a8.2,8.2,0,0,0-1.6,4.48C213,169.33,212.21,170.11,210.84,170.13Zm3.18-13c-1.26-1-2.27-1.91-3.32-2.72a1.32,1.32,0,0,0-.7.4c-2.31,2.2-2.31,2.21-.08,4.49a2.3,2.3,0,0,0,.44.42,0.77,0.77,0,0,0,.56.14C211.87,159.1,212.79,158.27,214,157.17Z"/><path class="cls-1" d="M149,137.49a2.78,2.78,0,0,1-2.35,2.64,17.66,17.66,0,0,0-4.43,1.41,8,8,0,0,0-3.9,6,15.82,15.82,0,0,1-.29,1.58,2.05,2.05,0,0,1-2.17,1.67,2.34,2.34,0,0,1-2-2.19,7.9,7.9,0,0,0-3.85-6.95,16.79,16.79,0,0,0-4.83-1.65c-1.18-.31-1.94-0.93-1.94-2a2,2,0,0,1,1.7-2.11c0.4-.08.81-0.18,1.22-0.22a8.35,8.35,0,0,0,5.53-3,7.71,7.71,0,0,0,2.15-5.13,2.79,2.79,0,0,1,2-2.63c1-.11,1.94.82,2.31,2.19a19.82,19.82,0,0,0,1.27,4.23,8.14,8.14,0,0,0,6.59,4.26,3.61,3.61,0,0,1,1.65.43A8.25,8.25,0,0,1,149,137.49Zm-9.9.45a5.59,5.59,0,0,0-.54-0.83c-0.53-.57-1.12-1.08-1.64-1.65a1.09,1.09,0,0,0-1.87,0c-0.5.54-1,1.09-1.52,1.6a1,1,0,0,0,0,1.7l1.65,1.64a1,1,0,0,0,1.68,0c0.53-.57,1.13-1.07,1.67-1.63A6.56,6.56,0,0,0,139.11,137.93Z"/><path class="cls-1" d="M180.39,96.68c7.18,0,14.36,0,21.54,0a2.83,2.83,0,0,1,2.39,1,1.87,1.87,0,0,1-.31,3,5,5,0,0,1-2.52.8q-20.93,0-41.85-.08a6.78,6.78,0,0,1-1.94-.24,2.28,2.28,0,0,1-1.73-2.4,2.42,2.42,0,0,1,2.37-2c1.73,0,3.47,0,5.2,0h16.84V96.68Z"/><path class="cls-1" d="M162.82,159.42H141a2.62,2.62,0,0,1-2.72-2.17A2.51,2.51,0,0,1,141,155l41.63-.07c0.78,0,1.57-.06,2.35,0a2.42,2.42,0,0,1,2.45,2.42,2.51,2.51,0,0,1-2.59,2.3H162.82v-0.14Z"/><path class="cls-1" d="M253.65,159.58h-17.2a2.4,2.4,0,1,1,0-4.74h34.4a2.62,2.62,0,0,1,2.85,2.35,2.69,2.69,0,0,1-2.7,2.37H253.65v0Z"/><path class="cls-1" d="M174.17,180.12c-4.95,0-9.9,0-14.85,0-1.66,0-2.81-.87-2.84-2.25a2.54,2.54,0,0,1,2.79-2.34l20.41,0c3.13,0,6.27,0,9.4-.06A2.65,2.65,0,0,1,192,178c-0.07,1.38-1.33,2.23-3,2.22-4.95,0-9.9,0-14.84,0v0Z"/><path class="cls-1" d="M171.85,140H156.74a2.29,2.29,0,0,1-2.29-1.74,2,2,0,0,1,1.3-2.49,4.85,4.85,0,0,1,1.9-.39q14.49-.07,29-0.08c1.88,0,3.26,1.08,3.23,2.52s-1.31,2.27-3.15,2.27H171.85V140Z"/><path class="cls-1" d="M237.22,119.39c0.37-4,3-6.65,6.81-6.9,3.67-.24,7,3.24,7,6.94a7.05,7.05,0,0,1-6.83,6.81A7.14,7.14,0,0,1,237.22,119.39Zm4.75,0a2.46,2.46,0,0,0,2.13,2.19,2.57,2.57,0,0,0,2.19-2.16,2.63,2.63,0,0,0-2.1-2.13A2.45,2.45,0,0,0,242,119.37Z"/><path class="cls-1" d="M268.61,121.78c-2.81,0-5.62,0-8.42,0a3.83,3.83,0,0,1-2-.33,3.37,3.37,0,0,1-1.5-2,3,3,0,0,1,1.36-2,3.92,3.92,0,0,1,2.13-.44q8.61,0,17.22,0a2.93,2.93,0,0,1,1.77.37,3.9,3.9,0,0,1,1.3,2,1.86,1.86,0,0,1-1.45,2,6.46,6.46,0,0,1-1.83.24c-2.85,0-5.7,0-8.55,0v0Z"/><path class="cls-2" d="M416.46,125.31a0.87,0.87,0,0,1-.21.1,2.84,2.84,0,0,1-.47.11l-0.15.15a7.59,7.59,0,0,1-.44,2.12l0,0.1h0a5.39,5.39,0,0,0,.09,4.64,3.34,3.34,0,0,1,.29,1.84,1.65,1.65,0,0,0,.12,1,0.89,0.89,0,0,1,.31.48,15.59,15.59,0,0,1,.37,1.84,10.05,10.05,0,0,0,.52,2.18,0.86,0.86,0,0,1,.58.39l0.52,0.83a0.88,0.88,0,0,1,0,.89,0.85,0.85,0,0,1-.21.21c0.34,1.4.53,1.84,1.82,1.69a0.88,0.88,0,0,1,.51.1,10.93,10.93,0,0,1,4.34,4.67,7.11,7.11,0,0,0,3.68,3.68l0.1,0.06c1.87,1.22,2.59,3.06,3.29,4.84l0.26,0.65a0.87,0.87,0,0,1,.06.35,14.41,14.41,0,0,0,.72,5.31,4.15,4.15,0,0,0,.76,1.63,6.9,6.9,0,0,0,1.4-1,3.77,3.77,0,0,1,3.65-.51,9.46,9.46,0,0,1,.9.31,2.14,2.14,0,0,0,1.78.22,0.88,0.88,0,0,1,.67,0,4.34,4.34,0,0,1,2.87,2.75,0.88,0.88,0,0,1-.16.83,0.3,0.3,0,0,0,0,.45,0.88,0.88,0,0,1,0,.87l-1.25,2.47a0.87,0.87,0,0,1-.42.4,0.79,0.79,0,0,0-.08.5,2.16,2.16,0,0,1-.51,1.79,3,3,0,0,0-.3,1,6.12,6.12,0,0,1-.28,1,2.92,2.92,0,0,1-1.14,2.52,0.86,0.86,0,0,1-.28.14l0,0.14-0.08.27a2,2,0,0,1-.83,1.79,1.12,1.12,0,0,0-.1,1.82c0.4,0.5.75,1,1.11,1.53a12.27,12.27,0,0,0,2.57,3,0.88,0.88,0,0,1,.33.52,2,2,0,0,1,.5.27,0.88,0.88,0,0,1,.27.35,2.41,2.41,0,0,0,.3.3,0.87,0.87,0,0,1,.36.31,0.92,0.92,0,0,1,.15.4,1.78,1.78,0,0,0,.78,1.2,0.86,0.86,0,0,1,.51-0.27,2.05,2.05,0,0,1,2.37,1.23,0.88,0.88,0,0,1-.08.83,0.86,0.86,0,0,1-.21.19l0.06,0.06a7.34,7.34,0,0,0,1.36.42,5.64,5.64,0,0,1,2.68,1.19l0.11,0.11,0.08,0.11c0.24,0.37.45,0.76,0.66,1.14a4.88,4.88,0,0,0,2,2.35c1.79,0.9,1.75,2.53,1.71,3.73a3.13,3.13,0,0,0,.24,1.74,2.5,2.5,0,0,1,.47,1.22,1.83,1.83,0,0,0,.11.44,0.87,0.87,0,0,1,.27.29l0,0.09a4.5,4.5,0,0,1-.06,4,0.86,0.86,0,0,1-.12.17l-0.58.66c-0.48.62-.4,0.74,0.41,1.46a3.58,3.58,0,0,1,1.18,1.55,0.82,0.82,0,0,1,0,.19,3.77,3.77,0,0,0,1.62,2.46,4.13,4.13,0,0,0,2.22.2,0.85,0.85,0,0,1,.5-0.33h0s0,0,0-.12a0.87,0.87,0,0,1,.7-0.66A1.61,1.61,0,0,1,464,215c1.5-2.88,4.17-3,6.32-2.77a0.87,0.87,0,0,1,.55.28,4.72,4.72,0,0,0,.68.59,40.74,40.74,0,0,1,4.14,2.12c1.13,0.64,1.67.68,2.23,0.18s0.7-1.2.4-2.35a8.23,8.23,0,0,0-.3-0.88,6.13,6.13,0,0,1-.49-2,12.11,12.11,0,0,1-.34-1.58,0.88,0.88,0,0,1,.78-1l0.43,0a5.14,5.14,0,0,0,.59-0.07,6.41,6.41,0,0,1,.56-0.35v0a0.88,0.88,0,0,1,.67-0.46,0.93,0.93,0,0,1,.74-0.72s0,0,.06-0.11a0.88,0.88,0,0,1,.84-0.69l2.92,0a2.44,2.44,0,0,0,.68-0.29c0.43-.36.59-0.78,0-1.9a4.41,4.41,0,0,1-.52-2.38,6.57,6.57,0,0,1,.79-2.66,0.88,0.88,0,0,1,.57-0.46,0.32,0.32,0,0,0,.11,0,0.94,0.94,0,0,1,.47-0.65,3.24,3.24,0,0,0,0-.49,2.27,2.27,0,0,1-.37-3.07,6.67,6.67,0,0,0,.54-2.19,7.09,7.09,0,0,1,1-3.28l0,0h0a0.86,0.86,0,0,1,.14-0.15c0.41-.36.39-0.75,0.24-1.68a3.54,3.54,0,0,1,.32-2.73,0.88,0.88,0,0,1,.18-0.22,0.87,0.87,0,0,1,.18-0.13,7.14,7.14,0,0,0,2.72-2.69,0.89,0.89,0,0,1,.1-0.16l0.06-.07a16.84,16.84,0,0,0,2.39-3.83,18.29,18.29,0,0,1,2.73-4.25,15,15,0,0,0,.54-1.84,11.54,11.54,0,0,1-.3-3.61,12.45,12.45,0,0,0-.1-2.56q-0.19-.21-0.4-0.39a0.87,0.87,0,0,1-.28-0.27,0.9,0.9,0,0,1-.13-0.35,5.25,5.25,0,0,0-.41-1,3.69,3.69,0,0,1-.33-3.38v0a4.94,4.94,0,0,0,.25-2.1c0-1.36,0-3,1.51-4.22,0.19-11,.17-22.23.16-33.08,0-8.43,0-17.14.06-25.71a4.42,4.42,0,0,0-.13-0.83,3.38,3.38,0,0,1,.35-2.91,17.6,17.6,0,0,0-.51-2,18.25,18.25,0,0,1-1.25-3.86A11.2,11.2,0,0,0,494.45,79c-2.19-2.7-3-5.69-2.48-9.69a10.16,10.16,0,0,0,0-1.95l0-.38V66.79a3.36,3.36,0,0,0-1.81-.14c-0.35,0-.69.06-1,0.06-4.43,0-8.85,0-13.28,0H433.91l0.3,0.3,0.12,0.1h0l0,0a6.57,6.57,0,0,0,.61.62l0.07,0.06a9.71,9.71,0,0,0,1.33.91c0.27,0.16.54,0.33,0.8,0.51a0.87,0.87,0,0,1,.27.2h0a2.85,2.85,0,0,1,.6,2.16,1.61,1.61,0,0,0,.1.88h0a25.3,25.3,0,0,0,4.25,2.85l0.16,0.09a0.88,0.88,0,0,1,.32.22l0,0a3,3,0,0,1,.58,2.1,4,4,0,0,0,0,.6,4.29,4.29,0,0,1,0,2.88,4.89,4.89,0,0,0,0,.84,3.74,3.74,0,0,1-.46,2.35l-0.07.11,0,0h0l-0.12.11a6.47,6.47,0,0,0-.62.61l-0.05.06-0.08.08a8.3,8.3,0,0,0-.64.63l-0.05.07-0.19.22a2,2,0,0,0-.25.31c-0.57,4.06-3,6.71-7.74,8.31l-0.1,0c-0.26.1-.51,0.23-0.77,0.35a5.12,5.12,0,0,1-3.07.73c-3-.51-4.65.56-5.54,3.56a0.87,0.87,0,0,1-.13.37l-0.05.07c-0.33.44-.29,0.6,0.31,1.39,0.16,0.21.32,0.42,0.46,0.64,3,3,3.2,4.38.91,8.64a0.85,0.85,0,0,1-.09.17,0.92,0.92,0,0,1-.17.18,7.44,7.44,0,0,0-.56.55c-0.13.37-.24,0.74-0.36,1.11-0.82,2.61-1.75,5.57-5.51,6.29a3,3,0,0,1-.85.35,2.22,2.22,0,0,0-.34.12,2.45,2.45,0,0,0,.19,1.6C417.88,122.32,418.42,124,416.46,125.31Z"/><path class="cls-1" d="M83.87,165.81h-25a11.45,11.45,0,0,1-11.44-11.44v-25a11.45,11.45,0,0,1,11.44-11.44h25a11.45,11.45,0,0,1,11.44,11.44v25A11.45,11.45,0,0,1,83.87,165.81ZM58.05,122.46A6.09,6.09,0,0,0,52,128.55v26.63a6.09,6.09,0,0,0,6.09,6.09H84.68a6.09,6.09,0,0,0,6.09-6.09V128.55a6.09,6.09,0,0,0-6.09-6.09H58.05Z"/><path class="cls-1" d="M537.56,165.81h-25a11.45,11.45,0,0,1-11.44-11.44v-25a11.45,11.45,0,0,1,11.44-11.44h25A11.45,11.45,0,0,1,549,129.35v25A11.45,11.45,0,0,1,537.56,165.81Zm-25.82-43.35a6.09,6.09,0,0,0-6.09,6.09v26.63a6.09,6.09,0,0,0,6.09,6.09h26.63a6.09,6.09,0,0,0,6.09-6.09V128.55a6.09,6.09,0,0,0-6.09-6.09H511.73Z"/><path class="cls-3" d="M162.11,255.65h-0.05a0.12,0.12,0,0,1-.09-0.05,0.09,0.09,0,0,1,0-.07v-9a0.11,0.11,0,0,0-.09-0.11h-3a0.09,0.09,0,0,1-.07,0l0,0a0,0,0,0,0,0,0,0.22,0.22,0,0,1,0-.11v-2.39a0.17,0.17,0,0,1,.12-0.17h9.22a0.16,0.16,0,0,1,.12.05,0.06,0.06,0,0,1,0,0,0.13,0.13,0,0,1,0,.09v2.39a0.2,0.2,0,0,1-.05.14,0.13,0.13,0,0,1-.09,0h-3a0.08,0.08,0,0,0-.07,0,0.07,0.07,0,0,0,0,0v9a0.17,0.17,0,0,1-.09.11,0.13,0.13,0,0,1-.09,0h-2.74Z"/><path class="cls-3" d="M168.53,243.88a0.17,0.17,0,0,1,.18-0.17h7.82a0.17,0.17,0,0,1,.18.17v2.27a0.17,0.17,0,0,1-.18.18h-4.79a0.09,0.09,0,0,0-.11.11v1.81a0.09,0.09,0,0,0,.11.11h3.93a0.17,0.17,0,0,1,.18.17v2.21a0.17,0.17,0,0,1-.18.18h-3.93a0.09,0.09,0,0,0-.11.11v1.91a0.09,0.09,0,0,0,.11.11h4.79a0.17,0.17,0,0,1,.18.18v2.27a0.17,0.17,0,0,1-.18.18h-7.82a0.17,0.17,0,0,1-.18-0.18V243.88Z"/><path class="cls-3" d="M177.43,243.88a0.17,0.17,0,0,1,.18-0.17h2.74a0.17,0.17,0,0,1,.18.17v8.92a0.09,0.09,0,0,0,.11.1h5.06a0.17,0.17,0,0,1,.18.18v2.39a0.17,0.17,0,0,1-.18.18h-8.08a0.17,0.17,0,0,1-.18-0.18V243.88Z"/><path class="cls-3" d="M186.28,243.88a0.17,0.17,0,0,1,.18-0.17h7.82a0.17,0.17,0,0,1,.18.17v2.27a0.17,0.17,0,0,1-.18.18h-4.79a0.09,0.09,0,0,0-.11.11v1.81a0.09,0.09,0,0,0,.11.11h3.93a0.17,0.17,0,0,1,.18.17v2.21a0.17,0.17,0,0,1-.18.18h-3.93a0.09,0.09,0,0,0-.11.11v1.91a0.09,0.09,0,0,0,.11.11h4.79a0.17,0.17,0,0,1,.18.18v2.27a0.17,0.17,0,0,1-.18.18h-7.82a0.17,0.17,0,0,1-.18-0.18V243.88Z"/><path class="cls-3" d="M195.36,255.65a0.17,0.17,0,0,1-.18-0.18V243.88a0.17,0.17,0,0,1,.18-0.17h4.78c2.92,0,4.43,1.65,4.43,4s-1.53,4-4.43,4h-1.76a0.09,0.09,0,0,0-.11.1v3.71a0.17,0.17,0,0,1-.18.18h-2.74Zm6.11-8a1.32,1.32,0,0,0-1.51-1.35h-1.58a0.09,0.09,0,0,0-.11.11v2.51a0.09,0.09,0,0,0,.11.11H200A1.33,1.33,0,0,0,201.47,247.68Z"/><path class="cls-3" d="M205.12,252.93a15.21,15.21,0,0,1,0-6.5,4.89,4.89,0,0,1,9,0,15.19,15.19,0,0,1,0,6.5A4.89,4.89,0,0,1,205.12,252.93Zm6-.88a16.08,16.08,0,0,0,0-4.74,1.63,1.63,0,0,0-3.06,0,16.08,16.08,0,0,0,0,4.74A1.63,1.63,0,0,0,211.13,252.05Z"/><path class="cls-3" d="M221.61,255.65a0.24,0.24,0,0,1-.26-0.18l-1.81-4.07h-1.14a0.09,0.09,0,0,0-.11.11v4a0.17,0.17,0,0,1-.18.18h-2.74a0.17,0.17,0,0,1-.18-0.18V243.88a0.17,0.17,0,0,1,.18-0.17h4.86c2.74,0,4.3,1.6,4.3,3.85a3.56,3.56,0,0,1-2,3.34l2.2,4.55a0.14,0.14,0,0,1-.12.21h-3Zm-0.16-8.06a1.24,1.24,0,0,0-1.4-1.26h-1.65a0.09,0.09,0,0,0-.11.11v2.32a0.09,0.09,0,0,0,.11.11H220A1.24,1.24,0,0,0,221.45,247.59Z"/><path class="cls-3" d="M228,255.65h-0.05a0.12,0.12,0,0,1-.09-0.05,0.09,0.09,0,0,1,0-.07v-9a0.11,0.11,0,0,0-.09-0.11h-3a0.09,0.09,0,0,1-.07,0l0,0a0,0,0,0,0,0,0,0.22,0.22,0,0,1,0-.11v-2.39a0.17,0.17,0,0,1,.12-0.17h9.22a0.16,0.16,0,0,1,.12.05,0.06,0.06,0,0,1,0,0,0.13,0.13,0,0,1,0,.09v2.39a0.2,0.2,0,0,1-.05.14,0.13,0.13,0,0,1-.09,0h-3a0.08,0.08,0,0,0-.07,0,0.07,0.07,0,0,0,0,0v9a0.17,0.17,0,0,1-.09.11,0.13,0.13,0,0,1-.09,0H228Z"/><path class="cls-3" d="M239.94,255.65a0.17,0.17,0,0,1-.18-0.18V251l-3.62-7.13a0.14,0.14,0,0,1,.14-0.19H239a0.3,0.3,0,0,1,.28.17l2,4.08h0.05l2-4.08a0.29,0.29,0,0,1,.28-0.17h2.71a0.13,0.13,0,0,1,.14.19L242.85,251v4.44a0.17,0.17,0,0,1-.18.18h-2.74Z"/><path class="cls-3" d="M246.36,252.93a15.21,15.21,0,0,1,0-6.5,4.89,4.89,0,0,1,9,0,15.19,15.19,0,0,1,0,6.5A4.89,4.89,0,0,1,246.36,252.93Zm6-.88a16.08,16.08,0,0,0,0-4.74,1.63,1.63,0,0,0-3.06,0,16.08,16.08,0,0,0,0,4.74A1.63,1.63,0,0,0,252.37,252.05Z"/><path class="cls-3" d="M256.4,251v-7.15a0.17,0.17,0,0,1,.18-0.17h2.74a0.17,0.17,0,0,1,.18.17v7.34a1.65,1.65,0,0,0,1.67,1.88,1.62,1.62,0,0,0,1.65-1.88v-7.34a0.17,0.17,0,0,1,.18-0.17h2.74a0.17,0.17,0,0,1,.18.17V251c0,3.18-1.9,4.83-4.74,4.83S256.4,254.21,256.4,251Z"/><path class="cls-3" d="M273.33,255.65a0.24,0.24,0,0,1-.26-0.18l-1.81-4.07h-1.14a0.09,0.09,0,0,0-.11.11v4a0.17,0.17,0,0,1-.18.18h-2.74a0.17,0.17,0,0,1-.18-0.18V243.88a0.17,0.17,0,0,1,.18-0.17H272c2.74,0,4.3,1.6,4.3,3.85a3.56,3.56,0,0,1-2,3.34l2.2,4.55a0.14,0.14,0,0,1-.12.21h-3Zm-0.16-8.06a1.24,1.24,0,0,0-1.4-1.26h-1.65a0.09,0.09,0,0,0-.11.11v2.32a0.09,0.09,0,0,0,.11.11h1.65A1.24,1.24,0,0,0,273.17,247.59Z"/><path class="cls-3" d="M283.11,255.65a0.21,0.21,0,0,1-.23-0.18l-3.81-11.57a0.14,0.14,0,0,1,.16-0.19h2.88a0.21,0.21,0,0,1,.23.17l2.13,7.2h0.05l2.05-7.2a0.21,0.21,0,0,1,.23-0.17h2.86a0.14,0.14,0,0,1,.14.19L286,255.48a0.21,0.21,0,0,1-.23.18h-2.65Z"/><path class="cls-3" d="M289.79,252.93a15.21,15.21,0,0,1,0-6.5,4.89,4.89,0,0,1,9,0,15.19,15.19,0,0,1,0,6.5A4.89,4.89,0,0,1,289.79,252.93Zm6-.88a16.08,16.08,0,0,0,0-4.74,1.63,1.63,0,0,0-3.06,0,16.08,16.08,0,0,0,0,4.74A1.63,1.63,0,0,0,295.8,252.05Z"/><path class="cls-3" d="M302.29,255.65h-0.05a0.12,0.12,0,0,1-.09-0.05,0.09,0.09,0,0,1,0-.07v-9a0.11,0.11,0,0,0-.09-0.11h-3a0.09,0.09,0,0,1-.07,0l0,0a0,0,0,0,0,0,0,0.22,0.22,0,0,1,0-.11v-2.39a0.17,0.17,0,0,1,.12-0.17h9.22a0.16,0.16,0,0,1,.12.05,0.06,0.06,0,0,1,0,0,0.13,0.13,0,0,1,0,.09v2.39a0.2,0.2,0,0,1-.05.14,0.13,0.13,0,0,1-.09,0h-3a0.08,0.08,0,0,0-.07,0,0.07,0.07,0,0,0,0,0v9a0.17,0.17,0,0,1-.09.11,0.13,0.13,0,0,1-.09,0h-2.74Z"/><path class="cls-3" d="M308.72,243.88a0.17,0.17,0,0,1,.18-0.17h7.82a0.17,0.17,0,0,1,.18.17v2.27a0.17,0.17,0,0,1-.18.18h-4.79a0.09,0.09,0,0,0-.11.11v1.81a0.09,0.09,0,0,0,.11.11h3.93a0.17,0.17,0,0,1,.18.17v2.21a0.17,0.17,0,0,1-.18.18h-3.93a0.09,0.09,0,0,0-.11.11v1.91a0.09,0.09,0,0,0,.11.11h4.79a0.17,0.17,0,0,1,.18.18v2.27a0.17,0.17,0,0,1-.18.18h-7.82a0.17,0.17,0,0,1-.18-0.18V243.88Z"/><path class="cls-1" d="M323.34,255.65h-0.05a0.12,0.12,0,0,1-.09-0.05,0.09,0.09,0,0,1,0-.07v-9a0.11,0.11,0,0,0-.09-0.11h-3a0.09,0.09,0,0,1-.07,0l0,0a0,0,0,0,0,0,0,0.22,0.22,0,0,1,0-.11v-2.39a0.17,0.17,0,0,1,.12-0.17h9.22a0.16,0.16,0,0,1,.12.05,0.06,0.06,0,0,1,0,0,0.13,0.13,0,0,1,0,.09v2.39a0.2,0.2,0,0,1-.05.14,0.13,0.13,0,0,1-.09,0h-3a0.08,0.08,0,0,0-.07,0,0.07,0.07,0,0,0,0,0v9a0.17,0.17,0,0,1-.09.11,0.13,0.13,0,0,1-.09,0h-2.74Z"/><path class="cls-1" d="M329.63,252.93a15.21,15.21,0,0,1,0-6.5,4.89,4.89,0,0,1,9,0,15.19,15.19,0,0,1,0,6.5A4.89,4.89,0,0,1,329.63,252.93Zm6-.88a16.08,16.08,0,0,0,0-4.74,1.63,1.63,0,0,0-3.06,0,16.08,16.08,0,0,0,0,4.74A1.63,1.63,0,0,0,335.63,252.05Z"/><path class="cls-1" d="M346.34,243.88a0.23,0.23,0,0,1,.23-0.17h2.86a0.23,0.23,0,0,1,.23.17l4,11.59a0.12,0.12,0,0,1-.12.18h-2.9a0.23,0.23,0,0,1-.23-0.18l-0.56-1.84H346l-0.56,1.84a0.23,0.23,0,0,1-.23.18h-2.88a0.12,0.12,0,0,1-.12-0.18Zm2.77,7.18L348,247.34H348l-1.16,3.72h2.32Z"/><path class="cls-1" d="M356.75,254.16a0.18,0.18,0,0,1,0-.28l1.58-1.86a0.16,0.16,0,0,1,.25,0,4.79,4.79,0,0,0,3,1.19c1.11,0,1.69-.46,1.69-1.12,0-.51-0.33-0.84-1.51-1l-0.63-.09c-2.58-.37-4-1.53-4-3.76s1.74-3.72,4.44-3.72a7.2,7.2,0,0,1,4.27,1.32,0.18,0.18,0,0,1,0,.26L364.59,247a0.18,0.18,0,0,1-.25.05,4.82,4.82,0,0,0-2.69-.9,1.09,1.09,0,0,0-1.32,1c0,0.53.39,0.86,1.53,1l0.63,0.09c2.62,0.37,4,1.53,4,3.79s-1.69,3.83-4.88,3.83A7.51,7.51,0,0,1,356.75,254.16Z"/><path class="cls-1" d="M369.43,255.65h-0.05a0.12,0.12,0,0,1-.09-0.05,0.09,0.09,0,0,1,0-.07v-9a0.11,0.11,0,0,0-.09-0.11h-3a0.09,0.09,0,0,1-.07,0l0,0a0,0,0,0,0,0,0,0.22,0.22,0,0,1,0-.11v-2.39a0.17,0.17,0,0,1,.12-0.17h9.22a0.16,0.16,0,0,1,.12.05,0.06,0.06,0,0,1,0,0,0.13,0.13,0,0,1,0,.09v2.39a0.2,0.2,0,0,1-.05.14,0.13,0.13,0,0,1-.09,0h-3a0.08,0.08,0,0,0-.07,0,0.07,0.07,0,0,0,0,0v9a0.17,0.17,0,0,1-.09.11,0.13,0.13,0,0,1-.09,0h-2.74Z"/><path class="cls-1" d="M378,243.88a0.23,0.23,0,0,1,.23-0.17h2.86a0.23,0.23,0,0,1,.23.17l4,11.59a0.12,0.12,0,0,1-.12.18h-2.9a0.23,0.23,0,0,1-.23-0.18l-0.56-1.84h-3.88l-0.56,1.84a0.23,0.23,0,0,1-.23.18H374a0.12,0.12,0,0,1-.12-0.18Zm2.77,7.18-1.11-3.72H379.6l-1.16,3.72h2.32Z"/><path class="cls-1" d="M387,255.65H387a0.12,0.12,0,0,1-.09-0.05,0.09,0.09,0,0,1,0-.07v-9a0.11,0.11,0,0,0-.09-0.11h-3a0.09,0.09,0,0,1-.07,0l0,0a0,0,0,0,0,0,0,0.22,0.22,0,0,1,0-.11v-2.39a0.17,0.17,0,0,1,.12-0.17H393a0.16,0.16,0,0,1,.12.05,0.06,0.06,0,0,1,0,0,0.13,0.13,0,0,1,0,.09v2.39a0.2,0.2,0,0,1-.05.14,0.13,0.13,0,0,1-.09,0h-3a0.08,0.08,0,0,0-.07,0,0.07,0.07,0,0,0,0,0v9a0.17,0.17,0,0,1-.09.11,0.13,0.13,0,0,1-.09,0H387Z"/><path class="cls-1" d="M393.45,243.88a0.17,0.17,0,0,1,.18-0.17h7.82a0.17,0.17,0,0,1,.18.17v2.27a0.17,0.17,0,0,1-.18.18h-4.79a0.09,0.09,0,0,0-.11.11v1.81a0.09,0.09,0,0,0,.11.11h3.93a0.17,0.17,0,0,1,.18.17v2.21a0.17,0.17,0,0,1-.18.18h-3.93a0.09,0.09,0,0,0-.11.11v1.91a0.09,0.09,0,0,0,.11.11h4.79a0.17,0.17,0,0,1,.18.18v2.27a0.17,0.17,0,0,1-.18.18h-7.82a0.17,0.17,0,0,1-.18-0.18V243.88Z"/><path class="cls-1" d="M414.39,255.65a0.21,0.21,0,0,1-.23-0.18l-1.88-6.67h0l-1.9,6.67a0.21,0.21,0,0,1-.23.18h-2.2a0.21,0.21,0,0,1-.23-0.18l-3.25-11.59a0.13,0.13,0,0,1,.14-0.17h2.88a0.2,0.2,0,0,1,.23.17l1.55,7h0l1.86-7a0.21,0.21,0,0,1,.23-0.17h1.81a0.21,0.21,0,0,1,.23.17l1.91,7h0l1.49-7a0.2,0.2,0,0,1,.21-0.17h2.88a0.12,0.12,0,0,1,.12.17l-3.23,11.59a0.22,0.22,0,0,1-.25.18h-2.2Z"/><path class="cls-1" d="M420.31,243.88a0.17,0.17,0,0,1,.18-0.17h2.74a0.17,0.17,0,0,1,.18.17v4.23a0.09,0.09,0,0,0,.11.11h3.25a0.09,0.09,0,0,0,.11-0.11v-4.23a0.17,0.17,0,0,1,.18-0.17h2.74a0.17,0.17,0,0,1,.18.17v11.59a0.17,0.17,0,0,1-.18.18H427a0.17,0.17,0,0,1-.18-0.18v-4.41a0.09,0.09,0,0,0-.11-0.11H423.5a0.09,0.09,0,0,0-.11.11v4.41a0.17,0.17,0,0,1-.18.18h-2.74a0.17,0.17,0,0,1-.18-0.18V243.88Z"/><path class="cls-1" d="M431,243.88a0.17,0.17,0,0,1,.18-0.17H439a0.17,0.17,0,0,1,.18.17v2.27a0.17,0.17,0,0,1-.18.18h-4.79a0.09,0.09,0,0,0-.11.11v1.81a0.09,0.09,0,0,0,.11.11h3.93a0.17,0.17,0,0,1,.18.17v2.21a0.17,0.17,0,0,1-.18.18h-3.93a0.09,0.09,0,0,0-.11.11v1.91a0.09,0.09,0,0,0,.11.11H439a0.17,0.17,0,0,1,.18.18v2.27a0.17,0.17,0,0,1-.18.18h-7.82a0.17,0.17,0,0,1-.18-0.18V243.88Z"/><path class="cls-1" d="M446.31,255.65a0.24,0.24,0,0,1-.26-0.18l-1.81-4.07H443.1a0.09,0.09,0,0,0-.11.11v4a0.17,0.17,0,0,1-.18.18h-2.74a0.17,0.17,0,0,1-.18-0.18V243.88a0.17,0.17,0,0,1,.18-0.17h4.86c2.74,0,4.3,1.6,4.3,3.85a3.56,3.56,0,0,1-2,3.34l2.2,4.55a0.14,0.14,0,0,1-.12.21h-3Zm-0.16-8.06a1.24,1.24,0,0,0-1.4-1.26H443.1a0.09,0.09,0,0,0-.11.11v2.32a0.09,0.09,0,0,0,.11.11h1.65A1.24,1.24,0,0,0,446.15,247.59Z"/><path class="cls-1" d="M450.06,243.88a0.17,0.17,0,0,1,.18-0.17h7.82a0.17,0.17,0,0,1,.18.17v2.27a0.17,0.17,0,0,1-.18.18h-4.79a0.09,0.09,0,0,0-.11.11v1.81a0.09,0.09,0,0,0,.11.11h3.93a0.17,0.17,0,0,1,.18.17v2.21a0.17,0.17,0,0,1-.18.18h-3.93a0.09,0.09,0,0,0-.11.11v1.91a0.09,0.09,0,0,0,.11.11h4.79a0.17,0.17,0,0,1,.18.18v2.27a0.17,0.17,0,0,1-.18.18h-7.82a0.17,0.17,0,0,1-.18-0.18V243.88Z"/><path class="cls-1" d="M169.27,258.35a0.17,0.17,0,0,1,.18-0.17h2.74a0.17,0.17,0,0,1,.18.17v11.59a0.17,0.17,0,0,1-.18.18h-2.74a0.17,0.17,0,0,1-.18-0.18V258.35Z"/><path class="cls-1" d="M176,270.12H176a0.12,0.12,0,0,1-.09-0.05,0.09,0.09,0,0,1,0-.07v-9a0.11,0.11,0,0,0-.09-0.11h-3a0.09,0.09,0,0,1-.07,0l0,0a0,0,0,0,0,0,0,0.22,0.22,0,0,1,0-.11v-2.39a0.17,0.17,0,0,1,.12-0.17H182a0.16,0.16,0,0,1,.12.05,0.06,0.06,0,0,1,0,0,0.13,0.13,0,0,1,0,.09v2.39a0.2,0.2,0,0,1-.05.14,0.13,0.13,0,0,1-.09,0h-3a0.08,0.08,0,0,0-.07,0,0.07,0.07,0,0,0,0,0v9a0.17,0.17,0,0,1-.09.11,0.13,0.13,0,0,1-.09,0H176Z"/><path class="cls-1" d="M194.31,270.12a0.21,0.21,0,0,1-.23-0.18l-1.88-6.67h0l-1.9,6.67a0.21,0.21,0,0,1-.23.18h-2.2a0.21,0.21,0,0,1-.23-0.18l-3.25-11.59a0.13,0.13,0,0,1,.14-0.17h2.88a0.2,0.2,0,0,1,.23.17l1.55,7h0l1.86-7a0.21,0.21,0,0,1,.23-0.17h1.81a0.21,0.21,0,0,1,.23.17l1.91,7h0l1.49-7a0.2,0.2,0,0,1,.21-0.17h2.88a0.12,0.12,0,0,1,.12.17l-3.23,11.59a0.22,0.22,0,0,1-.25.18h-2.2Z"/><path class="cls-1" d="M200.07,267.4a15.21,15.21,0,0,1,0-6.5,4.89,4.89,0,0,1,9,0,15.19,15.19,0,0,1,0,6.5A4.89,4.89,0,0,1,200.07,267.4Zm6-.88a16.08,16.08,0,0,0,0-4.74,1.63,1.63,0,0,0-3.06,0,16.08,16.08,0,0,0,0,4.74A1.63,1.63,0,0,0,206.07,266.52Z"/><path class="cls-1" d="M210.14,258.35a0.17,0.17,0,0,1,.18-0.17h2.58a0.31,0.31,0,0,1,.3.17l3.6,6.76h0.07v-6.76a0.17,0.17,0,0,1,.18-0.17h2.46a0.17,0.17,0,0,1,.18.17v11.59a0.17,0.17,0,0,1-.18.18h-2.58a0.31,0.31,0,0,1-.3-0.18l-3.57-6.74H213v6.74a0.17,0.17,0,0,1-.18.18h-2.46a0.17,0.17,0,0,1-.18-0.18V258.35Z"/><path class="cls-1" d="M220.75,262v-3.6a0.17,0.17,0,0,1,.18-0.17h1.7a0.17,0.17,0,0,1,.18.17V262a0.17,0.17,0,0,1-.18.18h-1.7A0.17,0.17,0,0,1,220.75,262Z"/><path class="cls-1" d="M227.12,270.12h-0.05a0.12,0.12,0,0,1-.09-0.05,0.09,0.09,0,0,1,0-.07v-9a0.11,0.11,0,0,0-.09-0.11h-3a0.09,0.09,0,0,1-.07,0l0,0a0,0,0,0,0,0,0,0.22,0.22,0,0,1,0-.11v-2.39a0.17,0.17,0,0,1,.12-0.17h9.22a0.16,0.16,0,0,1,.12.05,0.06,0.06,0,0,1,0,0,0.13,0.13,0,0,1,0,.09v2.39a0.2,0.2,0,0,1-.05.14,0.13,0.13,0,0,1-.09,0h-3a0.08,0.08,0,0,0-.07,0,0.07,0.07,0,0,0,0,0v9a0.17,0.17,0,0,1-.09.11,0.13,0.13,0,0,1-.09,0h-2.74Z"/><path class="cls-1" d="M236.63,258.35a0.17,0.17,0,0,1,.18-0.17h2.74a0.17,0.17,0,0,1,.18.17v11.59a0.17,0.17,0,0,1-.18.18h-2.74a0.17,0.17,0,0,1-.18-0.18V258.35Z"/><path class="cls-1" d="M240.78,258.35a0.17,0.17,0,0,1,.18-0.17h2.58a0.31,0.31,0,0,1,.3.17l3.6,6.76h0.07v-6.76a0.17,0.17,0,0,1,.18-0.17h2.46a0.17,0.17,0,0,1,.18.17v11.59a0.17,0.17,0,0,1-.18.18h-2.58a0.31,0.31,0,0,1-.3-0.18l-3.57-6.74h-0.11v6.74a0.17,0.17,0,0,1-.18.18H241a0.17,0.17,0,0,1-.18-0.18V258.35Z"/><path class="cls-1" d="M251.36,258.35a0.17,0.17,0,0,1,.18-0.17h4.62c2.11,0,3.65.88,4.25,2.72a15.19,15.19,0,0,1,0,6.5c-0.6,1.84-2.14,2.72-4.25,2.72h-4.62a0.17,0.17,0,0,1-.18-0.18V258.35Zm3.2,9h0.93a1.72,1.72,0,0,0,2-1.14,12.51,12.51,0,0,0,0-4.18,1.72,1.72,0,0,0-2-1.14h-0.93a0.09,0.09,0,0,0-.11.11v6.25A0.09,0.09,0,0,0,254.56,267.38Z"/><path class="cls-1" d="M261.56,258.35a0.17,0.17,0,0,1,.18-0.17h2.74a0.17,0.17,0,0,1,.18.17v11.59a0.17,0.17,0,0,1-.18.18h-2.74a0.17,0.17,0,0,1-.18-0.18V258.35Z"/><path class="cls-1" d="M272.12,270.12a0.24,0.24,0,0,1-.26-0.18L270,265.87H268.9a0.09,0.09,0,0,0-.11.11v4a0.17,0.17,0,0,1-.18.18h-2.74a0.17,0.17,0,0,1-.18-0.18V258.35a0.17,0.17,0,0,1,.18-0.17h4.86c2.74,0,4.3,1.6,4.3,3.85a3.56,3.56,0,0,1-2,3.34l2.2,4.55a0.14,0.14,0,0,1-.12.21h-3ZM272,262.06a1.24,1.24,0,0,0-1.4-1.26H268.9a0.09,0.09,0,0,0-.11.11v2.32a0.09,0.09,0,0,0,.11.11h1.65A1.24,1.24,0,0,0,272,262.06Z"/><path class="cls-1" d="M275.87,258.35a0.17,0.17,0,0,1,.18-0.17h7.82a0.17,0.17,0,0,1,.18.17v2.27a0.17,0.17,0,0,1-.18.18h-4.79a0.09,0.09,0,0,0-.11.11v1.81a0.09,0.09,0,0,0,.11.11H283a0.17,0.17,0,0,1,.18.17v2.21a0.17,0.17,0,0,1-.18.18h-3.93a0.09,0.09,0,0,0-.11.11v1.91a0.09,0.09,0,0,0,.11.11h4.79a0.17,0.17,0,0,1,.18.18v2.27a0.17,0.17,0,0,1-.18.18H276a0.17,0.17,0,0,1-.18-0.18V258.35Z"/><path class="cls-1" d="M284.49,264.15a9.25,9.25,0,0,1,.35-3.23,4.17,4.17,0,0,1,4.34-3,4.27,4.27,0,0,1,4.29,2.72,0.16,0.16,0,0,1-.09.25L291,262a0.16,0.16,0,0,1-.25-0.11,1.62,1.62,0,0,0-1.56-1.12,1.38,1.38,0,0,0-1.44,1,16.32,16.32,0,0,0,0,4.78,1.38,1.38,0,0,0,1.44,1,1.62,1.62,0,0,0,1.56-1.12,0.16,0.16,0,0,1,.25-0.11l2.34,1a0.16,0.16,0,0,1,.09.25,4.27,4.27,0,0,1-4.29,2.72,4.17,4.17,0,0,1-4.34-3A9.25,9.25,0,0,1,284.49,264.15Z"/><path class="cls-1" d="M296.61,270.12h-0.05a0.12,0.12,0,0,1-.09-0.05,0.09,0.09,0,0,1,0-.07v-9a0.11,0.11,0,0,0-.09-0.11h-3a0.09,0.09,0,0,1-.07,0l0,0a0,0,0,0,0,0,0,0.22,0.22,0,0,1,0-.11v-2.39a0.17,0.17,0,0,1,.12-0.17h9.22a0.16,0.16,0,0,1,.12.05,0.06,0.06,0,0,1,0,0,0.13,0.13,0,0,1,0,.09v2.39a0.2,0.2,0,0,1-.05.14,0.13,0.13,0,0,1-.09,0h-3a0.08,0.08,0,0,0-.07,0,0.07,0.07,0,0,0,0,0v9a0.17,0.17,0,0,1-.09.11,0.13,0.13,0,0,1-.09,0h-2.74Z"/><path class="cls-1" d="M303,258.35a0.17,0.17,0,0,1,.18-0.17h2.74a0.17,0.17,0,0,1,.18.17v8.92a0.09,0.09,0,0,0,.11.1h5.06a0.17,0.17,0,0,1,.18.18v2.39a0.17,0.17,0,0,1-.18.18h-8.08a0.17,0.17,0,0,1-.18-0.18V258.35Z"/><path class="cls-1" d="M313.14,270.12a0.17,0.17,0,0,1-.18-0.18V265.5l-3.62-7.13a0.14,0.14,0,0,1,.14-0.19h2.76a0.3,0.3,0,0,1,.28.17l2,4.08h0.05l2-4.08a0.29,0.29,0,0,1,.28-0.17h2.71a0.13,0.13,0,0,1,.14.19l-3.62,7.13v4.44a0.17,0.17,0,0,1-.18.18h-2.74Z"/><path class="cls-1" d="M322.68,258.35a0.17,0.17,0,0,1,.18-0.17h2.74a0.17,0.17,0,0,1,.18.17v4.23a0.09,0.09,0,0,0,.11.11h3.25a0.09,0.09,0,0,0,.11-0.11v-4.23a0.17,0.17,0,0,1,.18-0.17h2.74a0.17,0.17,0,0,1,.18.17v11.59a0.17,0.17,0,0,1-.18.18H329.4a0.17,0.17,0,0,1-.18-0.18v-4.41a0.09,0.09,0,0,0-.11-0.11h-3.25a0.09,0.09,0,0,0-.11.11v4.41a0.17,0.17,0,0,1-.18.18h-2.74a0.17,0.17,0,0,1-.18-0.18V258.35Z"/><path class="cls-1" d="M333.37,258.35a0.17,0.17,0,0,1,.18-0.17h7.82a0.17,0.17,0,0,1,.18.17v2.27a0.17,0.17,0,0,1-.18.18h-4.79a0.09,0.09,0,0,0-.11.11v1.81a0.09,0.09,0,0,0,.11.11h3.93a0.17,0.17,0,0,1,.18.17v2.21a0.17,0.17,0,0,1-.18.18h-3.93a0.09,0.09,0,0,0-.11.11v1.91a0.09,0.09,0,0,0,.11.11h4.79a0.17,0.17,0,0,1,.18.18v2.27a0.17,0.17,0,0,1-.18.18h-7.82a0.17,0.17,0,0,1-.18-0.18V258.35Z"/><path class="cls-1" d="M342.27,258.35a0.17,0.17,0,0,1,.18-0.17h2.74a0.17,0.17,0,0,1,.18.17v8.92a0.09,0.09,0,0,0,.11.1h5.06a0.17,0.17,0,0,1,.18.18v2.39a0.17,0.17,0,0,1-.18.18h-8.08a0.17,0.17,0,0,1-.18-0.18V258.35Z"/><path class="cls-1" d="M351.29,270.12a0.17,0.17,0,0,1-.18-0.18V258.35a0.17,0.17,0,0,1,.18-0.17h4.78c2.92,0,4.43,1.65,4.43,4s-1.53,4-4.43,4h-1.76a0.09,0.09,0,0,0-.11.1v3.71a0.17,0.17,0,0,1-.18.18h-2.74Zm6.11-8a1.32,1.32,0,0,0-1.51-1.35h-1.58a0.09,0.09,0,0,0-.11.11v2.51a0.09,0.09,0,0,0,.11.11h1.58A1.33,1.33,0,0,0,357.4,262.15Z"/><path class="cls-4" d="M366.71,270.12h-0.05a0.12,0.12,0,0,1-.09-0.05,0.09,0.09,0,0,1,0-.07v-9a0.11,0.11,0,0,0-.09-0.11h-3a0.09,0.09,0,0,1-.07,0l0,0a0,0,0,0,0,0,0,0.22,0.22,0,0,1,0-.11v-2.39a0.17,0.17,0,0,1,.12-0.17h9.22a0.16,0.16,0,0,1,.12.05,0.06,0.06,0,0,1,0,0,0.13,0.13,0,0,1,0,.09v2.39a0.2,0.2,0,0,1-.05.14,0.13,0.13,0,0,1-.09,0h-3a0.08,0.08,0,0,0-.07,0,0.07,0.07,0,0,0,0,0v9a0.17,0.17,0,0,1-.09.11,0.13,0.13,0,0,1-.09,0h-2.74Z"/><path class="cls-4" d="M379.54,270.12a0.24,0.24,0,0,1-.26-0.18l-1.81-4.07h-1.14a0.09,0.09,0,0,0-.11.11v4a0.17,0.17,0,0,1-.18.18h-2.74a0.17,0.17,0,0,1-.18-0.18V258.35a0.17,0.17,0,0,1,.18-0.17h4.86c2.74,0,4.3,1.6,4.3,3.85a3.56,3.56,0,0,1-2,3.34l2.2,4.55a0.14,0.14,0,0,1-.12.21h-3Zm-0.16-8.06a1.24,1.24,0,0,0-1.4-1.26h-1.65a0.09,0.09,0,0,0-.11.11v2.32a0.09,0.09,0,0,0,.11.11H378A1.24,1.24,0,0,0,379.38,262.06Z"/><path class="cls-4" d="M383.26,265.5v-7.15a0.17,0.17,0,0,1,.18-0.17h2.74a0.17,0.17,0,0,1,.18.17v7.34a1.65,1.65,0,0,0,1.67,1.88,1.62,1.62,0,0,0,1.65-1.88v-7.34a0.17,0.17,0,0,1,.18-0.17h2.74a0.17,0.17,0,0,1,.18.17v7.15c0,3.18-1.9,4.83-4.74,4.83S383.26,268.68,383.26,265.5Z"/><path class="cls-4" d="M393.78,258.35a0.17,0.17,0,0,1,.18-0.17h2.6a0.29,0.29,0,0,1,.3.17l2.76,6.24h0.07l2.69-6.24a0.28,0.28,0,0,1,.3-0.17h2.56a0.17,0.17,0,0,1,.18.17v11.59a0.17,0.17,0,0,1-.18.18h-2.44a0.17,0.17,0,0,1-.18-0.18V263.8h-0.09l-1.91,4.46a0.37,0.37,0,0,1-.33.23h-1.37a0.39,0.39,0,0,1-.33-0.23l-1.91-4.46h-0.09v6.15a0.17,0.17,0,0,1-.18.18H394a0.17,0.17,0,0,1-.18-0.18V258.35Z"/><path class="cls-4" d="M406.63,270.12a0.17,0.17,0,0,1-.18-0.18V258.35a0.17,0.17,0,0,1,.18-0.17h4.78c2.92,0,4.43,1.65,4.43,4s-1.53,4-4.43,4h-1.76a0.09,0.09,0,0,0-.11.1v3.71a0.17,0.17,0,0,1-.18.18h-2.74Zm6.11-8a1.32,1.32,0,0,0-1.51-1.35h-1.58a0.09,0.09,0,0,0-.11.11v2.51a0.09,0.09,0,0,0,.11.11h1.58A1.33,1.33,0,0,0,412.74,262.15Z"/><path class="cls-1" d="M428.37,270.12a0.21,0.21,0,0,1-.23-0.18l-1.88-6.67h0l-1.9,6.67a0.21,0.21,0,0,1-.23.18h-2.2a0.21,0.21,0,0,1-.23-0.18l-3.25-11.59a0.13,0.13,0,0,1,.14-0.17h2.88a0.2,0.2,0,0,1,.23.17l1.55,7h0l1.86-7a0.21,0.21,0,0,1,.23-0.17h1.81a0.21,0.21,0,0,1,.23.17l1.91,7h0l1.49-7a0.2,0.2,0,0,1,.21-0.17h2.88a0.12,0.12,0,0,1,.12.17l-3.23,11.59a0.22,0.22,0,0,1-.25.18h-2.2Z"/><path class="cls-1" d="M434.28,258.35a0.17,0.17,0,0,1,.18-0.17h2.74a0.17,0.17,0,0,1,.18.17v11.59a0.17,0.17,0,0,1-.18.18h-2.74a0.17,0.17,0,0,1-.18-0.18V258.35Z"/><path class="cls-1" d="M438.42,258.35a0.17,0.17,0,0,1,.18-0.17h2.58a0.31,0.31,0,0,1,.3.17l3.6,6.76h0.07v-6.76a0.17,0.17,0,0,1,.18-0.17h2.46a0.17,0.17,0,0,1,.18.17v11.59a0.17,0.17,0,0,1-.18.18H445.2a0.31,0.31,0,0,1-.3-0.18l-3.57-6.74h-0.11v6.74a0.17,0.17,0,0,1-.18.18H438.6a0.17,0.17,0,0,1-.18-0.18V258.35Z"/><path class="cls-1" d="M449,267.52a0.17,0.17,0,0,1,.18-0.18h2.44a0.17,0.17,0,0,1,.18.18v2.42a0.17,0.17,0,0,1-.18.18h-2.44a0.17,0.17,0,0,1-.18-0.18v-2.42Z"/><path class="cls-3" d="M123.95,33.29h-0.05a0.12,0.12,0,0,1-.09-0.05,0.09,0.09,0,0,1,0-.07v-9a0.11,0.11,0,0,0-.09-0.11h-3a0.09,0.09,0,0,1-.07,0l0,0a0,0,0,0,0,0,0,0.22,0.22,0,0,1,0-.11V21.52a0.17,0.17,0,0,1,.12-0.17h9.22a0.16,0.16,0,0,1,.12.05,0.06,0.06,0,0,1,0,0,0.13,0.13,0,0,1,0,.09v2.39a0.2,0.2,0,0,1-.05.14,0.13,0.13,0,0,1-.09,0h-3a0.08,0.08,0,0,0-.07,0,0.07,0.07,0,0,0,0,0v9a0.17,0.17,0,0,1-.09.11,0.13,0.13,0,0,1-.09,0h-2.74Z"/><path class="cls-3" d="M130.37,21.52a0.17,0.17,0,0,1,.18-0.17h7.82a0.17,0.17,0,0,1,.18.17v2.27a0.17,0.17,0,0,1-.18.18h-4.79a0.09,0.09,0,0,0-.11.11v1.81a0.09,0.09,0,0,0,.11.1h3.93a0.17,0.17,0,0,1,.18.18v2.21a0.17,0.17,0,0,1-.18.18h-3.93a0.09,0.09,0,0,0-.11.11v1.91a0.09,0.09,0,0,0,.11.11h4.79a0.17,0.17,0,0,1,.18.18v2.27a0.17,0.17,0,0,1-.18.18h-7.82a0.17,0.17,0,0,1-.18-0.18V21.52Z"/><path class="cls-3" d="M139.27,21.52a0.17,0.17,0,0,1,.18-0.17h2.74a0.17,0.17,0,0,1,.18.17v8.92a0.09,0.09,0,0,0,.11.1h5.06a0.17,0.17,0,0,1,.18.18v2.39a0.17,0.17,0,0,1-.18.18h-8.08a0.17,0.17,0,0,1-.18-0.18V21.52Z"/><path class="cls-3" d="M148.12,21.52a0.17,0.17,0,0,1,.18-0.17h7.82a0.17,0.17,0,0,1,.18.17v2.27a0.17,0.17,0,0,1-.18.18h-4.79a0.09,0.09,0,0,0-.11.11v1.81a0.09,0.09,0,0,0,.11.1h3.93a0.17,0.17,0,0,1,.18.18v2.21a0.17,0.17,0,0,1-.18.18h-3.93a0.09,0.09,0,0,0-.11.11v1.91a0.09,0.09,0,0,0,.11.11h4.79a0.17,0.17,0,0,1,.18.18v2.27a0.17,0.17,0,0,1-.18.18h-7.82a0.17,0.17,0,0,1-.18-0.18V21.52Z"/><path class="cls-3" d="M157.2,33.29a0.17,0.17,0,0,1-.18-0.18V21.52a0.17,0.17,0,0,1,.18-0.17H162c2.92,0,4.43,1.65,4.43,4s-1.53,4-4.43,4h-1.76a0.09,0.09,0,0,0-.11.1v3.71a0.17,0.17,0,0,1-.18.18H157.2Zm6.11-8A1.32,1.32,0,0,0,161.8,24h-1.58a0.09,0.09,0,0,0-.11.11v2.51a0.09,0.09,0,0,0,.11.11h1.58A1.33,1.33,0,0,0,163.31,25.32Z"/><path class="cls-3" d="M167,30.57a9.81,9.81,0,0,1-.35-3.25,9.81,9.81,0,0,1,.35-3.25,4.89,4.89,0,0,1,9,0,9.35,9.35,0,0,1,.35,3.25,9.34,9.34,0,0,1-.35,3.25A4.89,4.89,0,0,1,167,30.57Zm6-.88a7.91,7.91,0,0,0,.18-2.37,7.92,7.92,0,0,0-.18-2.37,1.63,1.63,0,0,0-3.06,0,7.92,7.92,0,0,0-.18,2.37,7.91,7.91,0,0,0,.18,2.37A1.63,1.63,0,0,0,173,29.69Z"/><path class="cls-3" d="M183.44,33.29a0.24,0.24,0,0,1-.26-0.18L181.37,29h-1.14a0.09,0.09,0,0,0-.11.11v4a0.17,0.17,0,0,1-.18.18h-2.74a0.17,0.17,0,0,1-.18-0.18V21.52a0.17,0.17,0,0,1,.18-0.17h4.86c2.74,0,4.3,1.6,4.3,3.85a3.56,3.56,0,0,1-2,3.34l2.2,4.55a0.14,0.14,0,0,1-.12.21h-3Zm-0.16-8.06a1.24,1.24,0,0,0-1.4-1.26h-1.65a0.09,0.09,0,0,0-.11.11v2.32a0.09,0.09,0,0,0,.11.11h1.65A1.24,1.24,0,0,0,183.29,25.23Z"/><path class="cls-3" d="M189.82,33.29h-0.05a0.12,0.12,0,0,1-.09-0.05,0.09,0.09,0,0,1,0-.07v-9a0.11,0.11,0,0,0-.09-0.11h-3a0.09,0.09,0,0,1-.07,0l0,0a0,0,0,0,0,0,0,0.22,0.22,0,0,1,0-.11V21.52a0.17,0.17,0,0,1,.12-0.17h9.22a0.16,0.16,0,0,1,.12.05,0.06,0.06,0,0,1,0,0,0.13,0.13,0,0,1,0,.09v2.39a0.2,0.2,0,0,1-.05.14,0.13,0.13,0,0,1-.09,0h-3a0.08,0.08,0,0,0-.07,0,0.07,0.07,0,0,0,0,0v9a0.17,0.17,0,0,1-.09.11,0.13,0.13,0,0,1-.09,0h-2.74Z"/><path class="cls-3" d="M201.77,33.29a0.17,0.17,0,0,1-.18-0.18V28.67L198,21.54a0.14,0.14,0,0,1,.14-0.19h2.76a0.3,0.3,0,0,1,.28.17l2,4.08h0.05l2-4.08a0.29,0.29,0,0,1,.28-0.17h2.71a0.13,0.13,0,0,1,.14.19l-3.62,7.13v4.44a0.17,0.17,0,0,1-.18.18h-2.74Z"/><path class="cls-3" d="M208.2,30.57a9.81,9.81,0,0,1-.35-3.25,9.81,9.81,0,0,1,.35-3.25,4.89,4.89,0,0,1,9,0,9.35,9.35,0,0,1,.35,3.25,9.34,9.34,0,0,1-.35,3.25A4.89,4.89,0,0,1,208.2,30.57Zm6-.88a7.91,7.91,0,0,0,.18-2.37,7.92,7.92,0,0,0-.18-2.37,1.63,1.63,0,0,0-3.06,0,7.92,7.92,0,0,0-.18,2.37,7.91,7.91,0,0,0,.18,2.37A1.63,1.63,0,0,0,214.2,29.69Z"/><path class="cls-3" d="M218.24,28.67V21.52a0.17,0.17,0,0,1,.18-0.17h2.74a0.17,0.17,0,0,1,.18.17v7.34A1.65,1.65,0,0,0,223,30.74a1.62,1.62,0,0,0,1.65-1.88V21.52a0.17,0.17,0,0,1,.18-0.17h2.74a0.17,0.17,0,0,1,.18.17v7.15c0,3.18-1.9,4.83-4.74,4.83S218.24,31.85,218.24,28.67Z"/><path class="cls-3" d="M235.16,33.29a0.24,0.24,0,0,1-.26-0.18L233.09,29H232a0.09,0.09,0,0,0-.11.11v4a0.17,0.17,0,0,1-.18.18h-2.74a0.17,0.17,0,0,1-.18-0.18V21.52a0.17,0.17,0,0,1,.18-0.17h4.86c2.74,0,4.3,1.6,4.3,3.85a3.56,3.56,0,0,1-2,3.34l2.2,4.55a0.14,0.14,0,0,1-.12.21h-3ZM235,25.23A1.24,1.24,0,0,0,233.6,24H232a0.09,0.09,0,0,0-.11.11v2.32a0.09,0.09,0,0,0,.11.11h1.65A1.24,1.24,0,0,0,235,25.23Z"/><path class="cls-3" d="M244.94,33.29a0.21,0.21,0,0,1-.23-0.18L240.9,21.54a0.14,0.14,0,0,1,.16-0.19h2.88a0.21,0.21,0,0,1,.23.17l2.13,7.2h0.05l2.05-7.2a0.21,0.21,0,0,1,.23-0.17h2.86a0.14,0.14,0,0,1,.14.19l-3.81,11.57a0.21,0.21,0,0,1-.23.18h-2.65Z"/><path class="cls-3" d="M251.63,30.57a9.81,9.81,0,0,1-.35-3.25,9.81,9.81,0,0,1,.35-3.25,4.89,4.89,0,0,1,9,0,9.35,9.35,0,0,1,.35,3.25,9.34,9.34,0,0,1-.35,3.25A4.89,4.89,0,0,1,251.63,30.57Zm6-.88a7.91,7.91,0,0,0,.18-2.37,7.92,7.92,0,0,0-.18-2.37,1.63,1.63,0,0,0-3.06,0,7.92,7.92,0,0,0-.18,2.37,7.91,7.91,0,0,0,.18,2.37A1.63,1.63,0,0,0,257.64,29.69Z"/><path class="cls-3" d="M264.13,33.29h-0.05a0.12,0.12,0,0,1-.09-0.05,0.09,0.09,0,0,1,0-.07v-9a0.11,0.11,0,0,0-.09-0.11h-3a0.09,0.09,0,0,1-.07,0l0,0a0,0,0,0,0,0,0,0.22,0.22,0,0,1,0-.11V21.52a0.17,0.17,0,0,1,.12-0.17h9.22a0.16,0.16,0,0,1,.12.05,0.06,0.06,0,0,1,0,0,0.13,0.13,0,0,1,0,.09v2.39a0.2,0.2,0,0,1-.05.14,0.13,0.13,0,0,1-.09,0h-3a0.08,0.08,0,0,0-.07,0,0.07,0.07,0,0,0,0,0v9a0.17,0.17,0,0,1-.09.11,0.13,0.13,0,0,1-.09,0h-2.74Z"/><path class="cls-3" d="M270.56,21.52a0.17,0.17,0,0,1,.18-0.17h7.82a0.17,0.17,0,0,1,.18.17v2.27a0.17,0.17,0,0,1-.18.18h-4.79a0.09,0.09,0,0,0-.11.11v1.81a0.09,0.09,0,0,0,.11.1h3.93a0.17,0.17,0,0,1,.18.18v2.21a0.17,0.17,0,0,1-.18.18h-3.93a0.09,0.09,0,0,0-.11.11v1.91a0.09,0.09,0,0,0,.11.11h4.79a0.17,0.17,0,0,1,.18.18v2.27a0.17,0.17,0,0,1-.18.18h-7.82a0.17,0.17,0,0,1-.18-0.18V21.52Z"/><path class="cls-1" d="M285.18,33.29h-0.05a0.12,0.12,0,0,1-.09-0.05,0.09,0.09,0,0,1,0-.07v-9a0.11,0.11,0,0,0-.09-0.11h-3a0.09,0.09,0,0,1-.07,0l0,0a0,0,0,0,0,0,0,0.22,0.22,0,0,1,0-.11V21.52a0.17,0.17,0,0,1,.12-0.17h9.22a0.16,0.16,0,0,1,.12.05,0.06,0.06,0,0,1,0,0,0.13,0.13,0,0,1,0,.09v2.39a0.2,0.2,0,0,1-.05.14,0.13,0.13,0,0,1-.09,0h-3a0.08,0.08,0,0,0-.07,0,0.07,0.07,0,0,0,0,0v9a0.17,0.17,0,0,1-.09.11,0.13,0.13,0,0,1-.09,0h-2.74Z"/><path class="cls-1" d="M291.46,30.57a9.81,9.81,0,0,1-.35-3.25,9.81,9.81,0,0,1,.35-3.25,4.89,4.89,0,0,1,9,0,9.35,9.35,0,0,1,.35,3.25,9.34,9.34,0,0,1-.35,3.25A4.89,4.89,0,0,1,291.46,30.57Zm6-.88a7.91,7.91,0,0,0,.18-2.37,7.92,7.92,0,0,0-.18-2.37,1.63,1.63,0,0,0-3.06,0,7.92,7.92,0,0,0-.18,2.37,7.91,7.91,0,0,0,.18,2.37A1.63,1.63,0,0,0,297.47,29.69Z"/><path class="cls-1" d="M308.18,21.52a0.23,0.23,0,0,1,.23-0.17h2.86a0.23,0.23,0,0,1,.23.17l4,11.59a0.12,0.12,0,0,1-.12.18h-2.9a0.23,0.23,0,0,1-.23-0.18l-0.56-1.84h-3.88l-0.56,1.84a0.23,0.23,0,0,1-.23.18h-2.88a0.12,0.12,0,0,1-.12-0.18ZM311,28.71L309.85,25h-0.05l-1.16,3.72H311Z"/><path class="cls-1" d="M318.59,31.8a0.18,0.18,0,0,1,0-.28l1.58-1.86a0.16,0.16,0,0,1,.25,0,4.79,4.79,0,0,0,3,1.19c1.11,0,1.69-.46,1.69-1.12,0-.51-0.33-0.84-1.51-1L323,28.62c-2.58-.37-4-1.53-4-3.76s1.74-3.72,4.44-3.72a7.2,7.2,0,0,1,4.27,1.32,0.18,0.18,0,0,1,0,.26l-1.32,1.92a0.18,0.18,0,0,1-.25.05,4.82,4.82,0,0,0-2.69-.9,1.09,1.09,0,0,0-1.32,1c0,0.53.39,0.86,1.53,1l0.63,0.09c2.62,0.37,4,1.53,4,3.79s-1.69,3.83-4.88,3.83A7.51,7.51,0,0,1,318.59,31.8Z"/><path class="cls-1" d="M331.27,33.29h-0.05a0.12,0.12,0,0,1-.09-0.05,0.09,0.09,0,0,1,0-.07v-9a0.11,0.11,0,0,0-.09-0.11h-3a0.09,0.09,0,0,1-.07,0l0,0a0,0,0,0,0,0,0,0.22,0.22,0,0,1,0-.11V21.52a0.17,0.17,0,0,1,.12-0.17h9.22a0.16,0.16,0,0,1,.12.05,0.06,0.06,0,0,1,0,0,0.13,0.13,0,0,1,0,.09v2.39a0.2,0.2,0,0,1-.05.14,0.13,0.13,0,0,1-.09,0h-3a0.08,0.08,0,0,0-.07,0,0.07,0.07,0,0,0,0,0v9a0.17,0.17,0,0,1-.09.11,0.13,0.13,0,0,1-.09,0h-2.74Z"/><path class="cls-1" d="M339.82,21.52a0.23,0.23,0,0,1,.23-0.17h2.86a0.23,0.23,0,0,1,.23.17l4,11.59a0.12,0.12,0,0,1-.12.18h-2.9a0.23,0.23,0,0,1-.23-0.18l-0.56-1.84h-3.88l-0.56,1.84a0.23,0.23,0,0,1-.23.18h-2.88a0.12,0.12,0,0,1-.12-0.18Zm2.77,7.18L341.48,25h-0.05l-1.16,3.72h2.32Z"/><path class="cls-1" d="M348.86,33.29H348.8a0.12,0.12,0,0,1-.09-0.05,0.09,0.09,0,0,1,0-.07v-9a0.11,0.11,0,0,0-.09-0.11h-3a0.09,0.09,0,0,1-.07,0l0,0a0,0,0,0,0,0,0,0.22,0.22,0,0,1,0-.11V21.52a0.17,0.17,0,0,1,.12-0.17h9.22a0.16,0.16,0,0,1,.12.05,0.06,0.06,0,0,1,0,0,0.13,0.13,0,0,1,0,.09v2.39a0.2,0.2,0,0,1-.05.14,0.13,0.13,0,0,1-.09,0h-3a0.08,0.08,0,0,0-.07,0,0.07,0.07,0,0,0,0,0v9a0.17,0.17,0,0,1-.09.11,0.13,0.13,0,0,1-.09,0h-2.74Z"/><path class="cls-1" d="M355.28,21.52a0.17,0.17,0,0,1,.18-0.17h7.82a0.17,0.17,0,0,1,.18.17v2.27a0.17,0.17,0,0,1-.18.18h-4.79a0.09,0.09,0,0,0-.11.11v1.81a0.09,0.09,0,0,0,.11.1h3.93a0.17,0.17,0,0,1,.18.18v2.21a0.17,0.17,0,0,1-.18.18h-3.93a0.09,0.09,0,0,0-.11.11v1.91a0.09,0.09,0,0,0,.11.11h4.79a0.17,0.17,0,0,1,.18.18v2.27a0.17,0.17,0,0,1-.18.18h-7.82a0.17,0.17,0,0,1-.18-0.18V21.52Z"/><path class="cls-1" d="M376.23,33.29a0.21,0.21,0,0,1-.23-0.18l-1.88-6.67h0l-1.9,6.67a0.21,0.21,0,0,1-.23.18h-2.2a0.21,0.21,0,0,1-.23-0.18l-3.25-11.59a0.13,0.13,0,0,1,.14-0.17h2.88a0.2,0.2,0,0,1,.23.17l1.55,7h0l1.86-7a0.21,0.21,0,0,1,.23-0.17H375a0.21,0.21,0,0,1,.23.17l1.91,7h0l1.49-7a0.2,0.2,0,0,1,.21-0.17h2.88a0.12,0.12,0,0,1,.12.17l-3.23,11.59a0.22,0.22,0,0,1-.25.18h-2.2Z"/><path class="cls-1" d="M382.14,21.52a0.17,0.17,0,0,1,.18-0.17h2.74a0.17,0.17,0,0,1,.18.17v4.23a0.09,0.09,0,0,0,.11.11h3.25a0.09,0.09,0,0,0,.11-0.11V21.52a0.17,0.17,0,0,1,.18-0.17h2.74a0.17,0.17,0,0,1,.18.17V33.11a0.17,0.17,0,0,1-.18.18h-2.74a0.17,0.17,0,0,1-.18-0.18V28.71a0.09,0.09,0,0,0-.11-0.11h-3.25a0.09,0.09,0,0,0-.11.11v4.41a0.17,0.17,0,0,1-.18.18h-2.74a0.17,0.17,0,0,1-.18-0.18V21.52Z"/><path class="cls-1" d="M392.83,21.52a0.17,0.17,0,0,1,.18-0.17h7.82a0.17,0.17,0,0,1,.18.17v2.27a0.17,0.17,0,0,1-.18.18H396a0.09,0.09,0,0,0-.11.11v1.81a0.09,0.09,0,0,0,.11.1H400a0.17,0.17,0,0,1,.18.18v2.21a0.17,0.17,0,0,1-.18.18H396a0.09,0.09,0,0,0-.11.11v1.91a0.09,0.09,0,0,0,.11.11h4.79a0.17,0.17,0,0,1,.18.18v2.27a0.17,0.17,0,0,1-.18.18H393a0.17,0.17,0,0,1-.18-0.18V21.52Z"/><path class="cls-1" d="M408.14,33.29a0.24,0.24,0,0,1-.26-0.18L406.07,29h-1.14a0.09,0.09,0,0,0-.11.11v4a0.17,0.17,0,0,1-.18.18h-2.74a0.17,0.17,0,0,1-.18-0.18V21.52a0.17,0.17,0,0,1,.18-0.17h4.86c2.74,0,4.3,1.6,4.3,3.85a3.56,3.56,0,0,1-2,3.34l2.2,4.55a0.14,0.14,0,0,1-.12.21h-3ZM408,25.23a1.24,1.24,0,0,0-1.4-1.26h-1.65a0.09,0.09,0,0,0-.11.11v2.32a0.09,0.09,0,0,0,.11.11h1.65A1.24,1.24,0,0,0,408,25.23Z"/><path class="cls-1" d="M411.9,21.52a0.17,0.17,0,0,1,.18-0.17h7.82a0.17,0.17,0,0,1,.18.17v2.27a0.17,0.17,0,0,1-.18.18H415.1a0.09,0.09,0,0,0-.11.11v1.81a0.09,0.09,0,0,0,.11.1H419a0.17,0.17,0,0,1,.18.18v2.21a0.17,0.17,0,0,1-.18.18H415.1a0.09,0.09,0,0,0-.11.11v1.91a0.09,0.09,0,0,0,.11.11h4.79a0.17,0.17,0,0,1,.18.18v2.27a0.17,0.17,0,0,1-.18.18h-7.82a0.17,0.17,0,0,1-.18-0.18V21.52Z"/><path class="cls-1" d="M228,36a0.17,0.17,0,0,1,.18-0.17h2.74a0.17,0.17,0,0,1,.18.17V47.58a0.17,0.17,0,0,1-.18.18h-2.74a0.17,0.17,0,0,1-.18-0.18V36Z"/><path class="cls-1" d="M234.78,47.76h-0.05a0.12,0.12,0,0,1-.09-0.05,0.09,0.09,0,0,1,0-.07v-9a0.11,0.11,0,0,0-.09-0.11h-3a0.09,0.09,0,0,1-.07,0l0,0a0,0,0,0,0,0,0,0.22,0.22,0,0,1,0-.11V36a0.17,0.17,0,0,1,.12-0.17h9.22a0.16,0.16,0,0,1,.12.05,0.06,0.06,0,0,1,0,0,0.13,0.13,0,0,1,0,.09v2.39a0.2,0.2,0,0,1-.05.14,0.13,0.13,0,0,1-.09,0h-3a0.08,0.08,0,0,0-.07,0,0.07,0.07,0,0,0,0,0v9a0.17,0.17,0,0,1-.09.11,0.13,0.13,0,0,1-.09,0h-2.74Z"/><path class="cls-1" d="M244.29,36a0.17,0.17,0,0,1,.18-0.17h2.6a0.29,0.29,0,0,1,.3.17l2.76,6.24h0.07L252.88,36a0.28,0.28,0,0,1,.3-0.17h2.56a0.17,0.17,0,0,1,.18.17V47.58a0.17,0.17,0,0,1-.18.18H253.3a0.17,0.17,0,0,1-.18-0.18V41.44H253l-1.91,4.46a0.37,0.37,0,0,1-.33.23h-1.37a0.39,0.39,0,0,1-.33-0.23l-1.91-4.46h-0.09v6.15a0.17,0.17,0,0,1-.18.18h-2.44a0.17,0.17,0,0,1-.18-0.18V36Z"/><path class="cls-1" d="M260.3,36a0.23,0.23,0,0,1,.23-0.17h2.86a0.23,0.23,0,0,1,.23.17l4,11.59a0.12,0.12,0,0,1-.12.18h-2.9a0.23,0.23,0,0,1-.23-0.18l-0.56-1.84H260l-0.56,1.84a0.23,0.23,0,0,1-.23.18H256.3a0.12,0.12,0,0,1-.12-0.18Zm2.77,7.18L262,39.45h-0.05l-1.16,3.72h2.32Z"/><path class="cls-1" d="M269.35,47.76h-0.05a0.12,0.12,0,0,1-.09-0.05,0.09,0.09,0,0,1,0-.07v-9a0.11,0.11,0,0,0-.09-0.11h-3a0.09,0.09,0,0,1-.07,0l0,0a0,0,0,0,0,0,0,0.22,0.22,0,0,1,0-.11V36a0.17,0.17,0,0,1,.12-0.17h9.22a0.16,0.16,0,0,1,.12.05,0.06,0.06,0,0,1,0,0,0.13,0.13,0,0,1,0,.09v2.39a0.2,0.2,0,0,1-.05.14,0.13,0.13,0,0,1-.09,0h-3a0.08,0.08,0,0,0-.07,0,0.07,0.07,0,0,0,0,0v9a0.17,0.17,0,0,1-.09.11,0.13,0.13,0,0,1-.09,0h-2.74Z"/><path class="cls-1" d="M278.72,47.76h-0.05a0.12,0.12,0,0,1-.09-0.05,0.09,0.09,0,0,1,0-.07v-9a0.11,0.11,0,0,0-.09-0.11h-3a0.09,0.09,0,0,1-.07,0l0,0a0,0,0,0,0,0,0,0.22,0.22,0,0,1,0-.11V36a0.17,0.17,0,0,1,.12-0.17h9.22a0.16,0.16,0,0,1,.12.05,0.06,0.06,0,0,1,0,0,0.13,0.13,0,0,1,0,.09v2.39a0.2,0.2,0,0,1-.05.14,0.13,0.13,0,0,1-.09,0h-3a0.08,0.08,0,0,0-.07,0,0.07,0.07,0,0,0,0,0v9a0.17,0.17,0,0,1-.09.11,0.13,0.13,0,0,1-.09,0h-2.74Z"/><path class="cls-1" d="M285.14,36a0.17,0.17,0,0,1,.18-0.17h7.82a0.17,0.17,0,0,1,.18.17v2.27a0.17,0.17,0,0,1-.18.18h-4.79a0.09,0.09,0,0,0-.11.11v1.81a0.09,0.09,0,0,0,.11.1h3.93a0.17,0.17,0,0,1,.18.18v2.21a0.17,0.17,0,0,1-.18.18h-3.93a0.09,0.09,0,0,0-.11.11V45a0.09,0.09,0,0,0,.11.11h4.79a0.17,0.17,0,0,1,.18.18v2.27a0.17,0.17,0,0,1-.18.18h-7.82a0.17,0.17,0,0,1-.18-0.18V36Z"/><path class="cls-1" d="M300.46,47.76a0.24,0.24,0,0,1-.26-0.18l-1.81-4.07h-1.14a0.09,0.09,0,0,0-.11.11v4a0.17,0.17,0,0,1-.18.18h-2.74a0.17,0.17,0,0,1-.18-0.18V36a0.17,0.17,0,0,1,.18-0.17h4.86c2.74,0,4.3,1.6,4.3,3.85a3.56,3.56,0,0,1-2,3.34l2.2,4.55a0.14,0.14,0,0,1-.12.21h-3ZM300.3,39.7a1.24,1.24,0,0,0-1.4-1.26h-1.65a0.09,0.09,0,0,0-.11.11v2.32a0.09,0.09,0,0,0,.11.11h1.65A1.24,1.24,0,0,0,300.3,39.7Z"/><path class="cls-1" d="M303.7,46.27a0.18,0.18,0,0,1,0-.28l1.58-1.86a0.16,0.16,0,0,1,.25,0,4.79,4.79,0,0,0,3,1.19c1.11,0,1.69-.46,1.69-1.12,0-.51-0.33-0.84-1.51-1l-0.63-.09c-2.58-.37-4-1.53-4-3.76s1.74-3.72,4.44-3.72a7.2,7.2,0,0,1,4.27,1.32,0.18,0.18,0,0,1,0,.26l-1.32,1.92a0.18,0.18,0,0,1-.25.05,4.82,4.82,0,0,0-2.69-.9,1.09,1.09,0,0,0-1.32,1c0,0.53.39,0.86,1.53,1l0.63,0.09c2.62,0.37,4,1.53,4,3.79S311.71,48,308.51,48A7.51,7.51,0,0,1,303.7,46.27Z"/><path class="cls-1" d="M313.9,45.16a0.17,0.17,0,0,1,.18-0.18h2.44a0.17,0.17,0,0,1,.18.18v2.42a0.17,0.17,0,0,1-.18.18h-2.44a0.17,0.17,0,0,1-.18-0.18V45.16Z"/><path class="cls-3" d="M444.62,14.14a18.87,18.87,0,0,0-18.06,13.43H440.2V22.07a1.61,1.61,0,0,1,.64-1.35,1,1,0,0,1,1.23.12L453.8,31.78a1.79,1.79,0,0,1,0,2.46L442.07,45.17a1,1,0,0,1-.69.29,1,1,0,0,1-.54-0.17,1.61,1.61,0,0,1-.64-1.35V38.43H426.56A18.86,18.86,0,1,0,444.62,14.14Z"/><path class="cls-3" d="M129.21,273.84a18.87,18.87,0,0,0,18.06-13.43H133.63v5.51a1.61,1.61,0,0,1-.64,1.35,1,1,0,0,1-1.23-.12L120,256.21a1.79,1.79,0,0,1,0-2.46l11.72-10.93a1,1,0,0,1,.69-0.29,1,1,0,0,1,.54.17,1.61,1.61,0,0,1,.64,1.35v5.51h13.64A18.86,18.86,0,1,0,129.21,273.84Z"/></svg>